<svg width="67" height="67" version="1.1" xmlns="http://www.w3.org/2000/svg" desc="Created with imagetracer.js version 1.2.6" ><path fill="rgb(232,213,138)" stroke="rgb(232,213,138)" stroke-width="1" opacity="1" d="M 36.5 8 L 38 11.5 L 39.5 15 L 40 13 L 43 12.5 Q 40.8 11.3 43.5 10 L 43.5 12 L 47 12.5 L 46 19 L 49 20.5 L 52 25.5 L 52 27.5 L 51 31.5 L 53 31.5 L 51.5 35 L 50 34.5 L 50 36 L 46 36 L 47 23.5 L 46 19.5 L 42.5 16 Q 37.8 15.3 37 18.5 L 36.5 20 L 35 13.5 Q 38.5 12 36 10.5 L 36.5 8 Z M 49 29 L 47 31 L 49 31 L 49 29 Z " /><path fill="rgb(232,213,138)" stroke="rgb(232,213,138)" stroke-width="1" opacity="1" d="M 24.5 10 L 25 11.5 L 24.5 13 Q 26.8 12.3 26 14.5 L 23 15.5 L 22.5 17 L 22 15.5 L 24 11.5 L 24.5 10 Z " /><path fill="rgb(232,213,138)" stroke="rgb(232,213,138)" stroke-width="1" opacity="1" d="M 30.5 10 L 32 13.5 Q 30.2 17.8 28.5 15 Q 26.3 15.8 27 13.5 L 30 12.5 L 30.5 10 Z " /><path fill="rgb(232,213,138)" stroke="rgb(232,213,138)" stroke-width="1" opacity="1" d="M 18.5 15 L 20.5 18 Q 18.3 18.8 19 16.5 L 18.5 15 Z " /><path fill="rgb(232,213,138)" stroke="rgb(232,213,138)" stroke-width="1" opacity="1" d="M 14.5 16 L 19 19.5 Q 16.8 20.8 18 25.5 L 16.5 27 Q 14.3 26.3 15 28.5 L 12 30.5 L 13 29.5 L 10.5 26 L 13.5 28 L 14 26.5 L 13.5 23 L 16 21.5 L 14.5 16 Z " /><path fill="rgb(232,213,138)" stroke="rgb(232,213,138)" stroke-width="1" opacity="1" d="M 31.5 17 L 32.5 19 L 31.5 17 Z " /><path fill="rgb(232,213,138)" stroke="rgb(232,213,138)" stroke-width="1" opacity="1" d="M 43.5 23 L 44 25.5 Q 41.5 27 45 28.5 L 44.5 31 L 43.5 29 L 41.5 32 L 41 30.5 L 43 27 L 41 26.5 L 43 25.5 L 41 24.5 L 43.5 23 Z " /><path fill="rgb(232,213,138)" stroke="rgb(232,213,138)" stroke-width="1" opacity="1" d="M 23.5 28 L 24.5 30 Q 23.3 27.8 22 30.5 L 23.5 33 L 25 32.5 L 24.5 34 L 26 34.5 L 25 38 L 22 38 L 22 31.5 Q 19.3 29.7 23.5 28 Z " /><path fill="rgb(232,213,138)" stroke="rgb(232,213,138)" stroke-width="1" opacity="1" d="M 9.5 31 L 13 33.5 L 11.5 33 L 9.5 31 Z " /><path fill="rgb(232,213,138)" stroke="rgb(232,213,138)" stroke-width="1" opacity="1" d="M 30.5 32 L 29.5 34 L 30.5 32 Z " /><path fill="rgb(232,213,138)" stroke="rgb(232,213,138)" stroke-width="1" opacity="1" d="M 42 33 L 44 33.5 L 42.5 37 L 42 33 Z " /><path fill="rgb(232,213,138)" stroke="rgb(232,213,138)" stroke-width="1" opacity="1" d="M 18.5 39 L 21 39.5 L 18.5 40 L 18.5 39 Z " /><path fill="rgb(232,213,138)" stroke="rgb(232,213,138)" stroke-width="1" opacity="1" d="M 46.5 41 L 49 41.5 L 46.5 42 L 46.5 41 Z " /><path fill="rgb(232,213,138)" stroke="rgb(232,213,138)" stroke-width="1" opacity="1" d="M 42.5 42 L 45 43.5 L 43.5 44 L 42.5 42 Z " /><path fill="rgb(232,213,138)" stroke="rgb(232,213,138)" stroke-width="1" opacity="1" d="M 19.5 46 L 27 47.5 L 20.5 48 L 19.5 46 Z " /><path fill="rgb(232,213,138)" stroke="rgb(232,213,138)" stroke-width="1" opacity="1" d="M 29.5 47 L 44 47.5 L 29.5 48 L 29.5 47 Z " /><path fill="rgb(52,42,25)" stroke="rgb(52,42,25)" stroke-width="1" opacity="1" d="M 36.5 4 Q 44.2 4.3 48 8.5 L 46.5 11 L 45.5 8 L 42.5 9 Q 40.2 6.3 34.5 7 L 34.5 9 Q 31.5 7.5 34.5 6 L 39 5.5 Q 35.7 5.6 36.5 4 Z " /><path fill="rgb(52,42,25)" stroke="rgb(52,42,25)" stroke-width="1" opacity="1" d="M 20.5 6 L 22 6.5 L 17.5 9 L 18.5 7 L 20.5 6 Z " /><path fill="rgb(52,42,25)" stroke="rgb(52,42,25)" stroke-width="1" opacity="1" d="M 21.5 8 L 23 8.5 L 15.5 13 L 16.5 11 L 21.5 8 Z " /><path fill="rgb(52,42,25)" stroke="rgb(52,42,25)" stroke-width="1" opacity="1" d="M 13.5 11 L 11.5 14 L 13.5 11 Z " /><path fill="rgb(52,42,25)" stroke="rgb(52,42,25)" stroke-width="1" opacity="1" d="M 49.5 11 L 51 13.5 L 49 12.5 L 49.5 11 Z " /><path fill="rgb(52,42,25)" stroke="rgb(52,42,25)" stroke-width="1" opacity="1" d="M 52.5 12 Q 55.3 13.3 53 14.5 L 53.5 16 L 56 14.5 L 55 15.5 Q 58.1 17.3 56.5 19 Q 59.8 17.9 59 20.5 L 61 26.5 L 59 26.5 Q 58.3 29.1 61 28 L 61 30.5 L 62 32.5 L 61 32.5 L 60.5 31 L 59 34 L 61 34.5 L 59 36.5 L 57 45.5 L 57.5 47 L 55.5 47 L 54 46.5 L 56 44.5 L 59 34.5 L 58 32.5 L 58 30.5 Q 58.9 21.6 54 18.5 L 54.5 17 L 52 15.5 L 53 13.5 L 52.5 12 Z " /><path fill="rgb(52,42,25)" stroke="rgb(52,42,25)" stroke-width="1" opacity="1" d="M 13.5 14 L 12 16.5 L 8.5 23 L 8 21.5 L 13.5 14 Z " /><path fill="rgb(52,42,25)" stroke="rgb(52,42,25)" stroke-width="1" opacity="1" d="M 53.5 20 L 54 22 L 52 21.5 L 53.5 20 Z " /><path fill="rgb(52,42,25)" stroke="rgb(52,42,25)" stroke-width="1" opacity="1" d="M 7.5 24 L 8 27 L 10 27.5 L 8.5 28 Q 6 27 7.5 24 Z " /><path fill="rgb(52,42,25)" stroke="rgb(52,42,25)" stroke-width="1" opacity="1" d="M 6.5 28 L 7 33 L 9 33.5 L 7 37.5 L 9.5 39 L 11.5 38 L 11.5 39 L 9 40.5 L 8.5 44 L 7.5 42 L 7 44 L 5 43.5 L 5 41.5 L 4 36.5 L 5 36.5 L 6.5 42 L 7 39.5 L 6 38.5 L 6.5 28 Z " /><path fill="rgb(52,42,25)" stroke="rgb(52,42,25)" stroke-width="1" opacity="1" d="M 6.5 45 Q 8.8 44.3 8 46.5 L 11 45.5 L 10.5 47 L 12 47.5 L 10.5 48 L 9 47.5 L 8.5 49 L 6.5 45 Z " /><path fill="rgb(52,42,25)" stroke="rgb(52,42,25)" stroke-width="1" opacity="1" d="M 17.5 46 L 17 47.5 L 16.5 49 L 16 47.5 L 17.5 46 Z " /><path fill="rgb(52,42,25)" stroke="rgb(52,42,25)" stroke-width="1" opacity="1" d="M 46.5 47 L 45.5 49 L 44 48.5 L 46.5 47 Z " /><path fill="rgb(52,42,25)" stroke="rgb(52,42,25)" stroke-width="1" opacity="1" d="M 53.5 48 L 55.5 49 L 57 48.5 L 53.5 50 L 49.5 53 L 50 51.5 Q 49.3 49.3 51.5 50 L 53.5 48 Z " /><path fill="rgb(52,42,25)" stroke="rgb(52,42,25)" stroke-width="1" opacity="1" d="M 11.5 49 L 14 50.5 L 14.5 49 L 15 50.5 L 14 51.5 L 15.5 54 L 14 53.5 Q 13.3 55.8 15.5 55 L 15.5 56 L 13 54.5 L 11 51.5 L 11.5 49 Z " /><path fill="rgb(52,42,25)" stroke="rgb(52,42,25)" stroke-width="1" opacity="1" d="M 8.5 52 L 9.5 54 L 8.5 52 Z " /><path fill="rgb(52,42,25)" stroke="rgb(52,42,25)" stroke-width="1" opacity="1" d="M 53.5 52 L 51.5 55 L 48.5 57 L 48.5 54 L 50.5 54 L 53.5 52 Z " /><path fill="rgb(52,42,25)" stroke="rgb(52,42,25)" stroke-width="1" opacity="1" d="M 45 54 L 47 54.5 L 46 56.5 Q 48.3 57.8 45.5 59 L 42 56.5 L 44.5 58 L 46 57.5 L 45 54 Z " /><path fill="rgb(52,42,25)" stroke="rgb(52,42,25)" stroke-width="1" opacity="1" d="M 18.5 55 L 19.5 58 L 22.5 57 L 22.5 59 L 27.5 57 L 27.5 58 L 24 59.5 L 32.5 61 L 33.5 59 L 29.5 60 L 29.5 57 L 37 59.5 L 34 60.5 L 34.5 62 Q 22.5 62.5 17 56.5 L 18.5 55 Z " /><path fill="rgb(0,0,0)" stroke="rgb(0,0,0)" stroke-width="1" opacity="0.00784313725490196" d="M 13.5 6 L 12.5 8 L 13.5 6 Z " /><path fill="rgb(0,0,0)" stroke="rgb(0,0,0)" stroke-width="1" opacity="0.00784313725490196" d="M 53.5 7 L 58.5 13 L 53.5 7 Z " /><path fill="rgb(0,0,0)" stroke="rgb(0,0,0)" stroke-width="1" opacity="0.00784313725490196" d="M 7.5 12 L 6.5 14 L 7.5 12 Z " /><path fill="rgb(0,0,0)" stroke="rgb(0,0,0)" stroke-width="1" opacity="0.00784313725490196" d="M 65.5 28 L 66 37.5 L 65 37.5 L 65.5 28 Z " /><path fill="rgb(0,0,0)" stroke="rgb(0,0,0)" stroke-width="1" opacity="0.00784313725490196" d="M 7.5 53 L 12.5 59 L 7.5 53 Z " /><path fill="rgb(0,0,0)" stroke="rgb(0,0,0)" stroke-width="1" opacity="0.00784313725490196" d="M 28.5 65 L 38 65.5 L 28.5 66 L 28.5 65 Z " /><path fill="rgb(39,64,49)" stroke="rgb(39,64,49)" stroke-width="1" opacity="0.996078431372549" d="M 28.5 1 L 32 1.5 L 28.5 2 L 28.5 1 Z " /><path fill="rgb(39,64,49)" stroke="rgb(39,64,49)" stroke-width="1" opacity="0.996078431372549" d="M 34.5 1 L 37 1.5 L 34.5 2 L 34.5 1 Z " /><path fill="rgb(39,64,49)" stroke="rgb(39,64,49)" stroke-width="1" opacity="0.996078431372549" d="M 29.5 3 L 36 3.5 L 29.5 4 L 29.5 3 Z " /><path fill="rgb(39,64,49)" stroke="rgb(39,64,49)" stroke-width="1" opacity="0.996078431372549" d="M 42.5 3 Q 44.8 2.3 44 4.5 L 46 4.5 L 45.5 6 L 47.5 5 L 57 12.5 Q 65.3 20.7 64 38.5 L 62.5 42 Q 60.3 39.3 61 33.5 L 62 31.5 Q 59.5 30 61 24.5 L 56 15.5 L 55.5 12 L 54 12.5 Q 56.3 11.3 53.5 10 Q 52 12.5 50.5 9 L 39 4.5 L 42.5 3 Z M 63 33 L 62 39 L 63 39 L 63 33 Z " /><path fill="rgb(39,64,49)" stroke="rgb(39,64,49)" stroke-width="1" opacity="0.996078431372549" d="M 11.5 9 L 9.5 12 L 11.5 9 Z " /><path fill="rgb(39,64,49)" stroke="rgb(39,64,49)" stroke-width="1" opacity="0.996078431372549" d="M 8.5 16 L 7.5 18 L 8.5 16 Z " /><path fill="rgb(39,64,49)" stroke="rgb(39,64,49)" stroke-width="1" opacity="0.996078431372549" d="M 5.5 22 L 6 23.5 Q 2 28.5 4 39.5 Q 6.7 50.3 14.5 56 Q 21.3 62.2 34.5 62 L 37.5 61 L 37.5 62 L 36 62.5 L 38 63.5 L 29.5 64 Q 14.2 61.3 7 50.5 L 3 43.5 L 1 35.5 L 1 29.5 L 2 29.5 L 2.5 35 Q 2 26.5 5.5 22 Z " /><path fill="rgb(39,64,49)" stroke="rgb(39,64,49)" stroke-width="1" opacity="0.996078431372549" d="M 61.5 43 L 62 44.5 Q 58.4 52.9 51.5 58 L 49.5 59 L 49 56.5 L 50.5 55 L 50.5 57 L 56 52.5 L 55.5 51 L 54 51.5 L 59 48.5 L 61.5 43 Z " /><path fill="rgb(39,64,49)" stroke="rgb(39,64,49)" stroke-width="1" opacity="0.996078431372549" d="M 47.5 57 L 48 59.5 L 46.5 61 L 46 58.5 L 47.5 57 Z " /><path fill="rgb(39,64,49)" stroke="rgb(39,64,49)" stroke-width="1" opacity="0.996078431372549" d="M 43.5 59 L 45 59.5 L 43 60.5 L 45 61.5 L 39.5 63 L 39.5 62 L 42 61.5 L 40 60.5 L 43.5 59 Z " /><path fill="rgb(0,0,0)" stroke="rgb(0,0,0)" stroke-width="1" opacity="0.4117647058823529" d="M 28.5 0 L 37 0.5 L 28.5 1 L 28.5 0 Z " /><path fill="rgb(0,0,0)" stroke="rgb(0,0,0)" stroke-width="1" opacity="0.4117647058823529" d="M 24.5 1 L 27 1.5 L 24.5 2 L 24.5 1 Z " /><path fill="rgb(0,0,0)" stroke="rgb(0,0,0)" stroke-width="1" opacity="0.4117647058823529" d="M 39.5 1 L 42 1.5 L 39.5 2 L 39.5 1 Z " /><path fill="rgb(0,0,0)" stroke="rgb(0,0,0)" stroke-width="1" opacity="0.4117647058823529" d="M 43.5 2 L 50 5.5 L 48.5 5 L 43.5 3 L 43.5 2 Z " /><path fill="rgb(0,0,0)" stroke="rgb(0,0,0)" stroke-width="1" opacity="0.4117647058823529" d="M 15.5 5 L 14.5 7 L 15.5 5 Z " /><path fill="rgb(0,0,0)" stroke="rgb(0,0,0)" stroke-width="1" opacity="0.4117647058823529" d="M 51.5 6 L 53.5 9 L 51.5 6 Z " /><path fill="rgb(0,0,0)" stroke="rgb(0,0,0)" stroke-width="1" opacity="0.4117647058823529" d="M 11.5 8 L 8.5 12 L 11.5 8 Z " /><path fill="rgb(0,0,0)" stroke="rgb(0,0,0)" stroke-width="1" opacity="0.4117647058823529" d="M 56.5 11 L 59.5 15 L 56.5 11 Z " /><path fill="rgb(0,0,0)" stroke="rgb(0,0,0)" stroke-width="1" opacity="0.4117647058823529" d="M 6.5 14 L 5.5 16 L 6.5 14 Z " /><path fill="rgb(0,0,0)" stroke="rgb(0,0,0)" stroke-width="1" opacity="0.4117647058823529" d="M 1.5 24 L 2 26.5 L 1 26.5 L 1.5 24 Z " /><path fill="rgb(0,0,0)" stroke="rgb(0,0,0)" stroke-width="1" opacity="0.4117647058823529" d="M 64.5 25 L 65 28.5 L 64 28.5 L 64.5 25 Z " /><path fill="rgb(0,0,0)" stroke="rgb(0,0,0)" stroke-width="1" opacity="0.4117647058823529" d="M 0.5 28 L 1 36.5 L 0 36.5 L 0.5 28 Z " /><path fill="rgb(0,0,0)" stroke="rgb(0,0,0)" stroke-width="1" opacity="0.4117647058823529" d="M 64.5 37 L 65 39.5 L 64 39.5 L 64.5 37 Z " /><path fill="rgb(0,0,0)" stroke="rgb(0,0,0)" stroke-width="1" opacity="0.4117647058823529" d="M 1.5 39 L 2 41.5 L 1 41.5 L 1.5 39 Z " /><path fill="rgb(0,0,0)" stroke="rgb(0,0,0)" stroke-width="1" opacity="0.4117647058823529" d="M 63.5 41 L 64 43.5 L 62.5 46 L 62 44.5 L 63.5 41 Z " /><path fill="rgb(0,0,0)" stroke="rgb(0,0,0)" stroke-width="1" opacity="0.4117647058823529" d="M 3.5 45 L 6 49.5 L 4 48.5 L 3.5 45 Z " /><path fill="rgb(0,0,0)" stroke="rgb(0,0,0)" stroke-width="1" opacity="0.4117647058823529" d="M 60.5 49 L 59.5 51 L 60.5 49 Z " /><path fill="rgb(0,0,0)" stroke="rgb(0,0,0)" stroke-width="1" opacity="0.4117647058823529" d="M 6.5 51 L 8.5 54 L 6.5 51 Z " /><path fill="rgb(0,0,0)" stroke="rgb(0,0,0)" stroke-width="1" opacity="0.4117647058823529" d="M 58.5 52 L 52.5 59 L 58.5 52 Z " /><path fill="rgb(0,0,0)" stroke="rgb(0,0,0)" stroke-width="1" opacity="0.4117647058823529" d="M 11.5 56 L 14.5 60 L 11.5 56 Z " /><path fill="rgb(0,0,0)" stroke="rgb(0,0,0)" stroke-width="1" opacity="0.4117647058823529" d="M 50.5 59 L 49.5 61 L 50.5 59 Z " /><path fill="rgb(0,0,0)" stroke="rgb(0,0,0)" stroke-width="1" opacity="0.4117647058823529" d="M 18.5 61 L 21 62.5 L 19.5 63 L 18.5 61 Z " /><path fill="rgb(0,0,0)" stroke="rgb(0,0,0)" stroke-width="1" opacity="0.4117647058823529" d="M 44.5 62 L 46 62.5 L 41.5 64 L 41.5 63 L 44.5 62 Z " /><path fill="rgb(0,0,0)" stroke="rgb(0,0,0)" stroke-width="1" opacity="0.4117647058823529" d="M 25.5 64 L 29 64.5 L 25.5 65 L 25.5 64 Z " /><path fill="rgb(0,0,0)" stroke="rgb(0,0,0)" stroke-width="1" opacity="0.4117647058823529" d="M 37.5 64 L 40 64.5 L 37.5 65 L 37.5 64 Z " /><path fill="rgb(211,196,131)" stroke="rgb(211,196,131)" stroke-width="1" opacity="1" d="M 23.5 3 L 26 3.5 Q 18.8 4.3 15.5 9 L 18.5 5 L 23.5 3 Z " /><path fill="rgb(211,196,131)" stroke="rgb(211,196,131)" stroke-width="1" opacity="1" d="M 13.5 8 L 9.5 13 L 13.5 8 Z " /><path fill="rgb(211,196,131)" stroke="rgb(211,196,131)" stroke-width="1" opacity="1" d="M 31.5 8 Q 34.5 9.5 31.5 11 L 31.5 8 Z " /><path fill="rgb(211,196,131)" stroke="rgb(211,196,131)" stroke-width="1" opacity="1" d="M 16.5 10 L 15.5 12 L 16.5 10 Z " /><path fill="rgb(211,196,131)" stroke="rgb(211,196,131)" stroke-width="1" opacity="1" d="M 19.5 12 Q 22.5 13.5 19.5 15 L 19.5 12 Z " /><path fill="rgb(211,196,131)" stroke="rgb(211,196,131)" stroke-width="1" opacity="1" d="M 25.5 12 L 28 12.5 Q 25.9 15.8 25.5 12 Z " /><path fill="rgb(211,196,131)" stroke="rgb(211,196,131)" stroke-width="1" opacity="1" d="M 18.5 16 L 21 19.5 L 19.5 19 Q 16.4 19.7 18.5 16 Z " /><path fill="rgb(211,196,131)" stroke="rgb(211,196,131)" stroke-width="1" opacity="1" d="M 23.5 16 L 24.5 18 L 23.5 16 Z " /><path fill="rgb(211,196,131)" stroke="rgb(211,196,131)" stroke-width="1" opacity="1" d="M 31.5 18 L 31 19.5 L 30.5 21 L 29.5 19 L 31.5 18 Z " /><path fill="rgb(211,196,131)" stroke="rgb(211,196,131)" stroke-width="1" opacity="1" d="M 46.5 18 L 45.5 20 L 46.5 18 Z " /><path fill="rgb(211,196,131)" stroke="rgb(211,196,131)" stroke-width="1" opacity="1" d="M 42.5 20 L 42 21.5 L 43 23.5 L 41 24 L 42.5 20 Z " /><path fill="rgb(211,196,131)" stroke="rgb(211,196,131)" stroke-width="1" opacity="1" d="M 46.5 23 L 47 25.5 L 46 25.5 L 46.5 23 Z " /><path fill="rgb(211,196,131)" stroke="rgb(211,196,131)" stroke-width="1" opacity="1" d="M 12.5 26 Q 14.8 25.3 14 27.5 L 12.5 26 Z " /><path fill="rgb(211,196,131)" stroke="rgb(211,196,131)" stroke-width="1" opacity="1" d="M 17.5 26 L 19.5 29 L 21.5 28 L 21 29.5 L 22 36 L 20 36.5 L 23 38.5 Q 23.8 40.8 21.5 40 L 21.5 38 L 13.5 39 L 13.5 37 Q 10.9 37.8 12 34.5 L 13 33.5 L 11.5 31 L 13 30.5 L 12.5 29 Q 13.8 31.3 15 28.5 Q 14.3 26.3 16.5 27 L 17.5 26 Z " /><path fill="rgb(211,196,131)" stroke="rgb(211,196,131)" stroke-width="1" opacity="1" d="M 24.5 26 L 25.5 28 L 24.5 26 Z " /><path fill="rgb(211,196,131)" stroke="rgb(211,196,131)" stroke-width="1" opacity="1" d="M 30.5 27 L 34 27.5 L 32.5 31 L 29 28.5 L 30.5 27 Z " /><path fill="rgb(211,196,131)" stroke="rgb(211,196,131)" stroke-width="1" opacity="1" d="M 48.5 29 L 49 31 L 47 30.5 L 48.5 29 Z " /><path fill="rgb(211,196,131)" stroke="rgb(211,196,131)" stroke-width="1" opacity="1" d="M 45.5 30 L 46 36.5 L 45 36.5 L 44 31.5 L 45.5 30 Z " /><path fill="rgb(211,196,131)" stroke="rgb(211,196,131)" stroke-width="1" opacity="1" d="M 51 30 L 53 30.5 L 51 31.5 L 51 30 Z " /><path fill="rgb(211,196,131)" stroke="rgb(211,196,131)" stroke-width="1" opacity="1" d="M 42.5 31 L 43 32.5 L 42 37.5 L 43 37.5 L 43.5 36 L 44 37.5 Q 42.5 40.5 41 37.5 L 40 33.5 L 42.5 31 Z " /><path fill="rgb(211,196,131)" stroke="rgb(211,196,131)" stroke-width="1" opacity="1" d="M 50.5 34 L 53 35.5 L 52 38 L 48 36.5 L 50 36 L 50.5 34 Z " /><path fill="rgb(211,196,131)" stroke="rgb(211,196,131)" stroke-width="1" opacity="1" d="M 34.5 38 L 35.5 40 L 34.5 38 Z " /><path fill="rgb(211,196,131)" stroke="rgb(211,196,131)" stroke-width="1" opacity="1" d="M 38.5 38 L 39 39.5 L 36.5 43 L 36 41.5 L 38.5 38 Z " /><path fill="rgb(211,196,131)" stroke="rgb(211,196,131)" stroke-width="1" opacity="1" d="M 27.5 39 L 30.5 41 L 31.5 39 L 32.5 41 L 31 41.5 L 31.5 43 L 29.5 43 L 28 42.5 L 30 41.5 L 27.5 39 Z " /><path fill="rgb(211,196,131)" stroke="rgb(211,196,131)" stroke-width="1" opacity="1" d="M 21.5 41 L 26 42.5 L 22.5 43 L 20.5 43 L 18.5 44 L 19.5 42 L 21.5 41 Z " /><path fill="rgb(211,196,131)" stroke="rgb(211,196,131)" stroke-width="1" opacity="1" d="M 54.5 42 L 53.5 44 L 54.5 42 Z " /><path fill="rgb(211,196,131)" stroke="rgb(211,196,131)" stroke-width="1" opacity="1" d="M 42.5 43 L 43 45 L 41 44.5 L 42.5 43 Z " /><path fill="rgb(211,196,131)" stroke="rgb(211,196,131)" stroke-width="1" opacity="1" d="M 28.5 44 L 34 44.5 L 28.5 45 L 28.5 44 Z " /><path fill="rgb(211,196,131)" stroke="rgb(211,196,131)" stroke-width="1" opacity="1" d="M 36.5 44 L 40 44.5 L 36.5 45 L 36.5 44 Z " /><path fill="rgb(211,196,131)" stroke="rgb(211,196,131)" stroke-width="1" opacity="1" d="M 51 45 L 53 45.5 L 51 46.5 L 51 45 Z " /><path fill="rgb(235,230,197)" stroke="rgb(235,230,197)" stroke-width="1" opacity="1" d="M 14.5 8 L 13.5 10 L 14.5 8 Z " /><path fill="rgb(235,230,197)" stroke="rgb(235,230,197)" stroke-width="1" opacity="1" d="M 25 16 Q 28.8 14.5 28 17.5 L 29.5 17 L 31 17.5 L 29 18 L 28.5 20 L 25 18.5 L 25 16 Z " /><path fill="rgb(235,230,197)" stroke="rgb(235,230,197)" stroke-width="1" opacity="1" d="M 20.5 20 L 22.5 20 L 24 20.5 L 21 22.5 L 20.5 20 Z " /><path fill="rgb(235,230,197)" stroke="rgb(235,230,197)" stroke-width="1" opacity="1" d="M 38.5 20 L 36.5 23 L 38.5 20 Z " /><path fill="rgb(235,230,197)" stroke="rgb(235,230,197)" stroke-width="1" opacity="1" d="M 28 21 L 30 21.5 L 28 22.5 L 28 21 Z " /><path fill="rgb(235,230,197)" stroke="rgb(235,230,197)" stroke-width="1" opacity="1" d="M 32.5 22 L 32.5 24 L 34.5 23 L 34 24.5 Q 34.8 26.8 32.5 26 L 31 23.5 L 32.5 22 Z " /><path fill="rgb(235,230,197)" stroke="rgb(235,230,197)" stroke-width="1" opacity="1" d="M 44.5 23 L 45 25.5 L 44 25.5 L 44.5 23 Z " /><path fill="rgb(235,230,197)" stroke="rgb(235,230,197)" stroke-width="1" opacity="1" d="M 20 24 L 24.5 25 L 26.5 24 Q 29.3 25.3 27 26.5 L 26.5 28 L 24.5 26 L 22 27.5 L 21.5 25 L 20 25.5 L 20 24 Z " /><path fill="rgb(235,230,197)" stroke="rgb(235,230,197)" stroke-width="1" opacity="1" d="M 35.5 31 L 36.5 33 L 35.5 31 Z " /><path fill="rgb(235,230,197)" stroke="rgb(235,230,197)" stroke-width="1" opacity="1" d="M 39.5 39 L 44 39.5 L 39.5 40 L 39.5 39 Z " /><path fill="rgb(200,174,103)" stroke="rgb(200,174,103)" stroke-width="1" opacity="1" d="M 24.5 9 L 27 9.5 L 24.5 10 L 24.5 9 Z " /><path fill="rgb(200,174,103)" stroke="rgb(200,174,103)" stroke-width="1" opacity="1" d="M 29.5 9 L 30 11.5 L 28 12.5 L 29.5 9 Z " /><path fill="rgb(200,174,103)" stroke="rgb(200,174,103)" stroke-width="1" opacity="1" d="M 15.5 10 L 14.5 12 L 15.5 10 Z " /><path fill="rgb(200,174,103)" stroke="rgb(200,174,103)" stroke-width="1" opacity="1" d="M 38.5 11 L 39.5 13 L 41 12.5 Q 39.5 15.5 38 12.5 L 38.5 11 Z " /><path fill="rgb(200,174,103)" stroke="rgb(200,174,103)" stroke-width="1" opacity="1" d="M 17.5 12 L 21 14.5 L 20.5 16 L 18.5 13 Q 16.3 12.3 17 14.5 L 18 16.5 L 16 15.5 L 17.5 12 Z " /><path fill="rgb(200,174,103)" stroke="rgb(200,174,103)" stroke-width="1" opacity="1" d="M 47.5 14 L 50 14.5 L 48.5 16 L 46 15.5 L 47.5 14 Z " /><path fill="rgb(200,174,103)" stroke="rgb(200,174,103)" stroke-width="1" opacity="1" d="M 30.5 15 L 29.5 17 L 30.5 15 Z " /><path fill="rgb(200,174,103)" stroke="rgb(200,174,103)" stroke-width="1" opacity="1" d="M 33.5 15 L 35.5 18 Q 33.3 18.8 34 16.5 L 33.5 15 Z " /><path fill="rgb(200,174,103)" stroke="rgb(200,174,103)" stroke-width="1" opacity="1" d="M 13.5 16 L 14 19 Q 17 17.8 16 21.5 L 14 22.5 L 15 20.5 Q 11.9 19.4 13.5 16 Z " /><path fill="rgb(200,174,103)" stroke="rgb(200,174,103)" stroke-width="1" opacity="1" d="M 39.5 16 Q 44.3 15.3 45 18.5 L 43 19 Q 44.1 16.3 41.5 17 L 39 17.5 L 37.5 20 L 38 18.5 L 39.5 16 Z " /><path fill="rgb(200,174,103)" stroke="rgb(200,174,103)" stroke-width="1" opacity="1" d="M 21.5 17 L 24 17.5 L 20 19.5 L 19.5 29 L 18 25.5 L 18 23.5 Q 18.3 18.8 21.5 17 Z " /><path fill="rgb(200,174,103)" stroke="rgb(200,174,103)" stroke-width="1" opacity="1" d="M 52.5 17 L 51 19.5 L 50.5 22 L 50 19.5 L 52.5 17 Z " /><path fill="rgb(200,174,103)" stroke="rgb(200,174,103)" stroke-width="1" opacity="1" d="M 11.5 20 L 10.5 22 L 11.5 20 Z " /><path fill="rgb(200,174,103)" stroke="rgb(200,174,103)" stroke-width="1" opacity="1" d="M 45.5 20 L 44.5 22 L 45.5 20 Z " /><path fill="rgb(200,174,103)" stroke="rgb(200,174,103)" stroke-width="1" opacity="1" d="M 54.5 22 Q 57.5 23.5 54.5 25 L 54.5 22 Z " /><path fill="rgb(200,174,103)" stroke="rgb(200,174,103)" stroke-width="1" opacity="1" d="M 38.5 23 L 37.5 25 L 38.5 23 Z " /><path fill="rgb(200,174,103)" stroke="rgb(200,174,103)" stroke-width="1" opacity="1" d="M 45.5 23 L 46 29.5 L 45 29.5 L 45.5 23 Z " /><path fill="rgb(200,174,103)" stroke="rgb(200,174,103)" stroke-width="1" opacity="1" d="M 50.5 23 L 52.5 26 L 50.5 23 Z " /><path fill="rgb(200,174,103)" stroke="rgb(200,174,103)" stroke-width="1" opacity="1" d="M 40.5 24 L 41.5 26 L 39 25.5 L 40.5 24 Z " /><path fill="rgb(200,174,103)" stroke="rgb(200,174,103)" stroke-width="1" opacity="1" d="M 36.5 26 L 38.5 29 L 43 27.5 L 41.5 30 L 39.5 29 Q 38.3 31.3 37 28.5 L 36.5 26 Z " /><path fill="rgb(200,174,103)" stroke="rgb(200,174,103)" stroke-width="1" opacity="1" d="M 28.5 27 L 26.5 30 L 25.5 28 L 28.5 27 Z " /><path fill="rgb(200,174,103)" stroke="rgb(200,174,103)" stroke-width="1" opacity="1" d="M 22.5 28 L 25.5 32 L 22.5 28 Z " /><path fill="rgb(200,174,103)" stroke="rgb(200,174,103)" stroke-width="1" opacity="1" d="M 29.5 29 L 32 29.5 L 32 31.5 Q 33.8 38.3 30.5 40 L 29 40.5 L 32 41.5 Q 30.8 44.3 29.5 42 L 26.5 43 L 28.5 39 L 26.5 40 L 26 38 L 30.5 39 L 31 32.5 L 29.5 29 Z " /><path fill="rgb(200,174,103)" stroke="rgb(200,174,103)" stroke-width="1" opacity="1" d="M 35.5 29 L 36 30.5 L 33 32.5 Q 31.9 29.2 34.5 30 L 35.5 29 Z " /><path fill="rgb(200,174,103)" stroke="rgb(200,174,103)" stroke-width="1" opacity="1" d="M 53.5 31 L 53 32.5 L 52.5 35 L 52 32.5 L 53.5 31 Z " /><path fill="rgb(200,174,103)" stroke="rgb(200,174,103)" stroke-width="1" opacity="1" d="M 11.5 33 L 13 37.5 L 11.5 37 L 9 36.5 L 11 36 L 11.5 33 Z " /><path fill="rgb(200,174,103)" stroke="rgb(200,174,103)" stroke-width="1" opacity="1" d="M 44.5 33 L 45 36.5 L 44 36.5 L 44.5 33 Z " /><path fill="rgb(200,174,103)" stroke="rgb(200,174,103)" stroke-width="1" opacity="1" d="M 35.5 35 L 36 38 L 38 38.5 L 35 39 L 35.5 35 Z " /><path fill="rgb(200,174,103)" stroke="rgb(200,174,103)" stroke-width="1" opacity="1" d="M 46 36 L 50 37.5 L 48.5 38 L 46 37.5 L 46 36 Z " /><path fill="rgb(200,174,103)" stroke="rgb(200,174,103)" stroke-width="1" opacity="1" d="M 15 38 L 22 38.5 L 15.5 40 L 15 38 Z " /><path fill="rgb(200,174,103)" stroke="rgb(200,174,103)" stroke-width="1" opacity="1" d="M 12.5 39 L 13.5 41 L 12.5 39 Z " /><path fill="rgb(200,174,103)" stroke="rgb(200,174,103)" stroke-width="1" opacity="1" d="M 33.5 39 L 34 41 L 36.5 40 L 36 41.5 Q 36.8 43.8 34.5 43 Q 32 42 33.5 39 Z " /><path fill="rgb(200,174,103)" stroke="rgb(200,174,103)" stroke-width="1" opacity="1" d="M 22.5 41 L 25 41.5 L 21.5 43 L 22.5 41 Z " /><path fill="rgb(200,174,103)" stroke="rgb(200,174,103)" stroke-width="1" opacity="1" d="M 39.5 41 L 43 41.5 Q 41.8 44.3 40.5 42 L 37.5 43 L 37.5 42 L 39.5 41 Z " /><path fill="rgb(200,174,103)" stroke="rgb(200,174,103)" stroke-width="1" opacity="1" d="M 52.5 41 Q 56.8 42.8 54 44.5 L 51.5 48 L 49 47.5 L 50 44 L 54 43.5 L 52.5 41 Z M 51 45 L 51 47 L 53 46 L 51 45 Z " /><path fill="rgb(200,174,103)" stroke="rgb(200,174,103)" stroke-width="1" opacity="1" d="M 10.5 42 L 12.5 42 L 15 44.5 L 16 46.5 L 14 47.5 L 14.5 46 L 12.5 47 L 10.5 42 Z " /><path fill="rgb(200,174,103)" stroke="rgb(200,174,103)" stroke-width="1" opacity="1" d="M 48.5 42 L 47.5 44 L 48.5 42 Z " /><path fill="rgb(200,174,103)" stroke="rgb(200,174,103)" stroke-width="1" opacity="1" d="M 20.5 44 L 27.5 44 L 36.5 46 L 38.5 46 L 45.5 44 L 46.5 46 L 44.5 46 L 42.5 47 L 20.5 47 L 18 46.5 L 20.5 44 Z M 21 45 L 21 46 L 24 46 L 21 45 Z " /><path fill="rgb(200,174,103)" stroke="rgb(200,174,103)" stroke-width="1" opacity="1" d="M 17.5 49 L 16.5 51 L 17.5 49 Z " /><path fill="rgb(200,174,103)" stroke="rgb(200,174,103)" stroke-width="1" opacity="1" d="M 19.5 50 L 18.5 52 L 19.5 50 Z " /><path fill="rgb(200,174,103)" stroke="rgb(200,174,103)" stroke-width="1" opacity="1" d="M 24.5 50 L 28.5 51 L 32.5 50 L 34.5 50 Q 36.8 49.3 36 51.5 L 37 51.5 Q 36.1 48.5 40.5 50 L 42 53 Q 45 52 44 55 L 41.5 54 L 40 54.5 L 41 52.5 Q 39.5 49.5 38 52.5 L 39 56.5 L 35 54.5 L 34.5 57 L 34 54.5 L 35 52.5 L 32.5 54 Q 29.9 54.7 31 52 L 28.5 52 L 24.5 54 L 25 52.5 L 24.5 50 Z " /><path fill="rgb(200,174,103)" stroke="rgb(200,174,103)" stroke-width="1" opacity="1" d="M 46.5 50 L 49 50.5 Q 46.9 53.8 46.5 50 Z " /><path fill="rgb(200,174,103)" stroke="rgb(200,174,103)" stroke-width="1" opacity="1" d="M 44.5 51 L 45.5 53 L 44.5 51 Z " /><path fill="rgb(252,249,219)" stroke="rgb(252,249,219)" stroke-width="1" opacity="1" d="M 22.5 18 L 26.5 20 Q 27.8 17.8 29 20.5 L 28 22.5 L 31 20.5 Q 31.8 18.3 29.5 19 L 29.5 18 L 32.5 19 L 34 18.5 L 35 23 L 39 20.5 L 40.5 18 Q 43.8 16.9 43 19.5 L 44 21.5 L 43 21.5 L 41.5 19 Q 39.3 18.3 40 20.5 Q 36.3 22.8 35.5 28 L 34 24.5 L 34.5 23 L 32.5 22 L 31 24.5 L 31.5 26 L 28.5 27 L 26.5 24 L 22.5 25 L 20 24 L 22.5 18 Z M 23 20 L 21 23 L 24 21 L 23 20 Z " /><path fill="rgb(252,249,219)" stroke="rgb(252,249,219)" stroke-width="1" opacity="1" d="M 25.5 30 L 26.5 32 L 25.5 30 Z " /><path fill="rgb(252,249,219)" stroke="rgb(252,249,219)" stroke-width="1" opacity="1" d="M 29.5 32 L 29 33.5 L 28.5 35 L 28 33.5 L 29.5 32 Z " /><path fill="rgb(252,249,219)" stroke="rgb(252,249,219)" stroke-width="1" opacity="1" d="M 35.5 32 L 38 37.5 L 37 37.5 L 35.5 32 Z " /><path fill="rgb(252,249,219)" stroke="rgb(252,249,219)" stroke-width="1" opacity="1" d="M 30.5 35 L 31 38.5 L 30 38.5 L 30.5 35 Z " /><path fill="rgb(252,249,219)" stroke="rgb(252,249,219)" stroke-width="1" opacity="1" d="M 16.5 40 L 19 40.5 Q 16.9 43.8 16.5 40 Z " /><path fill="rgb(252,249,219)" stroke="rgb(252,249,219)" stroke-width="1" opacity="1" d="M 44.5 40 L 45 43 L 43 42.5 L 44.5 40 Z " /><path fill="rgb(252,249,219)" stroke="rgb(252,249,219)" stroke-width="1" opacity="1" d="M 47.5 40 L 53 40.5 Q 51.7 43.3 50.5 41 Q 46.5 41.8 47.5 40 Z " /><path fill="rgb(238,227,163)" stroke="rgb(238,227,163)" stroke-width="1" opacity="1" d="M 12.5 10 L 11.5 12 L 12.5 10 Z " /><path fill="rgb(238,227,163)" stroke="rgb(238,227,163)" stroke-width="1" opacity="1" d="M 22 10 Q 24.7 8.9 24 11.5 L 24.5 13 L 22 12 L 22 10 Z " /><path fill="rgb(238,227,163)" stroke="rgb(238,227,163)" stroke-width="1" opacity="1" d="M 37.5 10 L 36.5 12 L 37.5 10 Z " /><path fill="rgb(238,227,163)" stroke="rgb(238,227,163)" stroke-width="1" opacity="1" d="M 31.5 11 L 35 13 L 36 16.5 L 33.5 15 L 31 14.5 L 31 12.5 L 31.5 11 Z " /><path fill="rgb(238,227,163)" stroke="rgb(238,227,163)" stroke-width="1" opacity="1" d="M 43.5 11 L 45 11.5 L 41.5 13 L 41.5 12 L 43.5 11 Z " /><path fill="rgb(238,227,163)" stroke="rgb(238,227,163)" stroke-width="1" opacity="1" d="M 9.5 13 L 8.5 15 L 9.5 13 Z " /><path fill="rgb(238,227,163)" stroke="rgb(238,227,163)" stroke-width="1" opacity="1" d="M 17.5 13 L 22 16.5 L 20.5 17 L 17 15 L 17.5 13 Z " /><path fill="rgb(238,227,163)" stroke="rgb(238,227,163)" stroke-width="1" opacity="1" d="M 46 13 L 48 13.5 L 46 14.5 L 46 13 Z " /><path fill="rgb(238,227,163)" stroke="rgb(238,227,163)" stroke-width="1" opacity="1" d="M 24.5 14 L 27.5 15 Q 30.1 14.2 29 17.5 L 28 17.5 Q 28.8 14.9 25.5 16 Q 24.3 18.3 23 15.5 L 24.5 14 Z " /><path fill="rgb(238,227,163)" stroke="rgb(238,227,163)" stroke-width="1" opacity="1" d="M 38.5 22 L 37.5 24 L 38.5 22 Z " /><path fill="rgb(238,227,163)" stroke="rgb(238,227,163)" stroke-width="1" opacity="1" d="M 21.5 25 L 22 27 L 20 26.5 L 21.5 25 Z " /><path fill="rgb(238,227,163)" stroke="rgb(238,227,163)" stroke-width="1" opacity="1" d="M 34.5 26 L 35 29.5 L 34 29.5 L 34.5 26 Z " /><path fill="rgb(238,227,163)" stroke="rgb(238,227,163)" stroke-width="1" opacity="1" d="M 43.5 26 Q 45.8 25.3 45 27.5 L 43.5 26 Z " /><path fill="rgb(238,227,163)" stroke="rgb(238,227,163)" stroke-width="1" opacity="1" d="M 25.5 29 L 26.5 31 L 25.5 29 Z " /><path fill="rgb(238,227,163)" stroke="rgb(238,227,163)" stroke-width="1" opacity="1" d="M 39.5 29 L 39 30.5 L 38.5 32 L 38 30.5 L 39.5 29 Z " /><path fill="rgb(238,227,163)" stroke="rgb(238,227,163)" stroke-width="1" opacity="1" d="M 43.5 29 L 44 32.5 L 43 32.5 L 42 30.5 L 43.5 29 Z " /><path fill="rgb(238,227,163)" stroke="rgb(238,227,163)" stroke-width="1" opacity="1" d="M 23.5 31 L 25 33.5 L 23 32.5 L 23.5 31 Z " /><path fill="rgb(238,227,163)" stroke="rgb(238,227,163)" stroke-width="1" opacity="1" d="M 34.5 32 L 36 34.5 L 34 33.5 L 34.5 32 Z " /><path fill="rgb(238,227,163)" stroke="rgb(238,227,163)" stroke-width="1" opacity="1" d="M 44.5 39 L 47 40.5 L 45 41.5 L 44.5 40 L 43.5 42 L 42.5 40 L 44.5 39 Z " /><path fill="rgb(238,227,163)" stroke="rgb(238,227,163)" stroke-width="1" opacity="1" d="M 14.5 40 L 17 41.5 L 14 42 L 14.5 40 Z " /><path fill="rgb(238,227,163)" stroke="rgb(238,227,163)" stroke-width="1" opacity="1" d="M 20.5 43 L 42 43.5 L 20.5 44 L 20.5 43 Z " /><path fill="rgb(238,227,163)" stroke="rgb(238,227,163)" stroke-width="1" opacity="1" d="M 46.5 44 L 46 45.5 L 44.5 48 L 44 46.5 L 46.5 44 Z " /><path fill="rgb(87,69,41)" stroke="rgb(87,69,41)" stroke-width="1" opacity="1" d="M 28.5 4 Q 32.9 2.5 32 5.5 L 30.5 5 Q 27.5 5.5 28.5 4 Z " /><path fill="rgb(87,69,41)" stroke="rgb(87,69,41)" stroke-width="1" opacity="1" d="M 33.5 4 L 36.5 5 L 39 5.5 L 34.5 6 L 33.5 4 Z " /><path fill="rgb(87,69,41)" stroke="rgb(87,69,41)" stroke-width="1" opacity="1" d="M 26.5 6 L 29 7.5 L 28.5 10 Q 24.9 8.9 26.5 6 Z " /><path fill="rgb(87,69,41)" stroke="rgb(87,69,41)" stroke-width="1" opacity="1" d="M 43.5 7 L 46 8.5 L 44 9.5 L 44.5 8 L 43.5 7 Z " /><path fill="rgb(87,69,41)" stroke="rgb(87,69,41)" stroke-width="1" opacity="1" d="M 47.5 9 L 54 14.5 L 49.5 11 L 47.5 12 L 47.5 9 Z " /><path fill="rgb(87,69,41)" stroke="rgb(87,69,41)" stroke-width="1" opacity="1" d="M 20.5 10 L 21.5 12 L 20.5 10 Z " /><path fill="rgb(87,69,41)" stroke="rgb(87,69,41)" stroke-width="1" opacity="1" d="M 26.5 10 L 27.5 12 L 26.5 10 Z " /><path fill="rgb(87,69,41)" stroke="rgb(87,69,41)" stroke-width="1" opacity="1" d="M 16.5 12 L 12.5 17 L 16.5 12 Z " /><path fill="rgb(87,69,41)" stroke="rgb(87,69,41)" stroke-width="1" opacity="1" d="M 9.5 16 L 13 18.5 L 10.5 20 L 9.5 16 Z " /><path fill="rgb(87,69,41)" stroke="rgb(87,69,41)" stroke-width="1" opacity="1" d="M 52.5 16 L 53.5 18 L 52.5 16 Z " /><path fill="rgb(87,69,41)" stroke="rgb(87,69,41)" stroke-width="1" opacity="1" d="M 54.5 19 L 55.5 21 Q 52.7 21.7 54.5 19 Z " /><path fill="rgb(87,69,41)" stroke="rgb(87,69,41)" stroke-width="1" opacity="1" d="M 8.5 20 L 10 22.5 L 8.5 25 L 6 21.5 L 7 21.5 Q 6.3 24.1 9 23 L 8.5 20 Z " /><path fill="rgb(87,69,41)" stroke="rgb(87,69,41)" stroke-width="1" opacity="1" d="M 51.5 22 L 53 24.5 L 51 23.5 L 51.5 22 Z " /><path fill="rgb(87,69,41)" stroke="rgb(87,69,41)" stroke-width="1" opacity="1" d="M 56.5 22 L 58 29 L 54.5 30 L 54.5 29 Q 56.8 29.8 56 27.5 L 57 25.5 L 56.5 22 Z " /><path fill="rgb(87,69,41)" stroke="rgb(87,69,41)" stroke-width="1" opacity="1" d="M 5.5 24 L 9 28.5 L 7 29.5 L 5.5 24 Z " /><path fill="rgb(87,69,41)" stroke="rgb(87,69,41)" stroke-width="1" opacity="1" d="M 59.5 26 L 60.5 28 Q 57.7 28.7 59.5 26 Z " /><path fill="rgb(87,69,41)" stroke="rgb(87,69,41)" stroke-width="1" opacity="1" d="M 5.5 28 L 6 38.5 L 8.5 44 L 9.5 41 L 11 44.5 L 9 44.5 Q 10.5 51 15.5 54 L 21 57.5 L 19.5 58 L 9 48.5 L 5 39.5 L 4 29.5 L 5.5 28 Z " /><path fill="rgb(87,69,41)" stroke="rgb(87,69,41)" stroke-width="1" opacity="1" d="M 36 29 L 38 29.5 L 36 30.5 L 36 29 Z " /><path fill="rgb(87,69,41)" stroke="rgb(87,69,41)" stroke-width="1" opacity="1" d="M 60.5 31 L 61 33.5 L 60 33.5 L 60.5 31 Z " /><path fill="rgb(87,69,41)" stroke="rgb(87,69,41)" stroke-width="1" opacity="1" d="M 57.5 34 Q 59.8 33.3 59 35.5 L 61 35.5 Q 59.2 47.7 51.5 54 L 51 52.5 L 57 45.5 L 58 40.5 L 57 40.5 Q 57.8 42.8 55.5 42 L 57 39.5 L 57.5 37 L 58.5 40 L 59 36 L 54 37 L 54.5 35 Q 56 37.5 57.5 34 Z " /><path fill="rgb(87,69,41)" stroke="rgb(87,69,41)" stroke-width="1" opacity="1" d="M 7.5 35 L 9 38.5 L 7 37.5 L 7.5 35 Z " /><path fill="rgb(87,69,41)" stroke="rgb(87,69,41)" stroke-width="1" opacity="1" d="M 12.5 40 L 11.5 42 L 12.5 40 Z " /><path fill="rgb(87,69,41)" stroke="rgb(87,69,41)" stroke-width="1" opacity="1" d="M 48.5 43 L 49 44.5 L 48 47.5 L 49.5 50 L 46.5 49 L 45 49.5 L 48 44.5 L 48.5 43 Z " /><path fill="rgb(87,69,41)" stroke="rgb(87,69,41)" stroke-width="1" opacity="1" d="M 55.5 43 L 56 44.5 L 54 45.5 L 55.5 43 Z " /><path fill="rgb(87,69,41)" stroke="rgb(87,69,41)" stroke-width="1" opacity="1" d="M 11.5 46 L 12.5 48 L 11.5 46 Z " /><path fill="rgb(87,69,41)" stroke="rgb(87,69,41)" stroke-width="1" opacity="1" d="M 17.5 47 L 21 49.5 L 19 50 Q 20.1 47.3 17.5 48 L 17.5 47 Z " /><path fill="rgb(87,69,41)" stroke="rgb(87,69,41)" stroke-width="1" opacity="1" d="M 53.5 47 L 51.5 50 L 53.5 47 Z " /><path fill="rgb(87,69,41)" stroke="rgb(87,69,41)" stroke-width="1" opacity="1" d="M 34.5 48 L 37 49.5 L 33.5 50 L 34.5 48 Z " /><path fill="rgb(87,69,41)" stroke="rgb(87,69,41)" stroke-width="1" opacity="1" d="M 38 48 L 44 48.5 L 42 49.5 L 42.5 51 L 38 50 L 38 48 Z " /><path fill="rgb(87,69,41)" stroke="rgb(87,69,41)" stroke-width="1" opacity="1" d="M 19.5 51 L 20.5 53 L 22 52.5 L 21 55 L 19 54.5 L 19 52.5 L 19.5 51 Z " /><path fill="rgb(87,69,41)" stroke="rgb(87,69,41)" stroke-width="1" opacity="1" d="M 24.5 51 L 23.5 53 L 24.5 51 Z " /><path fill="rgb(87,69,41)" stroke="rgb(87,69,41)" stroke-width="1" opacity="1" d="M 29.5 52 L 30.5 54 L 29.5 52 Z " /><path fill="rgb(87,69,41)" stroke="rgb(87,69,41)" stroke-width="1" opacity="1" d="M 43.5 52 L 44.5 54 L 43.5 52 Z " /><path fill="rgb(87,69,41)" stroke="rgb(87,69,41)" stroke-width="1" opacity="1" d="M 48.5 52 L 47.5 54 L 48.5 52 Z " /><path fill="rgb(87,69,41)" stroke="rgb(87,69,41)" stroke-width="1" opacity="1" d="M 23.5 55 Q 25.8 54.3 25 56.5 L 23.5 55 Z " /><path fill="rgb(87,69,41)" stroke="rgb(87,69,41)" stroke-width="1" opacity="1" d="M 35.5 55 L 39.5 57 L 41.5 56 L 41.5 57 L 37.5 58 L 35.5 57 L 33.5 58 L 33.5 57 Q 36 57.7 35.5 55 Z " /><path fill="rgb(87,69,41)" stroke="rgb(87,69,41)" stroke-width="1" opacity="1" d="M 47.5 55 L 49 55.5 L 39.5 61 L 34.5 61 L 34.5 60 Q 43.2 59.7 47.5 55 Z " /><path fill="rgb(87,69,41)" stroke="rgb(87,69,41)" stroke-width="1" opacity="1" d="M 30.5 56 L 31.5 58 Q 28.7 58.7 30.5 56 Z " /><path fill="rgb(87,69,41)" stroke="rgb(87,69,41)" stroke-width="1" opacity="1" d="M 22.5 58 L 33 60.5 L 28.5 61 L 22.5 59 L 22.5 58 Z " /><path fill="rgb(0,0,0)" stroke="rgb(0,0,0)" stroke-width="1" opacity="0" d="M 21.5 0 L 27 0.5 Q 12.7 3.2 6 13.5 Q 1.6 18.6 0.5 27 L 0 20.5 Q 4.7 10.2 13.5 4 L 21.5 0 Z " /><path fill="rgb(0,0,0)" stroke="rgb(0,0,0)" stroke-width="1" opacity="0" d="M 39.5 0 L 44.5 0 L 50.5 3 L 61 12.5 L 65.5 21 L 66.5 0 L 67 67 L 0 66.5 L 21 65.5 Q 10.5 61 4 52.5 L 0 45.5 L 0 39.5 L 1 39.5 L 3 47.5 L 12.5 59 Q 20.8 66.7 37.5 66 Q 52.6 62.6 60 51.5 Q 66.8 43.8 66 28.5 Q 63 14.5 53.5 7 L 45.5 2 L 39.5 1 L 39.5 0 Z M 66 44 L 60 55 Q 54 62 44 66 L 66 66 L 66 44 Z " /><path fill="rgb(91,109,80)" stroke="rgb(91,109,80)" stroke-width="1" opacity="1" d="M 32.5 1 L 42 3.5 L 36.5 4 Q 35 1.5 29.5 3 L 26.5 4 L 25.5 2 Q 31 3.5 32.5 1 Z " /><path fill="rgb(91,109,80)" stroke="rgb(91,109,80)" stroke-width="1" opacity="1" d="M 21.5 3 Q 24.8 5.8 31 5.5 L 25.5 7 L 25 5 Q 20.8 5 21.5 3 Z " /><path fill="rgb(91,109,80)" stroke="rgb(91,109,80)" stroke-width="1" opacity="1" d="M 19.5 4 L 23 6.5 Q 22.1 9.5 26.5 8 L 29 8.5 L 26.5 12 L 27 10.5 Q 27.9 7.5 23.5 9 L 22 6 L 20 6.5 L 22 9.5 L 20 8.5 Q 20.8 6.3 18.5 7 L 19 8.5 L 18.5 10 L 17 7.5 L 17.5 5 L 19.5 6 L 19.5 4 Z " /><path fill="rgb(91,109,80)" stroke="rgb(91,109,80)" stroke-width="1" opacity="1" d="M 32.5 4 L 33.5 6 Q 30.7 6.7 32.5 4 Z " /><path fill="rgb(91,109,80)" stroke="rgb(91,109,80)" stroke-width="1" opacity="1" d="M 44.5 4 L 47 5.5 L 45.5 6 L 44.5 4 Z " /><path fill="rgb(91,109,80)" stroke="rgb(91,109,80)" stroke-width="1" opacity="1" d="M 33.5 8 L 35 10.5 L 33 11 L 33.5 8 Z " /><path fill="rgb(91,109,80)" stroke="rgb(91,109,80)" stroke-width="1" opacity="1" d="M 39.5 8 L 43 9.5 L 40.5 10 L 39.5 8 Z " /><path fill="rgb(91,109,80)" stroke="rgb(91,109,80)" stroke-width="1" opacity="1" d="M 14.5 9 L 10 14.5 L 10.5 16 Q 8.8 13.2 7 17.5 L 7.5 20 L 10 18.5 L 6.5 24 L 7 22.5 L 6.5 20 Q 2.1 25.1 2.5 35 L 2 26.5 L 6.5 16 L 8 15.5 Q 5.8 14.3 8.5 13 L 9.5 14 L 14.5 9 Z " /><path fill="rgb(91,109,80)" stroke="rgb(91,109,80)" stroke-width="1" opacity="1" d="M 53.5 10 L 56 13.5 L 55 13.5 Q 55.7 10.9 53 12 L 53.5 10 Z " /><path fill="rgb(91,109,80)" stroke="rgb(91,109,80)" stroke-width="1" opacity="1" d="M 19.5 11 L 20.5 13 L 19.5 11 Z " /><path fill="rgb(91,109,80)" stroke="rgb(91,109,80)" stroke-width="1" opacity="1" d="M 50.5 14 L 51.5 16 Q 48.7 16.7 50.5 14 Z " /><path fill="rgb(91,109,80)" stroke="rgb(91,109,80)" stroke-width="1" opacity="1" d="M 53.5 18 L 54 19.5 L 52 21.5 L 53.5 24 Q 49.2 22.2 52 20.5 L 53.5 18 Z " /><path fill="rgb(91,109,80)" stroke="rgb(91,109,80)" stroke-width="1" opacity="1" d="M 14.5 20 L 13.5 22 L 14.5 20 Z " /><path fill="rgb(91,109,80)" stroke="rgb(91,109,80)" stroke-width="1" opacity="1" d="M 9.5 23 L 11.5 26 L 9 25 L 9.5 23 Z " /><path fill="rgb(91,109,80)" stroke="rgb(91,109,80)" stroke-width="1" opacity="1" d="M 38.5 24 L 39 26 L 37 25.5 L 38.5 24 Z " /><path fill="rgb(91,109,80)" stroke="rgb(91,109,80)" stroke-width="1" opacity="1" d="M 6.5 25 L 6 26.5 L 5.5 28 L 5 26.5 L 6.5 25 Z " /><path fill="rgb(91,109,80)" stroke="rgb(91,109,80)" stroke-width="1" opacity="1" d="M 8.5 29 L 8 30.5 L 7.5 32 L 7 30.5 L 8.5 29 Z " /><path fill="rgb(91,109,80)" stroke="rgb(91,109,80)" stroke-width="1" opacity="1" d="M 54.5 30 L 55 32 L 58 33.5 Q 56.2 37.8 54.5 35 Q 52.3 35.8 53 33.5 L 54.5 30 Z M 55 33 Q 55 37 57 34 L 55 33 Z " /><path fill="rgb(91,109,80)" stroke="rgb(91,109,80)" stroke-width="1" opacity="1" d="M 10.5 33 L 11 34.5 L 8 36 L 8.5 34 L 10 34.5 L 10.5 33 Z " /><path fill="rgb(91,109,80)" stroke="rgb(91,109,80)" stroke-width="1" opacity="1" d="M 62.5 33 L 63 38.5 Q 60 50.5 51.5 57 L 43.5 61 L 43.5 60 Q 52.3 56.8 57 49.5 Q 61.8 43.3 62.5 33 Z " /><path fill="rgb(91,109,80)" stroke="rgb(91,109,80)" stroke-width="1" opacity="1" d="M 54.5 37 L 54.5 39 L 56.5 38 L 57 39.5 Q 55 43 53 38.5 L 54.5 37 Z " /><path fill="rgb(91,109,80)" stroke="rgb(91,109,80)" stroke-width="1" opacity="1" d="M 10.5 39 L 10.5 42 Q 7.5 40.5 10.5 39 Z " /><path fill="rgb(91,109,80)" stroke="rgb(91,109,80)" stroke-width="1" opacity="1" d="M 23.5 48 L 34 48.5 L 31.5 50 Q 29.7 47.2 23.5 49 L 23.5 48 Z " /><path fill="rgb(91,109,80)" stroke="rgb(91,109,80)" stroke-width="1" opacity="1" d="M 36.5 48 Q 38.8 47.3 38 49.5 L 36.5 48 Z " /><path fill="rgb(91,109,80)" stroke="rgb(91,109,80)" stroke-width="1" opacity="1" d="M 18.5 50 L 18.5 53 Q 15.5 51.5 18.5 50 Z " /><path fill="rgb(91,109,80)" stroke="rgb(91,109,80)" stroke-width="1" opacity="1" d="M 43.5 50 L 46 51.5 L 45.5 53 L 47 53.5 L 45.5 54 L 44.5 51 L 43.5 50 Z " /><path fill="rgb(91,109,80)" stroke="rgb(91,109,80)" stroke-width="1" opacity="1" d="M 22.5 53 L 23.5 55 L 21 54.5 L 22.5 53 Z " /><path fill="rgb(91,109,80)" stroke="rgb(91,109,80)" stroke-width="1" opacity="1" d="M 50.5 53 L 49.5 55 L 50.5 53 Z " /><path fill="rgb(91,109,80)" stroke="rgb(91,109,80)" stroke-width="1" opacity="1" d="M 38.5 61 L 42 61.5 L 36.5 63 L 36.5 62 L 38.5 61 Z " /><path fill="rgb(0,0,0)" stroke="rgb(0,0,0)" stroke-width="1" opacity="0.00392156862745098" d="M 0 0 L 21 0.5 Q 9.8 4.3 4 13.5 L 0.5 20 L 0 0 Z " /><path fill="rgb(0,0,0)" stroke="rgb(0,0,0)" stroke-width="1" opacity="0.00392156862745098" d="M 45.5 0 L 66 0 L 66 20.5 L 65 20.5 Q 61.5 10.5 53.5 5 L 45.5 1 L 45.5 0 Z " /><path fill="rgb(0,0,0)" stroke="rgb(0,0,0)" stroke-width="1" opacity="0.00392156862745098" d="M 65.5 44 L 66 66 L 44 65.5 Q 54 62 60 54.5 L 65.5 44 Z " /><path fill="rgb(0,0,0)" stroke="rgb(0,0,0)" stroke-width="1" opacity="0.00392156862745098" d="M 0.5 46 Q 4.1 54.9 11.5 60 L 21 65.5 L 0 66 L 0.5 46 Z " /><path fill="rgb(19,24,17)" stroke="rgb(19,24,17)" stroke-width="1" opacity="0.9607843137254902" d="M 29.5 6 L 34 6.5 L 29.5 7 L 29.5 6 Z " /><path fill="rgb(19,24,17)" stroke="rgb(19,24,17)" stroke-width="1" opacity="0.9607843137254902" d="M 50.5 6 L 51.5 8 L 50.5 6 Z " /><path fill="rgb(19,24,17)" stroke="rgb(19,24,17)" stroke-width="1" opacity="0.9607843137254902" d="M 13.5 7 L 12.5 9 L 13.5 7 Z " /><path fill="rgb(19,24,17)" stroke="rgb(19,24,17)" stroke-width="1" opacity="0.9607843137254902" d="M 46.5 7 L 55 13.5 L 58 18.5 L 57 18.5 L 54.5 15 L 53 15.5 L 54 13.5 L 51.5 12 L 52 13.5 L 51.5 15 L 50 12.5 L 51 11.5 L 47.5 8 L 46.5 7 Z " /><path fill="rgb(19,24,17)" stroke="rgb(19,24,17)" stroke-width="1" opacity="0.9607843137254902" d="M 54.5 9 L 55.5 11 L 54.5 9 Z " /><path fill="rgb(19,24,17)" stroke="rgb(19,24,17)" stroke-width="1" opacity="0.9607843137254902" d="M 47.5 10 L 48.5 12 L 47.5 10 Z " /><path fill="rgb(19,24,17)" stroke="rgb(19,24,17)" stroke-width="1" opacity="0.9607843137254902" d="M 20.5 11 L 21.5 13 L 20.5 11 Z " /><path fill="rgb(19,24,17)" stroke="rgb(19,24,17)" stroke-width="1" opacity="0.9607843137254902" d="M 8.5 12 L 7.5 14 L 8.5 12 Z " /><path fill="rgb(19,24,17)" stroke="rgb(19,24,17)" stroke-width="1" opacity="0.9607843137254902" d="M 10.5 14 L 9.5 16 L 10.5 14 Z " /><path fill="rgb(19,24,17)" stroke="rgb(19,24,17)" stroke-width="1" opacity="0.9607843137254902" d="M 58.5 14 L 59.5 16 L 58.5 14 Z " /><path fill="rgb(19,24,17)" stroke="rgb(19,24,17)" stroke-width="1" opacity="0.9607843137254902" d="M 64.5 29 L 65 36.5 L 64 36.5 L 64.5 29 Z " /><path fill="rgb(19,24,17)" stroke="rgb(19,24,17)" stroke-width="1" opacity="0.9607843137254902" d="M 1.5 36 L 2 38.5 L 1 38.5 L 1.5 36 Z " /><path fill="rgb(19,24,17)" stroke="rgb(19,24,17)" stroke-width="1" opacity="0.9607843137254902" d="M 9.5 44 L 11 46.5 L 9 45.5 L 9.5 44 Z " /><path fill="rgb(19,24,17)" stroke="rgb(19,24,17)" stroke-width="1" opacity="0.9607843137254902" d="M 61.5 45 L 62 46.5 L 59.5 50 L 60 48.5 L 61.5 45 Z " /><path fill="rgb(19,24,17)" stroke="rgb(19,24,17)" stroke-width="1" opacity="0.9607843137254902" d="M 11.5 48 L 14 49.5 L 15.5 52 L 27.5 58 L 29.5 55 L 30 56.5 L 29.5 59 Q 15.3 57.9 11.5 48 Z " /><path fill="rgb(19,24,17)" stroke="rgb(19,24,17)" stroke-width="1" opacity="0.9607843137254902" d="M 9.5 49 L 13 53.5 L 10 51.5 L 9.5 49 Z " /><path fill="rgb(19,24,17)" stroke="rgb(19,24,17)" stroke-width="1" opacity="0.9607843137254902" d="M 6.5 50 L 7.5 52 L 6.5 50 Z " /><path fill="rgb(19,24,17)" stroke="rgb(19,24,17)" stroke-width="1" opacity="0.9607843137254902" d="M 52.5 50 L 49.5 54 L 46.5 56 L 48.5 53 L 52.5 50 Z " /><path fill="rgb(19,24,17)" stroke="rgb(19,24,17)" stroke-width="1" opacity="0.9607843137254902" d="M 58.5 51 L 51.5 59 L 45.5 62 L 45.5 61 Q 53.9 57.9 58.5 51 Z " /><path fill="rgb(19,24,17)" stroke="rgb(19,24,17)" stroke-width="1" opacity="0.9607843137254902" d="M 9.5 54 Q 14.8 59.8 23 62.5 L 21.5 63 Q 13.2 59.9 9.5 54 Z " /><path fill="rgb(19,24,17)" stroke="rgb(19,24,17)" stroke-width="1" opacity="0.9607843137254902" d="M 16.5 56 L 17.5 58 L 16.5 56 Z " /><path fill="rgb(19,24,17)" stroke="rgb(19,24,17)" stroke-width="1" opacity="0.9607843137254902" d="M 43.5 56 L 45 56.5 L 41.5 58 L 41.5 57 L 43.5 56 Z " /><path fill="rgb(19,24,17)" stroke="rgb(19,24,17)" stroke-width="1" opacity="0.9607843137254902" d="M 34.5 58 L 40 58.5 L 32.5 60 L 32.5 59 L 34.5 58 Z " /><path fill="rgb(19,24,17)" stroke="rgb(19,24,17)" stroke-width="1" opacity="0.9607843137254902" d="M 24.5 63 L 28 63.5 L 24.5 64 L 24.5 63 Z " /><path fill="rgb(19,24,17)" stroke="rgb(19,24,17)" stroke-width="1" opacity="0.9607843137254902" d="M 29.5 64 L 37 64.5 L 29.5 65 L 29.5 64 Z " /><path fill="rgb(157,131,78)" stroke="rgb(157,131,78)" stroke-width="1" opacity="1" d="M 29.5 7 L 32 7.5 L 29.5 8 L 29.5 7 Z " /><path fill="rgb(157,131,78)" stroke="rgb(157,131,78)" stroke-width="1" opacity="1" d="M 36.5 7 L 41.5 11 L 44 9.5 L 39.5 13 L 39.5 11 L 38 10.5 Q 40.3 9.3 37.5 8 L 34.5 10 L 36.5 7 Z " /><path fill="rgb(157,131,78)" stroke="rgb(157,131,78)" stroke-width="1" opacity="1" d="M 35.5 11 L 34.5 13 L 35.5 11 Z " /><path fill="rgb(157,131,78)" stroke="rgb(157,131,78)" stroke-width="1" opacity="1" d="M 48.5 13 L 49 14.5 L 46.5 18 L 46 16.5 L 48.5 13 Z " /><path fill="rgb(157,131,78)" stroke="rgb(157,131,78)" stroke-width="1" opacity="1" d="M 11 14 L 13 14.5 L 9 17.5 L 11 14 Z " /><path fill="rgb(157,131,78)" stroke="rgb(157,131,78)" stroke-width="1" opacity="1" d="M 15.5 14 L 18 17.5 L 16.5 18 Q 12 16 15.5 14 Z " /><path fill="rgb(157,131,78)" stroke="rgb(157,131,78)" stroke-width="1" opacity="1" d="M 31.5 15 L 34 16.5 L 30.5 17 L 31.5 15 Z " /><path fill="rgb(157,131,78)" stroke="rgb(157,131,78)" stroke-width="1" opacity="1" d="M 50 16 Q 52.7 14.9 52 17.5 L 52 19.5 L 51.5 21 L 51 19.5 L 51.5 18 Q 48.9 17.3 50 20 L 48 20 L 50 16 Z " /><path fill="rgb(157,131,78)" stroke="rgb(157,131,78)" stroke-width="1" opacity="1" d="M 35.5 18 L 36 20 L 38.5 19 L 37.5 21 L 35 19.5 L 35.5 18 Z " /><path fill="rgb(157,131,78)" stroke="rgb(157,131,78)" stroke-width="1" opacity="1" d="M 11.5 19 L 14 19.5 L 13 21.5 L 15 21.5 L 13 25 L 10.5 26 L 10 23.5 L 10.5 22 L 12.5 23 L 12 21.5 L 11.5 20 L 10 20.5 L 11.5 19 Z " /><path fill="rgb(157,131,78)" stroke="rgb(157,131,78)" stroke-width="1" opacity="1" d="M 44.5 19 L 46 22.5 L 45 22.5 L 44.5 19 Z " /><path fill="rgb(157,131,78)" stroke="rgb(157,131,78)" stroke-width="1" opacity="1" d="M 40 20 L 42 20.5 L 40 24.5 L 41 26.5 L 38 28.5 L 40 25.5 L 39 22.5 L 40 20 Z " /><path fill="rgb(157,131,78)" stroke="rgb(157,131,78)" stroke-width="1" opacity="1" d="M 54.5 21 L 56 22.5 L 55.5 25 L 53 24.5 L 54.5 21 Z " /><path fill="rgb(157,131,78)" stroke="rgb(157,131,78)" stroke-width="1" opacity="1" d="M 52.5 26 L 53.5 28 L 55 27.5 L 53.5 31 L 52.5 26 Z " /><path fill="rgb(157,131,78)" stroke="rgb(157,131,78)" stroke-width="1" opacity="1" d="M 10.5 27 L 12 29.5 L 8.5 31 L 9 29.5 L 10.5 27 Z " /><path fill="rgb(157,131,78)" stroke="rgb(157,131,78)" stroke-width="1" opacity="1" d="M 27.5 27 L 28.5 29 L 27.5 27 Z " /><path fill="rgb(157,131,78)" stroke="rgb(157,131,78)" stroke-width="1" opacity="1" d="M 37.5 30 L 36.5 32 L 37.5 30 Z " /><path fill="rgb(157,131,78)" stroke="rgb(157,131,78)" stroke-width="1" opacity="1" d="M 40.5 30 L 40 31.5 L 39.5 33 L 39 31.5 L 40.5 30 Z " /><path fill="rgb(157,131,78)" stroke="rgb(157,131,78)" stroke-width="1" opacity="1" d="M 55 30 L 58 30.5 L 57.5 33 L 55 32 L 55 30 Z " /><path fill="rgb(157,131,78)" stroke="rgb(157,131,78)" stroke-width="1" opacity="1" d="M 26.5 32 L 28 34.5 L 27 34.5 L 26.5 32 Z " /><path fill="rgb(157,131,78)" stroke="rgb(157,131,78)" stroke-width="1" opacity="1" d="M 32.5 33 Q 35.3 32.4 34 38.5 L 34.5 40 L 32 38.5 L 33 34.5 L 32.5 33 Z " /><path fill="rgb(157,131,78)" stroke="rgb(157,131,78)" stroke-width="1" opacity="1" d="M 9.5 34 L 10.5 36 L 9.5 34 Z " /><path fill="rgb(157,131,78)" stroke="rgb(157,131,78)" stroke-width="1" opacity="1" d="M 53.5 35 L 54 38 L 52 38.5 L 52.5 40 L 50 38.5 L 53 36.5 L 53.5 35 Z " /><path fill="rgb(157,131,78)" stroke="rgb(157,131,78)" stroke-width="1" opacity="1" d="M 8.5 36 L 9.5 38 L 11.5 37 L 15 39.5 L 13.5 40 L 12 39.5 L 13.5 42 Q 16.8 40.9 16 43.5 L 18 45.5 L 14.5 49 L 15.5 44 L 11 40.5 L 12 38.5 L 10.5 38 Q 9.3 40.3 8 37.5 L 8.5 36 Z " /><path fill="rgb(157,131,78)" stroke="rgb(157,131,78)" stroke-width="1" opacity="1" d="M 25 36 L 27 36.5 L 25 37.5 L 25 36 Z " /><path fill="rgb(157,131,78)" stroke="rgb(157,131,78)" stroke-width="1" opacity="1" d="M 56.5 36 L 57 37.5 L 55 38.5 L 56.5 36 Z " /><path fill="rgb(157,131,78)" stroke="rgb(157,131,78)" stroke-width="1" opacity="1" d="M 53.5 41 L 56 42.5 L 54.5 42 L 53.5 41 Z " /><path fill="rgb(157,131,78)" stroke="rgb(157,131,78)" stroke-width="1" opacity="1" d="M 47.5 42 L 48.5 45 L 50 44.5 L 49.5 48 L 52.5 47 L 51.5 49 L 48 47.5 L 49 46.5 L 46 43.5 L 47.5 42 Z " /><path fill="rgb(157,131,78)" stroke="rgb(157,131,78)" stroke-width="1" opacity="1" d="M 49.5 42 L 53 43.5 L 51.5 43 Q 48.5 43.5 49.5 42 Z " /><path fill="rgb(157,131,78)" stroke="rgb(157,131,78)" stroke-width="1" opacity="1" d="M 19.5 44 L 24 45.5 L 20.5 46 L 19.5 44 Z " /><path fill="rgb(157,131,78)" stroke="rgb(157,131,78)" stroke-width="1" opacity="1" d="M 33.5 45 L 37 45.5 L 33.5 46 L 33.5 45 Z " /><path fill="rgb(157,131,78)" stroke="rgb(157,131,78)" stroke-width="1" opacity="1" d="M 38.5 45 L 42 45.5 L 38.5 46 L 38.5 45 Z " /><path fill="rgb(157,131,78)" stroke="rgb(157,131,78)" stroke-width="1" opacity="1" d="M 17.5 48 Q 19.8 47.3 19 49.5 Q 17 54 15 50.5 L 17.5 48 Z " /><path fill="rgb(157,131,78)" stroke="rgb(157,131,78)" stroke-width="1" opacity="1" d="M 22 49 L 31 49.5 L 24 50 L 21.5 54 L 19 53.5 L 20.5 50 L 22 50.5 L 22 49 Z " /><path fill="rgb(157,131,78)" stroke="rgb(157,131,78)" stroke-width="1" opacity="1" d="M 49.5 50 L 47.5 53 Q 45.3 53.8 46 51.5 Q 47.8 53.1 49.5 50 Z " /><path fill="rgb(157,131,78)" stroke="rgb(157,131,78)" stroke-width="1" opacity="1" d="M 39.5 51 Q 42.3 52.3 40 53.5 L 40.5 55 Q 41.8 52.7 43 55.5 L 39.5 57 L 39.5 55 Q 36.9 55.8 38 52.5 L 39.5 51 Z " /><path fill="rgb(157,131,78)" stroke="rgb(157,131,78)" stroke-width="1" opacity="1" d="M 34.5 52 L 38 56.5 L 34 54.5 L 32.5 58 L 31 54 L 34.5 52 Z " /><path fill="rgb(157,131,78)" stroke="rgb(157,131,78)" stroke-width="1" opacity="1" d="M 26.5 53 L 29 53.5 L 28 55.5 L 28.5 57 L 26.5 56 L 25 56.5 L 24 54.5 L 26.5 53 Z " /></svg>