<?xml version="1.0" standalone="no"?>
<!DOCTYPE svg PUBLIC "-//W3C//DTD SVG 20010904//EN"
 "http://www.w3.org/TR/2001/REC-SVG-20010904/DTD/svg10.dtd">
<svg version="1.0" xmlns="http://www.w3.org/2000/svg"
 width="67.000000pt" height="67.000000pt" viewBox="0 0 67.000000 67.000000"
 preserveAspectRatio="xMidYMid meet">
<g transform="translate(0.000000,67.000000) scale(0.100000,-0.100000)"
fill="#000000" stroke="none">
<path d="M322 428 c5 -110 23 -113 27 -3 2 73 0 85 -14 85 -14 0 -15 -12 -13
-82z"/>
<path d="M365 423 c0 -43 3 -83 8 -90 4 -6 1 -14 -5 -16 -10 -4 -9 -8 2 -16
21 -15 35 -14 22 2 -7 8 -7 18 -2 27 13 20 12 30 -1 30 -5 0 -7 -4 -4 -10 3
-5 2 -10 -4 -10 -5 0 -9 9 -8 20 1 14 6 19 16 15 11 -4 10 0 -4 15 -12 13 -14
20 -5 20 10 0 9 4 -1 18 -13 15 -12 16 3 3 10 -7 16 -17 13 -21 -3 -5 0 -12 6
-16 7 -4 9 -3 6 2 -3 6 -1 16 5 24 8 13 9 12 5 -2 -7 -19 18 -45 28 -29 5 9
-62 109 -75 110 -3 1 -5 -34 -5 -76z m30 27 c10 -11 16 -20 13 -20 -3 0 -13 9
-23 20 -10 11 -16 20 -13 20 3 0 13 -9 23 -20z"/>
<path d="M115 411 c-3 -5 -2 -12 3 -15 5 -3 9 1 9 9 0 17 -3 19 -12 6z"/>
<path d="M414 370 c0 -11 6 -16 16 -13 11 4 11 1 -2 -10 -19 -15 -24 -47 -9
-47 6 0 13 5 17 12 5 7 3 8 -6 3 -8 -5 -11 -3 -8 6 3 8 11 13 17 12 6 -2 11 4
11 12 0 8 0 18 0 23 0 4 -3 7 -7 7 -5 0 -13 3 -18 7 -6 4 -11 -2 -11 -12z"/>
<path d="M563 373 c-7 -2 -13 -9 -13 -14 0 -6 6 -7 13 -3 8 5 8 2 -2 -9 -7 -9
-9 -17 -4 -17 15 0 12 -28 -4 -34 -7 -3 -13 -13 -13 -23 0 -15 2 -15 16 3 13
16 15 16 10 2 -3 -10 -1 -18 4 -18 6 0 10 27 10 60 0 33 -1 60 -2 59 -2 0 -9
-3 -15 -6z"/>
<path d="M96 363 c1 -3 -1 -16 -6 -29 -6 -14 -6 -24 0 -24 13 0 24 41 13 50
-6 4 -9 5 -7 3z"/>
<path d="M125 355 c-16 -50 -16 -51 -1 -32 15 20 30 23 23 4 -3 -8 4 -14 20
-15 14 -1 21 2 18 8 -3 6 -1 10 4 10 6 0 11 -4 11 -8 0 -15 56 -40 80 -36 14
3 34 -1 44 -9 17 -13 13 -14 -37 -11 -32 1 -57 -1 -57 -5 0 -4 24 -8 53 -9 28
-1 63 -4 77 -6 14 -3 48 -9 75 -12 l50 -6 -45 23 c-25 12 -53 26 -62 31 -11 5
-18 5 -18 -1 0 -5 12 -14 28 -20 l27 -11 -30 5 c-16 4 -36 14 -43 23 -7 9 -33
18 -60 22 -46 5 -47 6 -44 38 2 18 -1 32 -7 32 -6 0 -10 -8 -8 -17 1 -10 -2
-20 -8 -23 -5 -3 -11 5 -13 18 -2 14 -10 22 -24 22 -11 0 -18 -5 -15 -12 2 -7
10 -12 17 -10 10 2 10 -1 -1 -14 -13 -16 -15 -15 -23 9 -11 30 -24 35 -31 12z"/>
<path d="M268 357 c12 -14 4 -31 -18 -39 -8 -3 3 -5 25 -5 22 0 33 2 25 6 -15
6 -24 41 -11 41 4 0 14 -11 21 -25 7 -14 20 -25 27 -25 26 0 -30 59 -56 59
-18 1 -21 -2 -13 -12z"/>
<path d="M488 345 c4 -21 1 -24 -14 -18 -18 7 -18 6 -1 -11 13 -13 15 -22 8
-29 -15 -15 -14 -24 3 -24 8 0 12 6 9 14 -4 9 0 11 11 7 9 -3 13 -10 10 -15
-12 -21 5 -7 19 15 15 22 15 24 -3 29 -11 3 -23 0 -27 -5 -4 -7 -1 -8 7 -3 9
6 11 4 5 -4 -14 -23 -25 4 -16 37 7 24 6 32 -3 32 -9 0 -12 -9 -8 -25z"/>
<path d="M516 353 c-6 -16 9 -33 29 -33 6 0 4 4 -4 9 -7 5 -9 10 -3 12 6 3 5
9 -3 16 -10 10 -15 9 -19 -4z"/>
<path d="M431 296 c-20 -11 -21 -14 -6 -19 27 -11 35 -8 28 10 -4 11 -3 14 5
9 7 -4 12 -2 12 3 0 14 -10 13 -39 -3z"/>
<path d="M536 207 c3 -10 9 -15 12 -12 3 3 0 11 -7 18 -10 9 -11 8 -5 -6z"/>
<path d="M357 199 c7 -7 15 -10 18 -7 3 3 -2 9 -12 12 -14 6 -15 5 -6 -5z"/>
</g>
</svg>
