<svg width="207" height="143" version="1.1" xmlns="http://www.w3.org/2000/svg" desc="Created with imagetracer.js version 1.2.6" ><path fill="rgb(0,0,0)" stroke="rgb(0,0,0)" stroke-width="1" opacity="0.28627450980392155" d="M 97.5 0 L 113.5 1 L 130.5 6 Q 145.7 13.3 156 25.5 Q 164.5 35.5 169 49.5 L 172 62.5 L 172 77.5 Q 166.5 109 145.5 125 Q 134.6 133.6 119.5 138 L 109.5 140 L 94.5 140 Q 63.8 134.7 48 114.5 Q 38.3 103.2 34 86.5 L 32 75.5 L 32 65.5 L 37 44.5 Q 43.3 29.3 54.5 19 Q 63.8 10.3 76.5 5 L 97.5 0 Z M 94 2 Q 74 5 62 15 Q 49 24 42 38 L 36 53 Q 37 59 34 62 L 34 79 L 38 94 L 45 108 L 53 118 L 65 127 L 76 133 L 94 138 L 111 138 L 124 135 Q 138 130 148 121 Q 165 106 170 80 L 170 62 L 165 44 Q 160 31 151 23 Q 142 13 129 7 L 111 2 L 94 2 Z " /><path fill="rgb(0,0,0)" stroke="rgb(0,0,0)" stroke-width="1" opacity="0" d="M 0 0 L 32 0 L 32 49.5 L 33 49.5 Q 36.5 34 46.5 25 L 45 27.5 Q 37 38 33 52.5 L 32 57.5 L 32 83.5 L 38 101.5 L 47 114.5 L 45 115 L 36 100.5 L 32.5 90 L 32 141 L 86 140.5 Q 60.6 134.4 47 116.5 L 49 116 L 56.5 125 Q 67.7 134.3 83.5 139 Q 89.6 138.4 92.5 141 L 111.5 141 L 129.5 136 L 137.5 132 Q 149.7 125.2 158 114.5 Q 166.6 103.6 171 88.5 Q 170.4 82.4 173 79.5 L 173 60.5 L 170 48.5 L 164 34.5 L 149.5 17 Q 147.3 17.8 148 15.5 L 129.5 4 L 116 0.5 L 121.5 0 L 137.5 7 L 154 19 L 167 37.5 L 172.5 54 L 173 0 L 206.5 0 L 207 0.5 L 207 143 L 0 143 L 0 0 Z M 173 87 Q 167 108 154 121 Q 151 120 152 123 L 135 135 L 118 141 L 173 141 L 173 87 Z " /><path fill="rgb(0,0,0)" stroke="rgb(0,0,0)" stroke-width="1" opacity="0" d="M 83.5 0 L 88 0.5 L 72.5 5 L 57.5 15 L 60.5 11 Q 69.7 3.2 83.5 0 Z " /><path fill="rgb(0,0,0)" stroke="rgb(0,0,0)" stroke-width="1" opacity="0" d="M 54.5 16 L 56 16.5 L 51 20.5 L 48.5 24 L 48 22.5 L 54.5 16 Z " /><path fill="rgb(0,0,0)" stroke="rgb(0,0,0)" stroke-width="1" opacity="0.00392156862745098" d="M 32 0 L 83 0.5 L 72 4.5 L 74.5 5 L 88.5 0 L 96.5 0 L 96.5 1 L 90.5 1 L 76.5 5 Q 61.3 11.3 51 22.5 Q 42.3 31.8 37 44.5 L 33 58.5 L 32.5 65 L 32 57.5 Q 35.1 41.6 43 30.5 L 40 32.5 L 32.5 50 L 32 0 Z M 71 5 L 67 7 L 66 9 L 72 6 L 71 5 Z M 64 9 L 63 11 L 65 10 L 64 9 Z M 61 11 L 59 14 L 62 12 L 61 11 Z M 55 16 L 53 19 L 56 17 L 55 16 Z M 51 20 L 48 24 L 51 22 L 51 20 Z M 45 27 L 43 30 L 45 29 L 45 27 Z " /><path fill="rgb(0,0,0)" stroke="rgb(0,0,0)" stroke-width="1" opacity="0.00392156862745098" d="M 108.5 0 L 115.5 0 L 129.5 4 L 129.5 3 L 122 0.5 L 173 0 L 172.5 54 L 169 41.5 L 165.5 36 L 165 37.5 L 170 48.5 L 173 60.5 L 173 79.5 Q 170.4 82.4 171 88.5 L 165 103.5 L 167 102.5 L 172.5 87 L 173 141 L 118 140.5 L 130.5 137 L 136 133.5 L 134.5 133 L 129.5 136 L 111.5 141 L 92.5 141 L 70.5 134 L 71.5 136 L 86 140.5 L 32 141 L 32.5 90 L 37.5 102 L 38 99.5 L 33 87.5 L 32 76.5 L 33 76.5 L 34 86.5 L 39 100.5 Q 46 114.5 57.5 124 Q 67.5 132.5 81.5 137 L 94.5 140 L 109.5 140 Q 141 134.5 157 113.5 Q 165.6 102.6 170 87.5 L 172 77.5 L 172 62.5 Q 166.9 32.6 147.5 17 L 130.5 6 L 118.5 2 L 108.5 1 L 108.5 0 Z M 135 6 L 138 9 L 139 9 L 135 6 Z M 143 11 L 146 14 L 147 14 L 143 11 Z M 149 15 Q 147 18 150 17 L 149 15 Z M 153 19 L 154 21 Q 155 18 153 19 Z M 157 23 L 156 25 L 159 27 L 157 23 Z M 161 28 L 161 32 L 164 34 L 161 28 Z M 39 102 L 40 108 L 42 109 L 39 102 Z M 164 106 L 162 109 L 164 108 L 164 106 Z M 43 109 L 42 111 L 45 113 L 43 109 Z M 162 109 L 160 112 L 162 111 L 162 109 Z M 160 112 L 158 115 L 160 114 L 160 112 Z M 46 113 Q 44 116 47 115 L 46 113 Z M 48 116 L 49 118 Q 50 115 48 116 Z M 156 117 L 153 121 L 156 119 L 156 117 Z M 152 121 L 150 123 L 152 123 L 152 121 Z M 57 125 L 58 127 L 59 127 L 57 125 Z M 146 126 L 145 128 L 147 127 L 146 126 Z M 61 128 Q 61 131 67 133 L 68 133 L 61 128 Z M 143 128 L 142 130 L 144 129 L 143 128 Z M 140 130 L 139 132 L 141 131 L 140 130 Z " /><path fill="rgb(221,203,133)" stroke="rgb(221,203,133)" stroke-width="1" opacity="1" d="M 62.5 17 L 66 17.5 L 60.5 20 L 62.5 17 Z " /><path fill="rgb(221,203,133)" stroke="rgb(221,203,133)" stroke-width="1" opacity="1" d="M 95 18 Q 101 15.8 99 22.5 L 95.5 27 L 95 25.5 L 97 20 Q 94 21 95 18 Z " /><path fill="rgb(221,203,133)" stroke="rgb(221,203,133)" stroke-width="1" opacity="1" d="M 110.5 18 L 113 19.5 L 109 20.5 L 110 23.5 L 109 23.5 L 108 20.5 L 110.5 18 Z " /><path fill="rgb(221,203,133)" stroke="rgb(221,203,133)" stroke-width="1" opacity="1" d="M 82.5 20 L 85 21.5 L 84.5 23 L 83.5 21 L 80 22 L 79.5 25 L 79 22.5 L 82.5 20 Z " /><path fill="rgb(221,203,133)" stroke="rgb(221,203,133)" stroke-width="1" opacity="1" d="M 113.5 23 L 114 24.5 L 112 25.5 L 113.5 23 Z " /><path fill="rgb(221,203,133)" stroke="rgb(221,203,133)" stroke-width="1" opacity="1" d="M 124.5 23 Q 131.1 23.9 134 28.5 L 133.5 31 L 129.5 26 L 124.5 24 L 124.5 23 Z " /><path fill="rgb(221,203,133)" stroke="rgb(221,203,133)" stroke-width="1" opacity="1" d="M 85.5 24 L 87 28 L 92.5 26 L 92 27.5 L 91.5 29 L 89.5 29 L 86 27.5 L 85.5 24 Z " /><path fill="rgb(221,203,133)" stroke="rgb(221,203,133)" stroke-width="1" opacity="1" d="M 100.5 24 L 101.5 26 L 100.5 24 Z " /><path fill="rgb(221,203,133)" stroke="rgb(221,203,133)" stroke-width="1" opacity="1" d="M 122.5 24 L 120.5 27 L 117 29.5 Q 117.8 32.1 114.5 31 L 113.5 27 L 116.5 29 L 122.5 24 Z " /><path fill="rgb(221,203,133)" stroke="rgb(221,203,133)" stroke-width="1" opacity="1" d="M 108.5 25 L 109 26.5 L 105.5 28 L 105.5 27 Q 109 28 108.5 25 Z " /><path fill="rgb(221,203,133)" stroke="rgb(221,203,133)" stroke-width="1" opacity="1" d="M 81.5 26 L 83 29.5 L 82 29.5 L 81.5 26 Z " /><path fill="rgb(221,203,133)" stroke="rgb(221,203,133)" stroke-width="1" opacity="1" d="M 70.5 27 L 72 27.5 L 68.5 30 L 70.5 27 Z " /><path fill="rgb(221,203,133)" stroke="rgb(221,203,133)" stroke-width="1" opacity="1" d="M 127.5 27 L 128 29.5 L 126 28.5 L 127.5 27 Z " /><path fill="rgb(221,203,133)" stroke="rgb(221,203,133)" stroke-width="1" opacity="1" d="M 68.5 31 L 70.5 34 L 68.5 31 Z " /><path fill="rgb(221,203,133)" stroke="rgb(221,203,133)" stroke-width="1" opacity="1" d="M 81.5 31 L 80.5 33 L 81.5 31 Z " /><path fill="rgb(221,203,133)" stroke="rgb(221,203,133)" stroke-width="1" opacity="1" d="M 95 31 L 103 32.5 L 96.5 34 L 95 31 Z " /><path fill="rgb(221,203,133)" stroke="rgb(221,203,133)" stroke-width="1" opacity="1" d="M 74.5 32 Q 78.7 33.8 76 35.5 L 77 37.5 L 72 42.5 L 70 52.5 L 71 55.5 L 70 58.5 L 73 64.5 L 72.5 66 Q 75.5 65.5 74 72.5 Q 76.3 73.8 75 78.5 L 73.5 78 L 70.5 79 L 66 78 L 66 76 L 61 76 L 60.5 79 L 59 71 Q 56.3 72.1 57 69.5 L 55 68.5 L 54.5 70 L 52 66 L 57.5 66 L 58 64.5 L 59 62.5 L 58 59 L 55 57.5 L 55.5 55 L 60 56 L 61 52.5 L 60 48 Q 64.7 49 66 45.5 L 66 40 L 63.5 40 L 61 41.5 Q 60.4 36.4 63.5 35 L 64 36.5 L 62 39.5 L 63.5 39 L 66.5 38 L 70.5 39 L 72 36.5 Q 69.8 35.3 72.5 34 L 75 33.5 L 74.5 32 Z M 72 71 L 70 73 Q 69 75 72 74 L 72 71 Z M 69 75 L 70 77 Q 71 74 69 75 Z " /><path fill="rgb(221,203,133)" stroke="rgb(221,203,133)" stroke-width="1" opacity="1" d="M 112.5 32 Q 114 35.5 115.5 33 L 124 35.5 L 122.5 36 Q 121.3 33.7 116.5 35 Q 112.1 37.4 112 43 Q 107.9 44.7 109 40.5 L 104 33.5 L 107.5 36 L 110.5 37 L 112 34.5 Q 109.7 33.3 112.5 32 Z " /><path fill="rgb(221,203,133)" stroke="rgb(221,203,133)" stroke-width="1" opacity="1" d="M 131.5 32 L 130 34.5 L 130 37.5 L 135.5 43 L 138 44.5 L 138 47.5 L 142 54.5 L 142 60.5 L 144 63.5 L 143 64.5 L 143 73.5 L 139.5 79 L 135.5 77 L 131.5 78 L 129 75.5 L 128 65.5 L 131 52.5 L 130 49.5 Q 130 40 125 35.5 L 126.5 36 L 128.5 37 L 131.5 32 Z M 135 45 L 133 47 Q 132 49 135 48 L 136 49 Q 137 44 135 45 Z M 135 49 L 133 52 L 135 53 L 135 49 Z " /><path fill="rgb(221,203,133)" stroke="rgb(221,203,133)" stroke-width="1" opacity="1" d="M 99.5 37 L 99.5 39 L 101 39.5 L 99.5 40 Q 96.5 38.5 99.5 37 Z " /><path fill="rgb(221,203,133)" stroke="rgb(221,203,133)" stroke-width="1" opacity="1" d="M 121.5 41 L 122.5 43 L 121.5 41 Z " /><path fill="rgb(221,203,133)" stroke="rgb(221,203,133)" stroke-width="1" opacity="1" d="M 120.5 46 L 122 49 L 120 48.5 L 120.5 46 Z " /><path fill="rgb(221,203,133)" stroke="rgb(221,203,133)" stroke-width="1" opacity="1" d="M 74.5 54 L 75 57.5 L 74 57.5 L 74.5 54 Z " /><path fill="rgb(221,203,133)" stroke="rgb(221,203,133)" stroke-width="1" opacity="1" d="M 125.5 54 L 126 55.5 L 125 57.5 L 126 59.5 L 125 59.5 L 124.5 58 L 120.5 59 Q 117 57 121.5 55 L 121.5 57 L 123.5 58 L 125.5 54 Z " /><path fill="rgb(221,203,133)" stroke="rgb(221,203,133)" stroke-width="1" opacity="1" d="M 83.5 55 L 85 57.5 L 84 57.5 L 83.5 55 Z " /><path fill="rgb(221,203,133)" stroke="rgb(221,203,133)" stroke-width="1" opacity="1" d="M 101 56 Q 106.3 54.2 104 61.5 L 108 64.5 L 107.5 66 L 103 63 Q 104 66 101 65 L 100 58.5 L 101 56 Z M 102 58 L 103 60 Q 104 57 102 58 Z " /><path fill="rgb(221,203,133)" stroke="rgb(221,203,133)" stroke-width="1" opacity="1" d="M 98.5 57 L 98.5 60 L 96 60 Q 97.1 62.7 94.5 62 L 93 59 Q 97.3 60 98.5 57 Z " /><path fill="rgb(221,203,133)" stroke="rgb(221,203,133)" stroke-width="1" opacity="1" d="M 86.5 58 L 85.5 60 L 86.5 58 Z " /><path fill="rgb(221,203,133)" stroke="rgb(221,203,133)" stroke-width="1" opacity="1" d="M 112.5 58 L 113.5 60 L 112.5 58 Z " /><path fill="rgb(221,203,133)" stroke="rgb(221,203,133)" stroke-width="1" opacity="1" d="M 76.5 59 L 78.5 62 L 76 61 L 80.5 69 L 82 68.5 L 79 74.5 L 80.5 82 L 82 81.5 Q 80.8 84.3 79.5 82 L 78 81.5 L 78 74.5 L 76 70.5 L 77 68.5 Q 74 66.5 75 60.5 L 76.5 59 Z " /><path fill="rgb(221,203,133)" stroke="rgb(221,203,133)" stroke-width="1" opacity="1" d="M 52.5 61 L 56 62.5 L 52 63 L 52.5 61 Z " /><path fill="rgb(221,203,133)" stroke="rgb(221,203,133)" stroke-width="1" opacity="1" d="M 82.5 61 L 83.5 63 L 82.5 61 Z " /><path fill="rgb(221,203,133)" stroke="rgb(221,203,133)" stroke-width="1" opacity="1" d="M 86.5 61 L 87.5 63 L 86.5 61 Z " /><path fill="rgb(221,203,133)" stroke="rgb(221,203,133)" stroke-width="1" opacity="1" d="M 116.5 61 L 116 62.5 L 117 64.5 L 115 65 L 114.5 67 L 112 66.5 L 114 63.5 L 116.5 61 Z " /><path fill="rgb(221,203,133)" stroke="rgb(221,203,133)" stroke-width="1" opacity="1" d="M 123 61 Q 126.3 59.7 125 64.5 L 123.5 73 L 122 66.5 L 123 61 Z " /><path fill="rgb(221,203,133)" stroke="rgb(221,203,133)" stroke-width="1" opacity="1" d="M 99.5 66 L 101.5 67 L 103.5 66 L 103 67.5 L 101.5 70 L 101 67 L 99.5 66 Z " /><path fill="rgb(221,203,133)" stroke="rgb(221,203,133)" stroke-width="1" opacity="1" d="M 118 69 L 122 70.5 L 121.5 72 L 119 70.5 Q 119.8 72.8 117.5 72 L 116 71.5 L 115.5 73 L 115 71.5 L 118 70.5 L 118 69 Z " /><path fill="rgb(221,203,133)" stroke="rgb(221,203,133)" stroke-width="1" opacity="1" d="M 104.5 70 L 108 74.5 L 104 73.5 L 104.5 70 Z " /><path fill="rgb(221,203,133)" stroke="rgb(221,203,133)" stroke-width="1" opacity="1" d="M 82.5 71 Q 85.1 70.3 84 73 L 86.5 73 L 86 74.5 L 85.5 78 L 84 77.5 L 83.5 80 L 82 78.5 L 81 72.5 L 82.5 71 Z M 84 73 L 83 76 L 84 76 L 84 73 Z " /><path fill="rgb(221,203,133)" stroke="rgb(221,203,133)" stroke-width="1" opacity="1" d="M 94 71 L 97 72.5 L 95.5 75 L 93 74.5 L 94 71 Z " /><path fill="rgb(221,203,133)" stroke="rgb(221,203,133)" stroke-width="1" opacity="1" d="M 125.5 71 L 126 73.5 L 125 73.5 L 125.5 71 Z " /><path fill="rgb(221,203,133)" stroke="rgb(221,203,133)" stroke-width="1" opacity="1" d="M 52.5 73 L 55 74.5 L 52 75 L 52.5 73 Z " /><path fill="rgb(221,203,133)" stroke="rgb(221,203,133)" stroke-width="1" opacity="1" d="M 119.5 73 L 120 78 L 116 76.5 L 116.5 75 L 117.5 77 L 119.5 73 Z " /><path fill="rgb(221,203,133)" stroke="rgb(221,203,133)" stroke-width="1" opacity="1" d="M 104.5 75 Q 106.8 75.8 106 79.5 L 105 81.5 L 105.5 83 L 104 80.5 L 105 78.5 L 104.5 75 Z " /><path fill="rgb(221,203,133)" stroke="rgb(221,203,133)" stroke-width="1" opacity="1" d="M 121.5 75 L 124 75.5 L 125 77.5 L 123 77.5 L 122.5 82 Q 120.1 79.3 121.5 75 Z " /><path fill="rgb(221,203,133)" stroke="rgb(221,203,133)" stroke-width="1" opacity="1" d="M 92.5 76 L 93 78 L 96.5 76 L 96 77.5 Q 96.8 79.8 94.5 79 L 90.5 82 L 93 78.5 L 92 77.5 L 92.5 76 Z " /><path fill="rgb(221,203,133)" stroke="rgb(221,203,133)" stroke-width="1" opacity="1" d="M 131.5 80 L 130.5 82 L 131.5 80 Z " /><path fill="rgb(221,203,133)" stroke="rgb(221,203,133)" stroke-width="1" opacity="1" d="M 133.5 80 Q 136.5 81.5 133.5 83 L 133.5 80 Z " /><path fill="rgb(221,203,133)" stroke="rgb(221,203,133)" stroke-width="1" opacity="1" d="M 110.5 83 L 110 84.5 L 109.5 86 L 109 84.5 L 110.5 83 Z " /><path fill="rgb(221,203,133)" stroke="rgb(221,203,133)" stroke-width="1" opacity="1" d="M 58.5 84 L 57.5 86 L 58.5 84 Z " /><path fill="rgb(221,203,133)" stroke="rgb(221,203,133)" stroke-width="1" opacity="1" d="M 105.5 85 L 105.5 88 Q 102.5 86.5 105.5 85 Z " /><path fill="rgb(221,203,133)" stroke="rgb(221,203,133)" stroke-width="1" opacity="1" d="M 74.5 87 Q 78.3 86.3 79 88.5 L 77.5 88 Q 73.5 88.7 74.5 87 Z " /><path fill="rgb(221,203,133)" stroke="rgb(221,203,133)" stroke-width="1" opacity="1" d="M 98.5 87 L 99 89.5 L 97 88.5 L 98.5 87 Z " /><path fill="rgb(221,203,133)" stroke="rgb(221,203,133)" stroke-width="1" opacity="1" d="M 83 88 L 86 89.5 L 83 89.5 L 83 88 Z " /><path fill="rgb(221,203,133)" stroke="rgb(221,203,133)" stroke-width="1" opacity="1" d="M 108.5 88 L 110.5 89 L 112 88.5 L 109.5 90 L 108.5 88 Z " /><path fill="rgb(221,203,133)" stroke="rgb(221,203,133)" stroke-width="1" opacity="1" d="M 120 88 Q 123 87 122 90 Q 119 91 120 88 Z " /><path fill="rgb(221,203,133)" stroke="rgb(221,203,133)" stroke-width="1" opacity="1" d="M 130.5 88 Q 137.2 86.8 139.5 90 Q 140.8 87.8 142 90.5 L 138.5 91 L 134.5 89 L 132.5 89 L 129.5 90 L 130.5 88 Z " /><path fill="rgb(221,203,133)" stroke="rgb(221,203,133)" stroke-width="1" opacity="1" d="M 63.5 89 L 66 89.5 L 63.5 90 L 63.5 89 Z " /><path fill="rgb(221,203,133)" stroke="rgb(221,203,133)" stroke-width="1" opacity="1" d="M 78.5 91 L 91 91.5 L 78.5 92 L 78.5 91 Z " /><path fill="rgb(221,203,133)" stroke="rgb(221,203,133)" stroke-width="1" opacity="1" d="M 93.5 91 L 98 91.5 L 93.5 92 L 93.5 91 Z " /><path fill="rgb(221,203,133)" stroke="rgb(221,203,133)" stroke-width="1" opacity="1" d="M 103.5 91 L 115 91.5 L 103.5 92 L 103.5 91 Z " /><path fill="rgb(221,203,133)" stroke="rgb(221,203,133)" stroke-width="1" opacity="1" d="M 127.5 92 L 126.5 94 L 127.5 92 Z " /><path fill="rgb(221,203,133)" stroke="rgb(221,203,133)" stroke-width="1" opacity="1" d="M 122.5 93 L 121.5 95 L 120 94.5 L 122.5 93 Z " /><path fill="rgb(221,203,133)" stroke="rgb(221,203,133)" stroke-width="1" opacity="1" d="M 93.5 94 L 99 94.5 L 93.5 95 L 93.5 94 Z " /><path fill="rgb(221,203,133)" stroke="rgb(221,203,133)" stroke-width="1" opacity="1" d="M 107.5 94 L 116 94.5 L 107.5 95 L 107.5 94 Z " /><path fill="rgb(221,203,133)" stroke="rgb(221,203,133)" stroke-width="1" opacity="1" d="M 128.5 97 L 127.5 99 Q 125.3 98.3 126 100.5 L 124 101.5 L 125 98 L 128.5 97 Z " /><path fill="rgb(221,203,133)" stroke="rgb(221,203,133)" stroke-width="1" opacity="1" d="M 73.5 99 L 73.5 102 Q 70.5 100.5 73.5 99 Z " /><path fill="rgb(221,203,133)" stroke="rgb(221,203,133)" stroke-width="1" opacity="1" d="M 115.5 100 L 118 101.5 L 116.5 102 L 115.5 100 Z " /><path fill="rgb(221,203,133)" stroke="rgb(221,203,133)" stroke-width="1" opacity="1" d="M 75 101 L 78 101.5 L 75 103 L 75 101 Z " /><path fill="rgb(221,203,133)" stroke="rgb(221,203,133)" stroke-width="1" opacity="1" d="M 128.5 112 Q 130.8 111.3 130 113.5 L 128.5 112 Z " /><path fill="rgb(221,203,133)" stroke="rgb(221,203,133)" stroke-width="1" opacity="1" d="M 117.5 116 L 119 118.5 L 118 118.5 L 117.5 116 Z " /><path fill="rgb(250,245,215)" stroke="rgb(250,245,215)" stroke-width="1" opacity="1" d="M 65.5 22 L 64.5 24 L 65.5 22 Z " /><path fill="rgb(250,245,215)" stroke="rgb(250,245,215)" stroke-width="1" opacity="1" d="M 139.5 36 L 137.5 39 L 139.5 36 Z " /><path fill="rgb(250,245,215)" stroke="rgb(250,245,215)" stroke-width="1" opacity="1" d="M 88 37 L 91 38.5 L 94 45.5 L 93.5 47 L 99 42.5 L 97.5 40 L 94.5 41 L 93 38.5 Q 94.2 36 98 37 Q 96.3 41.5 101.5 40 L 103.5 41 L 103 39.5 L 102 37.5 L 105 37 Q 107.1 40.4 106 48 Q 110.6 49.3 112 46.5 L 117.5 38 L 123.5 39 L 125 40.5 Q 128.5 47 127 58.5 L 126 58.5 Q 127.6 46.4 122.5 41 L 117 40 L 114 48 L 109 51.5 L 110 55.5 L 107 57 L 105.5 54 L 98.5 56 L 96.5 55 L 92.5 57 L 90.5 53 L 86 54.5 L 88.5 58 Q 85.9 58.7 87 56 L 85 56 L 85 54 L 82.5 54 Q 81 56.5 79.5 53 L 77 51.5 Q 77.7 48.9 75 50 L 74.5 52 L 74 49.5 Q 76.3 48.3 75 43.5 L 78.5 39 L 85.5 38 L 87.5 41 L 88 37 Z M 80 42 L 80 44 L 83 43 L 80 42 Z M 100 48 L 99 53 Q 104 54 106 51 L 100 48 Z " /><path fill="rgb(250,245,215)" stroke="rgb(250,245,215)" stroke-width="1" opacity="1" d="M 79.5 56 Q 83.3 55.3 84 57.5 Q 84.8 60.1 81.5 59 L 79.5 56 Z " /><path fill="rgb(250,245,215)" stroke="rgb(250,245,215)" stroke-width="1" opacity="1" d="M 148.5 59 L 148 60.5 L 147.5 62 L 147 60.5 L 148.5 59 Z " /><path fill="rgb(250,245,215)" stroke="rgb(250,245,215)" stroke-width="1" opacity="1" d="M 125.5 64 L 126 69.5 L 125 69.5 L 125.5 64 Z " /><path fill="rgb(250,245,215)" stroke="rgb(250,245,215)" stroke-width="1" opacity="1" d="M 93 68 L 96 68.5 L 93 70 L 92.5 72 L 92 70.5 L 93 68 Z " /><path fill="rgb(250,245,215)" stroke="rgb(250,245,215)" stroke-width="1" opacity="1" d="M 106.5 68 Q 110.9 66.5 110 69.5 L 115 81.5 L 112.5 82 L 110 79.5 Q 109.8 71.3 106.5 68 Z " /><path fill="rgb(250,245,215)" stroke="rgb(250,245,215)" stroke-width="1" opacity="1" d="M 124.5 73 L 125 75.5 L 124 75.5 L 124.5 73 Z " /><path fill="rgb(250,245,215)" stroke="rgb(250,245,215)" stroke-width="1" opacity="1" d="M 90.5 76 L 91 78.5 L 88.5 82 L 89 80.5 L 90.5 76 Z " /><path fill="rgb(250,245,215)" stroke="rgb(250,245,215)" stroke-width="1" opacity="1" d="M 98.5 76 L 99 77.5 L 97.5 83 Q 94.8 81.7 97 80.5 Q 96.3 76.8 98.5 76 Z " /><path fill="rgb(250,245,215)" stroke="rgb(250,245,215)" stroke-width="1" opacity="1" d="M 131.5 81 L 134 81.5 L 132 82 Q 133.3 85 129.5 84 L 125 89.5 L 127 92.5 L 124.5 91 L 123 90.5 L 126 86 L 119.5 87 L 115.5 86 L 113.5 86 L 111 84.5 L 112.5 85 Q 118.4 82.4 128.5 84 L 131.5 81 Z " /><path fill="rgb(250,245,215)" stroke="rgb(250,245,215)" stroke-width="1" opacity="1" d="M 100.5 84 L 103 84.5 L 100.5 85 L 100.5 84 Z " /><path fill="rgb(250,245,215)" stroke="rgb(250,245,215)" stroke-width="1" opacity="1" d="M 66.5 85 L 72 85.5 Q 69.3 87.8 63.5 87 L 63.5 86 L 66.5 85 Z " /><path fill="rgb(250,245,215)" stroke="rgb(250,245,215)" stroke-width="1" opacity="1" d="M 73.5 85 L 76 85.5 L 73.5 86 L 73.5 85 Z " /><path fill="rgb(250,245,215)" stroke="rgb(250,245,215)" stroke-width="1" opacity="1" d="M 82.5 85 L 91 85.5 L 82.5 86 L 82.5 85 Z " /><path fill="rgb(250,245,215)" stroke="rgb(250,245,215)" stroke-width="1" opacity="1" d="M 106.5 85 L 107.5 87 L 106.5 85 Z " /><path fill="rgb(250,245,215)" stroke="rgb(250,245,215)" stroke-width="1" opacity="1" d="M 133.5 85 L 143.5 85 L 144 88.5 L 142 89.5 L 140.5 86 L 138.5 87 L 136.5 86 L 132.5 87 L 133.5 85 Z " /><path fill="rgb(250,245,215)" stroke="rgb(250,245,215)" stroke-width="1" opacity="1" d="M 72.5 92 L 75 92.5 L 71.5 94 L 72.5 92 Z " /><path fill="rgb(250,245,215)" stroke="rgb(250,245,215)" stroke-width="1" opacity="1" d="M 77.5 92 L 79 92.5 L 76.5 94 L 77.5 92 Z " /><path fill="rgb(211,187,114)" stroke="rgb(211,187,114)" stroke-width="1" opacity="1" d="M 63.5 16 L 66 16.5 L 63.5 17 L 63.5 16 Z " /><path fill="rgb(211,187,114)" stroke="rgb(211,187,114)" stroke-width="1" opacity="1" d="M 95.5 17 Q 100.9 15.1 100 18.5 L 102 18.5 L 101 21.5 Q 103.3 22.8 100.5 24 L 99 21.5 L 99 19.5 Q 99.9 16.5 95.5 18 L 95.5 17 Z " /><path fill="rgb(211,187,114)" stroke="rgb(211,187,114)" stroke-width="1" opacity="1" d="M 109.5 17 Q 113.9 15.5 113 18.5 L 111.5 18 L 108 20.5 L 109 24.5 L 108 24.5 Q 109.7 19.7 105.5 21 L 105.5 20 Q 108.8 21.1 108 18.5 L 109.5 17 Z " /><path fill="rgb(211,187,114)" stroke="rgb(211,187,114)" stroke-width="1" opacity="1" d="M 62.5 19 L 61.5 21 L 62.5 19 Z " /><path fill="rgb(211,187,114)" stroke="rgb(211,187,114)" stroke-width="1" opacity="1" d="M 82.5 19 L 85 20.5 L 83.5 20 L 78.5 23 L 80.5 20 L 82.5 19 Z " /><path fill="rgb(211,187,114)" stroke="rgb(211,187,114)" stroke-width="1" opacity="1" d="M 95.5 20 L 96 24.5 L 93 22.5 L 95 22.5 L 95.5 20 Z " /><path fill="rgb(211,187,114)" stroke="rgb(211,187,114)" stroke-width="1" opacity="1" d="M 124.5 21 L 135 28.5 L 134.5 30 L 131.5 26 L 124.5 23 L 123 23.5 L 124.5 21 Z " /><path fill="rgb(211,187,114)" stroke="rgb(211,187,114)" stroke-width="1" opacity="1" d="M 57 22 Q 60 21 59 24 Q 56.3 22.9 57 25.5 L 52 27.5 L 52.5 29 Q 50.3 29.8 51 27.5 L 57 24 L 57 22 Z " /><path fill="rgb(211,187,114)" stroke="rgb(211,187,114)" stroke-width="1" opacity="1" d="M 87.5 24 L 86.5 26 L 87.5 24 Z " /><path fill="rgb(211,187,114)" stroke="rgb(211,187,114)" stroke-width="1" opacity="1" d="M 79.5 25 L 82 28.5 L 81 28.5 L 79.5 25 Z " /><path fill="rgb(211,187,114)" stroke="rgb(211,187,114)" stroke-width="1" opacity="1" d="M 119.5 25 L 117.5 28 L 119.5 25 Z " /><path fill="rgb(211,187,114)" stroke="rgb(211,187,114)" stroke-width="1" opacity="1" d="M 70.5 26 L 68 29.5 L 67.5 31 L 67 29.5 L 70.5 26 Z " /><path fill="rgb(211,187,114)" stroke="rgb(211,187,114)" stroke-width="1" opacity="1" d="M 90.5 26 L 89.5 28 L 90.5 26 Z " /><path fill="rgb(211,187,114)" stroke="rgb(211,187,114)" stroke-width="1" opacity="1" d="M 74.5 31 L 78 33.5 L 76.5 34 L 74.5 31 Z " /><path fill="rgb(211,187,114)" stroke="rgb(211,187,114)" stroke-width="1" opacity="1" d="M 66.5 32 Q 68.8 36.3 71 34.5 L 70.5 36 Q 72.8 35.3 72 37.5 L 70 38.5 L 71 37.5 L 66.5 32 Z " /><path fill="rgb(211,187,114)" stroke="rgb(211,187,114)" stroke-width="1" opacity="1" d="M 135.5 33 L 134.5 35 L 135.5 33 Z " /><path fill="rgb(211,187,114)" stroke="rgb(211,187,114)" stroke-width="1" opacity="1" d="M 62.5 34 L 65 35.5 L 62 36.5 L 61.5 38 L 61 35.5 L 62.5 34 Z " /><path fill="rgb(211,187,114)" stroke="rgb(211,187,114)" stroke-width="1" opacity="1" d="M 95.5 34 L 95.5 37 L 93 36.5 L 95.5 34 Z " /><path fill="rgb(211,187,114)" stroke="rgb(211,187,114)" stroke-width="1" opacity="1" d="M 116.5 35 L 122 35.5 Q 115.7 34.7 114 38.5 L 113.5 40 L 113 38.5 L 116.5 35 Z " /><path fill="rgb(211,187,114)" stroke="rgb(211,187,114)" stroke-width="1" opacity="1" d="M 83 36 Q 86 35 85 38 Q 82 39 83 36 Z " /><path fill="rgb(211,187,114)" stroke="rgb(211,187,114)" stroke-width="1" opacity="1" d="M 104.5 36 L 108 37.5 L 105.5 38 L 104.5 36 Z " /><path fill="rgb(211,187,114)" stroke="rgb(211,187,114)" stroke-width="1" opacity="1" d="M 124.5 36 L 128 40.5 L 127 40.5 L 124.5 36 Z " /><path fill="rgb(211,187,114)" stroke="rgb(211,187,114)" stroke-width="1" opacity="1" d="M 138.5 36 L 139 38.5 L 137.5 40 L 137 37.5 L 138.5 36 Z " /><path fill="rgb(211,187,114)" stroke="rgb(211,187,114)" stroke-width="1" opacity="1" d="M 66.5 37 L 67.5 39 L 66.5 37 Z " /><path fill="rgb(211,187,114)" stroke="rgb(211,187,114)" stroke-width="1" opacity="1" d="M 77.5 37 L 78.5 39 Q 76.7 36.2 75 40.5 L 75.5 42 L 74 41.5 Q 71 46.5 72 55.5 L 73.5 60 L 74.5 58 Q 73.9 65.6 77 69.5 L 77 71.5 L 78 82 L 71.5 84 L 66.5 83 L 66.5 84 L 69 84.5 L 65.5 85 L 60 84 L 56.5 78 L 52.5 81 L 51 78.5 L 57 75.5 Q 57.8 71.8 55.5 71 L 50 67.5 L 51.5 65 L 55 65.5 L 52 66 L 54.5 70 L 55.5 68 L 57 71 Q 59.7 69.9 59 72.5 L 60.5 79 L 61 76 L 65.5 76 Q 64.5 79 69.5 78 L 71.5 78 L 74.5 79 L 75 73.5 L 74 72.5 L 74 66 L 72 65.5 L 73 62.5 L 70 56.5 L 71 53.5 L 70 51.5 L 72 42.5 L 77.5 37 Z " /><path fill="rgb(211,187,114)" stroke="rgb(211,187,114)" stroke-width="1" opacity="1" d="M 130.5 37 L 134 39 L 136 42.5 L 130.5 37 Z " /><path fill="rgb(211,187,114)" stroke="rgb(211,187,114)" stroke-width="1" opacity="1" d="M 99.5 38 L 102 38.5 L 99.5 39 L 99.5 38 Z " /><path fill="rgb(211,187,114)" stroke="rgb(211,187,114)" stroke-width="1" opacity="1" d="M 142.5 38 L 144 38.5 L 140 41.5 L 139 47.5 L 139.5 49 L 137 42 L 142.5 38 Z " /><path fill="rgb(211,187,114)" stroke="rgb(211,187,114)" stroke-width="1" opacity="1" d="M 63.5 40 L 66 40.5 Q 67.3 46.8 63.5 48 L 65 45.5 L 63.5 41 L 62 41.5 L 63.5 40 Z " /><path fill="rgb(211,187,114)" stroke="rgb(211,187,114)" stroke-width="1" opacity="1" d="M 96.5 41 Q 100 43 95.5 45 L 94 42.5 L 95.5 43 L 97 42.5 L 96.5 41 Z " /><path fill="rgb(211,187,114)" stroke="rgb(211,187,114)" stroke-width="1" opacity="1" d="M 118.5 41 Q 123.5 40.5 124 44.5 L 125 55.5 L 123.5 55 Q 119.5 54.5 119 57.5 Q 119.8 59.8 123.5 59 L 125 58.5 Q 126.1 61.8 123.5 61 L 121.5 62 L 116 60.5 L 118 56 Q 121 57.3 120 53.5 L 119.5 52 L 124 53 L 122.5 50 L 121 49.5 L 122 47.5 L 120 46.5 L 119.5 49 L 119 46.5 L 121 42.5 Q 117.7 42.6 118.5 41 Z " /><path fill="rgb(211,187,114)" stroke="rgb(211,187,114)" stroke-width="1" opacity="1" d="M 114.5 42 L 113.5 44 L 114.5 42 Z " /><path fill="rgb(211,187,114)" stroke="rgb(211,187,114)" stroke-width="1" opacity="1" d="M 141.5 43 L 141 44.5 L 140.5 46 L 140 44.5 L 141.5 43 Z " /><path fill="rgb(211,187,114)" stroke="rgb(211,187,114)" stroke-width="1" opacity="1" d="M 117.5 44 L 118 45.5 L 115 47.5 L 117.5 44 Z " /><path fill="rgb(211,187,114)" stroke="rgb(211,187,114)" stroke-width="1" opacity="1" d="M 55 45 L 60 48.5 L 59.5 51 L 54 47.5 L 55 45 Z " /><path fill="rgb(211,187,114)" stroke="rgb(211,187,114)" stroke-width="1" opacity="1" d="M 129.5 45 L 130 48.5 L 129 48.5 L 129.5 45 Z " /><path fill="rgb(211,187,114)" stroke="rgb(211,187,114)" stroke-width="1" opacity="1" d="M 118.5 50 L 117.5 52 L 118.5 50 Z " /><path fill="rgb(211,187,114)" stroke="rgb(211,187,114)" stroke-width="1" opacity="1" d="M 140.5 50 L 145 60.5 L 144 62.5 L 145 65 Q 147.7 63.9 147 66.5 Q 143.4 67.9 144 73.5 L 146 76.5 L 141.5 82 Q 135.8 81.8 133 78.5 L 135.5 77 L 139.5 79 L 143 73.5 L 143 64.5 L 144 63.5 L 142 60.5 L 142 54.5 L 140.5 50 Z " /><path fill="rgb(211,187,114)" stroke="rgb(211,187,114)" stroke-width="1" opacity="1" d="M 149.5 50 L 150 52 L 147.5 53 L 149.5 50 Z " /><path fill="rgb(211,187,114)" stroke="rgb(211,187,114)" stroke-width="1" opacity="1" d="M 60.5 52 L 61 53.5 L 59.5 56 L 58 53.5 L 60.5 52 Z " /><path fill="rgb(211,187,114)" stroke="rgb(211,187,114)" stroke-width="1" opacity="1" d="M 129 52 Q 132 50.8 131 54.5 L 129.5 59 Q 126.8 57.8 129 56.5 L 129 52 Z " /><path fill="rgb(211,187,114)" stroke="rgb(211,187,114)" stroke-width="1" opacity="1" d="M 116.5 53 L 117 55 L 115 55.5 L 115.5 57 Q 112 55 116.5 53 Z " /><path fill="rgb(211,187,114)" stroke="rgb(211,187,114)" stroke-width="1" opacity="1" d="M 52 54 L 55 55.5 L 56.5 59 Q 59.1 58.2 58 61.5 L 59 63.5 L 58 66 L 56 65.5 L 57 63.5 L 57 61.5 L 52 54 Z " /><path fill="rgb(211,187,114)" stroke="rgb(211,187,114)" stroke-width="1" opacity="1" d="M 85.5 57 L 86 59 L 90 61.5 L 86 60.5 L 85.5 57 Z " /><path fill="rgb(211,187,114)" stroke="rgb(211,187,114)" stroke-width="1" opacity="1" d="M 98.5 58 Q 101.5 57.1 100 61.5 L 101 65 L 103 65 Q 101.9 62.3 104.5 63 Q 107.5 64.5 104.5 66 L 101 67.5 L 101.5 70 L 103 69.5 L 102 72 Q 99 73.3 100 69.5 L 97 68.5 L 98 64.5 L 96.5 65 Q 92.3 66.1 94 62 Q 97 63 96 60 L 98.5 60 L 98.5 58 Z " /><path fill="rgb(211,187,114)" stroke="rgb(211,187,114)" stroke-width="1" opacity="1" d="M 101.5 58 Q 103.8 57.3 103 59.5 L 101.5 58 Z " /><path fill="rgb(211,187,114)" stroke="rgb(211,187,114)" stroke-width="1" opacity="1" d="M 77.5 59 L 82 61.5 L 81.5 64 L 79 60 L 77.5 59 Z " /><path fill="rgb(211,187,114)" stroke="rgb(211,187,114)" stroke-width="1" opacity="1" d="M 127.5 59 Q 130 60 129 64.5 L 128 69.5 Q 130.3 70.8 129 75.5 L 131 79 L 126.5 80 L 125 76.5 L 127 71.5 L 126 67.5 L 127.5 59 Z " /><path fill="rgb(211,187,114)" stroke="rgb(211,187,114)" stroke-width="1" opacity="1" d="M 114.5 62 L 114 63.5 Q 114.8 65.8 112.5 65 L 114.5 62 Z " /><path fill="rgb(211,187,114)" stroke="rgb(211,187,114)" stroke-width="1" opacity="1" d="M 90.5 65 L 91 67.5 L 90 67.5 L 90.5 65 Z " /><path fill="rgb(211,187,114)" stroke="rgb(211,187,114)" stroke-width="1" opacity="1" d="M 93.5 67 L 92.5 69 L 93.5 67 Z " /><path fill="rgb(211,187,114)" stroke="rgb(211,187,114)" stroke-width="1" opacity="1" d="M 112.5 67 L 115 68.5 L 113.5 69 L 112.5 67 Z " /><path fill="rgb(211,187,114)" stroke="rgb(211,187,114)" stroke-width="1" opacity="1" d="M 120 67 Q 122.7 65.9 122 68.5 Q 124.5 70 123 75.5 L 121 75.5 L 122 81.5 L 117.5 80 Q 114.9 80.8 116 77.5 L 117 75.5 L 116 71.5 L 117 71.5 L 117.5 73 L 119.5 70 L 122 71.5 L 120 67 Z M 120 73 L 117 78 L 120 78 L 120 73 Z " /><path fill="rgb(211,187,114)" stroke="rgb(211,187,114)" stroke-width="1" opacity="1" d="M 87.5 68 L 90 69.5 L 88.5 69 L 87.5 68 Z " /><path fill="rgb(211,187,114)" stroke="rgb(211,187,114)" stroke-width="1" opacity="1" d="M 72.5 70 L 72 71.5 Q 73 75.3 70 74 L 72.5 70 Z " /><path fill="rgb(211,187,114)" stroke="rgb(211,187,114)" stroke-width="1" opacity="1" d="M 63.5 72 L 64.5 74 L 63.5 72 Z " /><path fill="rgb(211,187,114)" stroke="rgb(211,187,114)" stroke-width="1" opacity="1" d="M 51.5 73 L 52 75 L 50 74.5 L 51.5 73 Z " /><path fill="rgb(211,187,114)" stroke="rgb(211,187,114)" stroke-width="1" opacity="1" d="M 105.5 73 L 109 76.5 L 110 80.5 L 110 82.5 L 109.5 84 L 105.5 82 L 104 82.5 Q 106.6 81.1 106 76.5 Q 102.3 74.8 105.5 73 Z " /><path fill="rgb(211,187,114)" stroke="rgb(211,187,114)" stroke-width="1" opacity="1" d="M 86.5 74 L 87 76.5 L 86 76.5 L 86.5 74 Z " /><path fill="rgb(211,187,114)" stroke="rgb(211,187,114)" stroke-width="1" opacity="1" d="M 68.5 75 Q 70.8 74.3 70 76.5 L 68.5 75 Z " /><path fill="rgb(211,187,114)" stroke="rgb(211,187,114)" stroke-width="1" opacity="1" d="M 93 75 Q 96.8 73.5 96 76.5 L 93 78 L 93 75 Z " /><path fill="rgb(211,187,114)" stroke="rgb(211,187,114)" stroke-width="1" opacity="1" d="M 84.5 77 L 86 79.5 L 82 82 L 82.5 79 L 84 79.5 L 84.5 77 Z " /><path fill="rgb(211,187,114)" stroke="rgb(211,187,114)" stroke-width="1" opacity="1" d="M 94.5 79 L 97 84.5 L 96 84.5 Q 96.8 82.3 94.5 83 L 91 81.5 L 94.5 79 Z " /><path fill="rgb(211,187,114)" stroke="rgb(211,187,114)" stroke-width="1" opacity="1" d="M 124.5 81 L 125 83 L 118.5 84 L 118.5 83 Q 123.5 84 124.5 81 Z " /><path fill="rgb(211,187,114)" stroke="rgb(211,187,114)" stroke-width="1" opacity="1" d="M 150.5 81 L 153 82.5 L 151.5 83 L 150.5 81 Z " /><path fill="rgb(211,187,114)" stroke="rgb(211,187,114)" stroke-width="1" opacity="1" d="M 79.5 82 L 81 84.5 L 79 85 L 79.5 82 Z " /><path fill="rgb(211,187,114)" stroke="rgb(211,187,114)" stroke-width="1" opacity="1" d="M 91.5 83 L 94 84.5 L 92.5 84 L 91.5 83 Z " /><path fill="rgb(211,187,114)" stroke="rgb(211,187,114)" stroke-width="1" opacity="1" d="M 103.5 84 L 105.5 88 L 108.5 87 L 108.5 90 L 105.5 89 L 104 89.5 L 103.5 84 Z " /><path fill="rgb(211,187,114)" stroke="rgb(211,187,114)" stroke-width="1" opacity="1" d="M 110.5 85 L 113 86.5 L 111.5 87 L 110.5 85 Z " /><path fill="rgb(211,187,114)" stroke="rgb(211,187,114)" stroke-width="1" opacity="1" d="M 84.5 86 L 86 86.5 Q 84.6 89.6 79.5 89 L 78.5 87 Q 83.2 88.3 84.5 86 Z " /><path fill="rgb(211,187,114)" stroke="rgb(211,187,114)" stroke-width="1" opacity="1" d="M 91.5 86 L 92 88.5 Q 92.7 91.5 89 90 Q 90.1 87.3 87.5 88 L 87.5 87 L 91.5 86 Z " /><path fill="rgb(211,187,114)" stroke="rgb(211,187,114)" stroke-width="1" opacity="1" d="M 116.5 86 L 124 87 L 121.5 92 L 122 90.5 Q 123 86.8 120 88 Q 121.3 91 117.5 90 Q 115.8 92.7 114 88.5 L 116.5 86 Z " /><path fill="rgb(211,187,114)" stroke="rgb(211,187,114)" stroke-width="1" opacity="1" d="M 95.5 87 Q 97.8 86.3 97 88.5 L 97.5 90 Q 93.1 91.5 94 88.5 L 95.5 87 Z " /><path fill="rgb(211,187,114)" stroke="rgb(211,187,114)" stroke-width="1" opacity="1" d="M 85.5 88 L 86.5 90 L 84 89.5 L 85.5 88 Z " /><path fill="rgb(211,187,114)" stroke="rgb(211,187,114)" stroke-width="1" opacity="1" d="M 56.5 89 L 67 94.5 Q 65.3 97.8 60.5 98 Q 58.3 97.3 59 93.5 L 59.5 92 L 56 93 L 55 90.5 L 56.5 89 Z " /><path fill="rgb(211,187,114)" stroke="rgb(211,187,114)" stroke-width="1" opacity="1" d="M 130.5 89 L 133 89.5 L 130.5 90 L 130.5 89 Z " /><path fill="rgb(211,187,114)" stroke="rgb(211,187,114)" stroke-width="1" opacity="1" d="M 134 89 L 138 90.5 L 134 91 L 134 89 Z " /><path fill="rgb(211,187,114)" stroke="rgb(211,187,114)" stroke-width="1" opacity="1" d="M 65.5 90 L 71 90.5 L 65.5 91 L 65.5 90 Z " /><path fill="rgb(211,187,114)" stroke="rgb(211,187,114)" stroke-width="1" opacity="1" d="M 146 90 L 149 90.5 L 143.5 100 L 140 100 L 140 95 L 144.5 96 Q 147.3 94.8 145 93.5 L 146 90 Z " /><path fill="rgb(211,187,114)" stroke="rgb(211,187,114)" stroke-width="1" opacity="1" d="M 75.5 91 L 78 91.5 L 75.5 92 L 75.5 91 Z " /><path fill="rgb(211,187,114)" stroke="rgb(211,187,114)" stroke-width="1" opacity="1" d="M 100.5 91 L 103 91.5 L 100.5 92 L 100.5 91 Z " /><path fill="rgb(211,187,114)" stroke="rgb(211,187,114)" stroke-width="1" opacity="1" d="M 123 92 L 126 93.5 Q 122.3 95.3 125.5 97 L 131.5 93 L 127.5 98 L 125 98 L 124.5 101 L 116 101 Q 114.8 98 118.5 99 L 121.5 100 L 123 96 L 112.5 96 L 111.5 97 L 109 95.5 L 119.5 94 L 121.5 95 L 123 92 Z " /><path fill="rgb(211,187,114)" stroke="rgb(211,187,114)" stroke-width="1" opacity="1" d="M 71.5 94 L 73.5 98 L 76 97 Q 74.9 99.7 77.5 99 L 79.5 98 L 79 99.5 Q 79.9 102.9 74.5 101 L 74.5 100 L 76 99.5 L 70 97.5 L 71.5 94 Z " /><path fill="rgb(211,187,114)" stroke="rgb(211,187,114)" stroke-width="1" opacity="1" d="M 75.5 94 L 93 94.5 L 75.5 95 L 75.5 94 Z " /><path fill="rgb(211,187,114)" stroke="rgb(211,187,114)" stroke-width="1" opacity="1" d="M 102.5 94 L 107 94.5 L 102.5 95 L 102.5 94 Z " /><path fill="rgb(211,187,114)" stroke="rgb(211,187,114)" stroke-width="1" opacity="1" d="M 83.5 97 L 87.5 99 Q 89 95.5 90.5 98 Q 92.8 97.3 92 99.5 L 93 99.5 L 94.5 97 L 99.5 98 L 102 97 L 101 99.5 L 106 100.5 L 90.5 101 L 88.5 100 L 85.5 101 L 83.5 100 L 81 101 L 83.5 97 Z " /><path fill="rgb(211,187,114)" stroke="rgb(211,187,114)" stroke-width="1" opacity="1" d="M 105.5 97 L 106.5 99 L 104 98.5 L 105.5 97 Z " /><path fill="rgb(211,187,114)" stroke="rgb(211,187,114)" stroke-width="1" opacity="1" d="M 108.5 100 L 111 100.5 L 108.5 101 L 108.5 100 Z " /><path fill="rgb(211,187,114)" stroke="rgb(211,187,114)" stroke-width="1" opacity="1" d="M 136 101 L 138 101.5 L 136 102.5 L 136 101 Z " /><path fill="rgb(211,187,114)" stroke="rgb(211,187,114)" stroke-width="1" opacity="1" d="M 77.5 102 L 109 102.5 L 77.5 103 L 77.5 102 Z " /><path fill="rgb(211,187,114)" stroke="rgb(211,187,114)" stroke-width="1" opacity="1" d="M 110.5 102 L 126 102.5 L 110.5 103 L 110.5 102 Z " /><path fill="rgb(211,187,114)" stroke="rgb(211,187,114)" stroke-width="1" opacity="1" d="M 87.5 106 L 98.5 107 L 99.5 108 L 100.5 107 L 112.5 107 L 114.5 107 Q 118.9 105.5 118 108.5 L 118.5 110 L 116.5 110 L 113 112.5 L 111.5 115 Q 107.1 116.5 108 113.5 L 104.5 112 L 99.5 113 Q 98.5 109 92.5 110 L 86 111 Q 85 107.2 87.5 106 Z " /><path fill="rgb(211,187,114)" stroke="rgb(211,187,114)" stroke-width="1" opacity="1" d="M 120 113 Q 122.7 111.9 122 114.5 L 122.5 116 L 120 114.5 L 120 113 Z " /><path fill="rgb(211,187,114)" stroke="rgb(211,187,114)" stroke-width="1" opacity="1" d="M 92.5 114 Q 94.8 113.3 94 115.5 L 92.5 114 Z " /><path fill="rgb(91,91,61)" stroke="rgb(91,91,61)" stroke-width="1" opacity="0.996078431372549" d="M 92.5 3 L 109.5 3 L 124 7 L 123 9.5 L 125 10.5 Q 124.2 7.5 128 9 L 128.5 12 L 129 10 L 132 11.5 Q 133.3 15.3 129.5 14 L 119.5 9 L 112.5 9 L 104.5 7 L 101.5 8 L 99.5 7 L 85.5 10 L 85.5 9 Q 89.3 10 88 7 L 85.5 8 L 85 6 L 80.5 7 L 80.5 6 L 92.5 3 Z M 90 6 L 90 8 L 92 7 L 90 6 Z " /><path fill="rgb(91,91,61)" stroke="rgb(91,91,61)" stroke-width="1" opacity="0.996078431372549" d="M 72.5 9 L 74 9.5 L 69.5 12 L 70.5 10 L 72.5 9 Z " /><path fill="rgb(91,91,61)" stroke="rgb(91,91,61)" stroke-width="1" opacity="0.996078431372549" d="M 90.5 10 L 94 10.5 L 90.5 11 L 90.5 10 Z " /><path fill="rgb(91,91,61)" stroke="rgb(91,91,61)" stroke-width="1" opacity="0.996078431372549" d="M 104.5 10 L 111.5 10 L 124.5 14 Q 138.2 19.8 147 30.5 L 145.5 31 L 140.5 25 L 130.5 18 L 117.5 13 Q 110.1 13.9 106.5 11 L 105.5 12 L 95.5 12 L 95.5 11 L 103.5 11 L 104.5 10 Z " /><path fill="rgb(91,91,61)" stroke="rgb(91,91,61)" stroke-width="1" opacity="0.996078431372549" d="M 79.5 11 L 81 11.5 Q 71.5 14 65.5 20 L 68.5 16 L 74.5 12 L 76.5 12 L 79.5 11 Z " /><path fill="rgb(91,91,61)" stroke="rgb(91,91,61)" stroke-width="1" opacity="0.996078431372549" d="M 67.5 12 L 66.5 14 L 58.5 20 L 62.5 15 L 67.5 12 Z " /><path fill="rgb(91,91,61)" stroke="rgb(91,91,61)" stroke-width="1" opacity="0.996078431372549" d="M 89.5 12 L 94 12.5 L 89.5 13 L 89.5 12 Z " /><path fill="rgb(91,91,61)" stroke="rgb(91,91,61)" stroke-width="1" opacity="0.996078431372549" d="M 83.5 14 L 85 14.5 L 80 16.5 L 84.5 17 Q 90.3 13.3 101.5 15 L 105.5 16 L 105.5 14 L 121.5 17 Q 132.3 21.3 140 28.5 L 142.5 32 Q 144.8 31.3 144 33.5 L 154 49.5 L 156 54.5 L 157 67.5 L 158 68.5 L 156 69 L 158 72.5 Q 155.8 73.8 157 78.5 L 155 81.5 L 156 85.5 Q 152.3 88.3 152 94.5 L 148 98.5 Q 150.2 99.8 147.5 101 L 145 102.5 L 146 104.5 L 142.5 106 L 139 105.5 L 141 104.5 L 140 102 Q 137.3 103.1 138 100.5 L 141 102.5 Q 140.3 104.8 142.5 104 L 151 89.5 L 147.5 87 L 144 93 L 142 92.5 L 145 87 L 147.5 86 L 150 86.5 L 149.5 88 L 152 87.5 L 151.5 84 Q 154.1 84.8 153 81.5 L 150.5 80 L 148.5 81 L 149.5 79 Q 154.9 80.9 154 77.5 L 154 75.5 L 151.5 73 L 147 75.5 L 147.5 77 L 145 72.5 L 147 72.5 L 148 69.5 L 146 68.5 Q 147.7 64.5 154 66 L 152.5 62 L 149 61.5 L 149.5 59 L 152 60 L 151.5 54 L 145 57.5 L 147 60.5 L 145.5 63 L 144 57.5 L 145.5 54 L 149.5 53 L 151 53.5 L 152 50.5 L 148.5 45 L 145.5 43 L 143 42 Q 141.8 39 145.5 40 L 145 38.5 L 143.5 36 Q 141.3 35.3 142 37.5 L 137.5 42 L 135.5 42 L 135.5 41 L 141 37.5 L 142 34 L 139.5 35 L 137.5 32 L 139.5 33 L 140 31 L 136.5 30 L 132 33.5 L 137 28.5 L 134.5 26 L 123 20 L 121.5 24 L 119.5 23 L 118.5 25 L 118 23.5 Q 120.5 22 117 20.5 L 115.5 18 Q 113.8 15.2 108.5 16 L 107.5 19 L 104.5 17 L 101 18 Q 102.1 14.5 94.5 16 Q 89.8 18.3 94 20.5 Q 94.8 22.8 92.5 22 L 91.5 19 L 90 19.5 L 90.5 21 L 88.5 18 L 85.5 19 L 82.5 18 L 78 20 L 77 22.5 L 78.5 25 Q 77.8 22.2 73.5 23 L 73.5 24 L 75 24.5 Q 68.3 24.3 66 28.5 Q 65.5 33 69 33.5 L 65.5 31 L 61 33 L 59 36.5 L 60 38.5 L 60 40.5 L 61 42.5 L 59 43.5 L 59 41.5 L 58.5 40 L 57.5 42 L 56 41.5 L 53 47.5 L 59 50 Q 60.1 52.7 57.5 52 L 52.5 50 Q 54.2 52.2 50 54.5 L 53.5 59 L 56 60.5 Q 56.8 62.8 54.5 62 L 52 61 Q 53 58 50 59 L 49 61.5 L 50 64 L 54.5 63 L 55.5 65 Q 48.5 63.5 49 66.5 Q 46.8 67.8 49.5 69 L 52 70.5 L 52.5 72 L 54 71.5 L 48.5 75 Q 49.3 69.2 46 67.5 L 46 62.5 L 48 62.5 L 47 57.5 L 49 51.5 L 47 51 L 44 61.5 L 44 79.5 L 48 93.5 L 58 110 L 67 116 Q 65.9 118.7 68.5 118 L 78.5 124 L 91.5 128 L 110.5 128 Q 136.3 122.8 149 104.5 L 155 94.5 L 159 82.5 L 160 64 L 162 64.5 L 162 72.5 L 162 74.5 L 161.5 79 L 160 78.5 L 161 81.5 L 155 99 L 153 99.5 Q 155.5 101 152 102.5 Q 147.1 112.1 138.5 118 L 118.5 128 L 107.5 130 L 95.5 130 Q 68.5 125.5 55 107.5 Q 42.1 92.9 41 66.5 L 43 66.5 L 42 58.5 L 43 58.5 L 43.5 60 L 47 47.5 L 46 45.5 L 47 45.5 L 47.5 47 L 49 43.5 L 47 43.5 L 50 41.5 L 49.5 40 Q 50.8 42.3 52 39.5 L 53 36.5 L 51 36.5 Q 52.3 33.8 53.5 36 L 60 29.5 L 61.5 27 L 72.5 19 L 71.5 21 L 68 23.5 L 69.5 24 L 78 18.5 L 76 17.5 L 83.5 14 Z M 65 26 L 62 30 L 66 27 L 65 26 Z M 60 31 L 55 37 L 57 37 L 61 32 L 60 31 Z M 55 38 L 56 40 Q 57 37 55 38 Z M 54 39 L 52 42 L 54 41 L 54 39 Z M 50 43 L 48 48 L 49 49 L 52 45 Q 53 42 50 43 Z M 150 67 L 148 69 L 151 70 L 152 73 L 154 72 Q 156 73 155 70 L 150 67 Z M 49 70 Q 48 74 51 73 Q 52 69 49 70 Z M 155 82 L 152 87 L 154 87 L 155 85 L 155 82 Z " /><path fill="rgb(91,91,61)" stroke="rgb(91,91,61)" stroke-width="1" opacity="0.996078431372549" d="M 135.5 16 L 139 17 L 138.5 19 L 135.5 16 Z " /><path fill="rgb(91,91,61)" stroke="rgb(91,91,61)" stroke-width="1" opacity="0.996078431372549" d="M 71.5 17 L 73 17.5 L 70.5 19 L 71.5 17 Z " /><path fill="rgb(91,91,61)" stroke="rgb(91,91,61)" stroke-width="1" opacity="0.996078431372549" d="M 103.5 19 L 104 22 Q 108.5 20.3 107 25.5 L 105.5 25 L 101 23.5 L 103 22.5 L 103 20.5 L 103.5 19 Z " /><path fill="rgb(91,91,61)" stroke="rgb(91,91,61)" stroke-width="1" opacity="0.996078431372549" d="M 114.5 19 L 116 21.5 L 114 20.5 L 114.5 19 Z " /><path fill="rgb(91,91,61)" stroke="rgb(91,91,61)" stroke-width="1" opacity="0.996078431372549" d="M 56.5 20 L 52.5 25 L 56.5 20 Z " /><path fill="rgb(91,91,61)" stroke="rgb(91,91,61)" stroke-width="1" opacity="0.996078431372549" d="M 63.5 20 L 52 32.5 L 44 46.5 L 39 66.5 Q 41.5 68 40 73.5 L 38.5 76 Q 41.1 75.2 40 78.5 L 38 77.5 L 38 76 L 36 75.5 L 36 68.5 L 35 65.5 L 39 45.5 L 47.5 31 L 48 34 Q 51.7 35.5 51 32.5 L 54.5 28 L 60 23.5 Q 59.3 21.3 61.5 22 L 63.5 20 Z M 44 39 Q 43 43 46 42 Q 47 38 44 39 Z " /><path fill="rgb(91,91,61)" stroke="rgb(91,91,61)" stroke-width="1" opacity="0.996078431372549" d="M 87 21 L 89 21.5 Q 86.8 22.8 89.5 24 L 91.5 23 L 90.5 25 L 87 22.5 L 87 21 Z " /><path fill="rgb(91,91,61)" stroke="rgb(91,91,61)" stroke-width="1" opacity="0.996078431372549" d="M 145.5 21 L 148.5 23 L 156 32.5 L 154 33 L 152.5 30 L 149 30 Q 151.1 24.8 146.5 26 L 144 22.5 L 145.5 21 Z " /><path fill="rgb(91,91,61)" stroke="rgb(91,91,61)" stroke-width="1" opacity="0.996078431372549" d="M 93.5 24 L 94 26 L 92 25.5 L 93.5 24 Z " /><path fill="rgb(91,91,61)" stroke="rgb(91,91,61)" stroke-width="1" opacity="0.996078431372549" d="M 51.5 26 L 48.5 30 L 51.5 26 Z " /><path fill="rgb(91,91,61)" stroke="rgb(91,91,61)" stroke-width="1" opacity="0.996078431372549" d="M 72.5 26 L 74 28.5 L 72 27.5 L 72.5 26 Z " /><path fill="rgb(91,91,61)" stroke="rgb(91,91,61)" stroke-width="1" opacity="0.996078431372549" d="M 75.5 26 L 77.5 26 L 80 27.5 L 81 30.5 L 79 31.5 L 79 29.5 Q 80 25.8 77 27 L 78 29.5 L 76 28.5 L 75.5 26 Z " /><path fill="rgb(91,91,61)" stroke="rgb(91,91,61)" stroke-width="1" opacity="0.996078431372549" d="M 56.5 30 L 54.5 33 L 56.5 30 Z " /><path fill="rgb(91,91,61)" stroke="rgb(91,91,61)" stroke-width="1" opacity="0.996078431372549" d="M 77.5 31 L 78 33 L 76 32.5 L 77.5 31 Z " /><path fill="rgb(91,91,61)" stroke="rgb(91,91,61)" stroke-width="1" opacity="0.996078431372549" d="M 147.5 32 Q 149.8 31.3 149 33.5 L 149.5 35 L 147.5 32 Z " /><path fill="rgb(91,91,61)" stroke="rgb(91,91,61)" stroke-width="1" opacity="0.996078431372549" d="M 97.5 34 Q 103.5 32.5 105 35.5 L 103.5 36 Q 102.2 33.7 97.5 35 L 96 35.5 L 97.5 34 Z " /><path fill="rgb(91,91,61)" stroke="rgb(91,91,61)" stroke-width="1" opacity="0.996078431372549" d="M 135.5 34 L 138 35.5 L 137.5 37 L 135.5 34 Z " /><path fill="rgb(91,91,61)" stroke="rgb(91,91,61)" stroke-width="1" opacity="0.996078431372549" d="M 66.5 35 L 70 37.5 L 68.5 38 L 66 37 L 66.5 35 Z " /><path fill="rgb(91,91,61)" stroke="rgb(91,91,61)" stroke-width="1" opacity="0.996078431372549" d="M 131 36 Q 134.8 35.3 136 38.5 L 134.5 38 Q 129.7 39.3 131 36 Z " /><path fill="rgb(91,91,61)" stroke="rgb(91,91,61)" stroke-width="1" opacity="0.996078431372549" d="M 151.5 36 L 157 45.5 L 155 46 L 151.5 36 Z " /><path fill="rgb(91,91,61)" stroke="rgb(91,91,61)" stroke-width="1" opacity="0.996078431372549" d="M 107.5 40 L 109 44.5 L 107.5 47 L 107.5 40 Z " /><path fill="rgb(91,91,61)" stroke="rgb(91,91,61)" stroke-width="1" opacity="0.996078431372549" d="M 113.5 41 L 114 42.5 L 111 44.5 L 113.5 41 Z " /><path fill="rgb(91,91,61)" stroke="rgb(91,91,61)" stroke-width="1" opacity="0.996078431372549" d="M 141.5 41 L 142 42.5 L 140 43.5 L 141.5 41 Z " /><path fill="rgb(91,91,61)" stroke="rgb(91,91,61)" stroke-width="1" opacity="0.996078431372549" d="M 127.5 43 L 128 45.5 L 127 45.5 L 127.5 43 Z " /><path fill="rgb(91,91,61)" stroke="rgb(91,91,61)" stroke-width="1" opacity="0.996078431372549" d="M 142.5 44 L 146 45 L 146.5 47 L 148 46.5 L 145 47.5 Q 145.8 49.8 143.5 49 L 142.5 52 L 140 48.5 L 141 46 L 143 45.5 L 142.5 44 Z " /><path fill="rgb(91,91,61)" stroke="rgb(91,91,61)" stroke-width="1" opacity="0.996078431372549" d="M 58.5 45 L 62.5 46 L 64 45.5 Q 62.6 48.3 58 47 L 58.5 45 Z " /><path fill="rgb(91,91,61)" stroke="rgb(91,91,61)" stroke-width="1" opacity="0.996078431372549" d="M 148.5 48 L 149 49.5 L 147 50.5 L 148.5 48 Z " /><path fill="rgb(91,91,61)" stroke="rgb(91,91,61)" stroke-width="1" opacity="0.996078431372549" d="M 157.5 48 L 161 57.5 L 161 61.5 L 160 61.5 L 157 51.5 L 157.5 48 Z " /><path fill="rgb(91,91,61)" stroke="rgb(91,91,61)" stroke-width="1" opacity="0.996078431372549" d="M 161.5 48 L 163 51 Q 166 49.8 165 53.5 L 164 53.5 L 162.5 51 Q 159.4 51.7 161.5 48 Z " /><path fill="rgb(91,91,61)" stroke="rgb(91,91,61)" stroke-width="1" opacity="0.996078431372549" d="M 144.5 50 L 145.5 52 L 144.5 50 Z " /><path fill="rgb(91,91,61)" stroke="rgb(91,91,61)" stroke-width="1" opacity="0.996078431372549" d="M 54.5 52 L 55 54 L 53 53.5 L 54.5 52 Z " /><path fill="rgb(91,91,61)" stroke="rgb(91,91,61)" stroke-width="1" opacity="0.996078431372549" d="M 115.5 52 L 115 53.5 L 113.5 56 L 111 55.5 L 115.5 52 Z " /><path fill="rgb(91,91,61)" stroke="rgb(91,91,61)" stroke-width="1" opacity="0.996078431372549" d="M 118.5 53 L 119 54.5 L 115 62 L 111 64.5 L 112 69 L 114.5 70 L 118.5 65 L 117 67.5 L 114.5 71 L 111 70 L 109 66.5 L 109 59.5 L 111.5 58 L 111.5 59 L 110 59.5 L 110.5 62 L 114 60.5 L 118.5 53 Z " /><path fill="rgb(91,91,61)" stroke="rgb(91,91,61)" stroke-width="1" opacity="0.996078431372549" d="M 162.5 55 Q 165.1 54.2 164 57.5 L 166 57.5 L 164.5 60 L 162.5 55 Z " /><path fill="rgb(91,91,61)" stroke="rgb(91,91,61)" stroke-width="1" opacity="0.996078431372549" d="M 92.5 61 L 94 64.5 Q 94.5 68.5 91.5 69 L 91 67.5 L 91 65.5 L 90 63.5 L 92 63 L 92.5 61 Z " /><path fill="rgb(91,91,61)" stroke="rgb(91,91,61)" stroke-width="1" opacity="0.996078431372549" d="M 164.5 61 L 167 65.5 L 165 69.5 L 166 72 Q 168.7 70.9 168 73.5 Q 165.3 75.3 167 81.5 L 165 84.5 L 166 87 Q 162.7 85.7 164 90.5 L 161 96.5 L 161 100 Q 158 98.8 159 102.5 L 149.5 115 L 147 116.5 L 145.5 119 L 138 123.5 Q 138.8 126.1 135.5 125 L 131.5 129 L 112.5 135 L 103 132.5 L 121.5 129 L 143 117 L 154 103.5 L 159 92 L 161 91.5 L 160 89.5 L 164 76.5 L 164 74.5 L 164.5 61 Z M 159 97 L 157 100 L 159 99 L 159 97 Z " /><path fill="rgb(91,91,61)" stroke="rgb(91,91,61)" stroke-width="1" opacity="0.996078431372549" d="M 149.5 63 L 152 63.5 L 149.5 64 L 149.5 63 Z " /><path fill="rgb(91,91,61)" stroke="rgb(91,91,61)" stroke-width="1" opacity="0.996078431372549" d="M 85.5 68 L 91 70 L 90.5 73 L 90 71 L 88 71.5 L 89 73.5 L 88 73.5 L 87 71.5 L 87.5 70 L 85.5 68 Z " /><path fill="rgb(91,91,61)" stroke="rgb(91,91,61)" stroke-width="1" opacity="0.996078431372549" d="M 152.5 69 L 153.5 71 L 152.5 69 Z " /><path fill="rgb(91,91,61)" stroke="rgb(91,91,61)" stroke-width="1" opacity="0.996078431372549" d="M 102.5 71 L 103 75 L 100 74.5 L 102 74 L 102.5 71 Z " /><path fill="rgb(91,91,61)" stroke="rgb(91,91,61)" stroke-width="1" opacity="0.996078431372549" d="M 112.5 72 Q 114.8 71.3 114 73.5 L 116 79.5 L 114 78.5 L 114 76.5 L 112.5 72 Z " /><path fill="rgb(91,91,61)" stroke="rgb(91,91,61)" stroke-width="1" opacity="0.996078431372549" d="M 55.5 75 L 54.5 77 Q 50 76 49 78.5 Q 52 81.5 52 87.5 L 51 87.5 L 48 77 L 55.5 75 Z " /><path fill="rgb(91,91,61)" stroke="rgb(91,91,61)" stroke-width="1" opacity="0.996078431372549" d="M 87.5 75 L 90 75.5 L 86.5 82 L 86 80.5 L 87.5 75 Z " /><path fill="rgb(91,91,61)" stroke="rgb(91,91,61)" stroke-width="1" opacity="0.996078431372549" d="M 99.5 76 L 100.5 78 L 99.5 76 Z " /><path fill="rgb(91,91,61)" stroke="rgb(91,91,61)" stroke-width="1" opacity="0.996078431372549" d="M 102.5 77 L 103 80.5 L 102 80.5 L 102.5 77 Z " /><path fill="rgb(91,91,61)" stroke="rgb(91,91,61)" stroke-width="1" opacity="0.996078431372549" d="M 146.5 78 L 148 78.5 L 145.5 80 L 146.5 78 Z " /><path fill="rgb(91,91,61)" stroke="rgb(91,91,61)" stroke-width="1" opacity="0.996078431372549" d="M 56.5 79 L 57 81 Q 53.7 79.9 55 84 L 57 84.5 L 53.5 86 Q 55.1 84.3 52 82.5 L 53.5 81 L 56.5 79 Z " /><path fill="rgb(91,91,61)" stroke="rgb(91,91,61)" stroke-width="1" opacity="0.996078431372549" d="M 99 79 Q 102 78 101 81 Q 98 82 99 79 Z " /><path fill="rgb(91,91,61)" stroke="rgb(91,91,61)" stroke-width="1" opacity="0.996078431372549" d="M 116 81 L 121 82.5 L 119.5 83 L 117.5 82 L 116 82.5 L 116 81 Z " /><path fill="rgb(91,91,61)" stroke="rgb(91,91,61)" stroke-width="1" opacity="0.996078431372549" d="M 125 81 L 129 82.5 L 127.5 82 L 125.5 83 L 125 81 Z " /><path fill="rgb(91,91,61)" stroke="rgb(91,91,61)" stroke-width="1" opacity="0.996078431372549" d="M 144.5 81 L 146 81.5 L 144 82 Q 145.3 85.7 139.5 84 L 139.5 83 L 144.5 81 Z " /><path fill="rgb(91,91,61)" stroke="rgb(91,91,61)" stroke-width="1" opacity="0.996078431372549" d="M 84.5 82 L 85.5 84 L 82 83.5 L 84.5 82 Z " /><path fill="rgb(91,91,61)" stroke="rgb(91,91,61)" stroke-width="1" opacity="0.996078431372549" d="M 134.5 82 L 133.5 84 L 134.5 82 Z " /><path fill="rgb(91,91,61)" stroke="rgb(91,91,61)" stroke-width="1" opacity="0.996078431372549" d="M 136 82 Q 139 81 138 84 Q 135 85 136 82 Z " /><path fill="rgb(91,91,61)" stroke="rgb(91,91,61)" stroke-width="1" opacity="0.996078431372549" d="M 59 85 L 61 85.5 L 58 87.5 L 59 85 Z " /><path fill="rgb(91,91,61)" stroke="rgb(91,91,61)" stroke-width="1" opacity="0.996078431372549" d="M 54.5 87 L 55.5 89 L 53 90.5 L 58 101 L 60.5 101 L 68 95.5 Q 69.1 92.2 66.5 93 L 61 90.5 L 62.5 90 L 63.5 91 L 72 91.5 Q 68.5 92 69 96.5 L 71 99.5 L 68.5 98 Q 64.1 96.5 65 99.5 Q 63 103.2 61 101.5 L 62 104.5 L 56 99.5 L 52 92.5 L 52 89 Q 54.8 90 54.5 87 Z " /><path fill="rgb(91,91,61)" stroke="rgb(91,91,61)" stroke-width="1" opacity="0.996078431372549" d="M 100 87 L 103 87.5 L 100 89 L 100 87 Z " /><path fill="rgb(91,91,61)" stroke="rgb(91,91,61)" stroke-width="1" opacity="0.996078431372549" d="M 129 91 L 131.5 92 L 133.5 91 L 135.5 91 L 141 91.5 L 135 92.5 L 139 93.5 L 136 98.5 L 137 100.5 L 132 103.5 L 140 107 Q 141.5 110.7 138.5 110 L 132.5 115 L 129 115.5 Q 131.3 116.8 128.5 118 L 120.5 121 L 118 120 L 116.5 123 L 107.5 122 L 105.5 123 L 104 122.5 L 102.5 125 L 96.5 122 L 85.5 122 L 84 120.5 L 86.5 114 L 87 115.5 L 86 119 L 90 117.5 Q 89.3 112.8 92.5 112 Q 97 111 98 113.5 L 99 116.5 L 98 119 L 94 117.5 L 98 116.5 L 92 114 Q 93 118.3 90 119.5 L 93 121 L 93.5 119 L 94 121 L 97.5 120 L 103 122 L 103.5 115 L 105 122 L 110 120.5 L 109.5 119 L 112.5 121 L 114.5 121 L 116 121 Q 114.5 117.3 117.5 118 L 120 119 L 116.5 112 Q 113.7 113.3 116 114.5 L 117 116.5 L 115 117 L 114 113.5 L 115 111 Q 118.7 109.5 118 112.5 L 121 119 Q 125.9 119.1 128 115.5 L 126.5 113 L 129.5 114 L 131 113.5 L 129 109.5 L 129.5 108 L 132.5 113 L 138 108.5 L 136.5 106 L 131.5 105 L 131 107 L 127 106.5 L 131 100.5 L 129 100.5 L 131.5 97 L 135 99 L 137 94.5 L 135 94 L 133.5 97 L 134 93.5 Q 134.8 91.3 132.5 92 L 129 93 L 129 91 Z M 136 99 L 133 101 L 136 101 L 136 99 Z " /><path fill="rgb(91,91,61)" stroke="rgb(91,91,61)" stroke-width="1" opacity="0.996078431372549" d="M 67.5 99 L 73.5 103 L 75 103.5 L 72.5 107 L 71 107.5 Q 73.3 108.8 70.5 110 L 69 110.5 L 70.5 113 Q 68.3 113.8 69 111.5 L 67.5 112 L 62 106.5 L 65 105 L 64 102.5 L 65.5 103 L 67.5 104 L 69 101.5 L 66 100.5 L 67.5 99 Z M 71 103 L 64 107 L 69 110 L 73 105 L 71 103 Z " /><path fill="rgb(91,91,61)" stroke="rgb(91,91,61)" stroke-width="1" opacity="0.996078431372549" d="M 77.5 103 L 79.5 104 L 80.5 103 L 119.5 103 L 119.5 104 L 100.5 104 L 98.5 105 L 96.5 105 L 79.5 105 L 77.5 103 Z " /><path fill="rgb(91,91,61)" stroke="rgb(91,91,61)" stroke-width="1" opacity="0.996078431372549" d="M 76.5 105 L 76 106.5 L 74 114 L 77 112.5 L 80.5 108 Q 82.8 107.3 82 109.5 Q 84 107.8 86 111.5 L 84 112 L 83.5 110 L 83 112 L 80.5 113 L 81.5 110 L 78 111.5 L 78.5 113 L 77 113.5 L 77.5 115 L 76 114.5 L 74.5 117 L 72 116 L 73 111.5 L 72.5 110 Q 73.8 112.3 75 109.5 L 75 107.5 L 76.5 105 Z " /><path fill="rgb(91,91,61)" stroke="rgb(91,91,61)" stroke-width="1" opacity="0.996078431372549" d="M 103.5 105 L 123.5 105 L 124 106.5 L 123 108.5 L 123.5 111 L 126.5 110 L 125.5 112 Q 121.1 113.5 122 110.5 L 121 108.5 Q 123.3 107.3 120.5 106 L 103.5 106 L 103.5 105 Z " /><path fill="rgb(91,91,61)" stroke="rgb(91,91,61)" stroke-width="1" opacity="0.996078431372549" d="M 82.5 116 L 81.5 118 L 79 117.5 L 82.5 116 Z " /><path fill="rgb(91,91,61)" stroke="rgb(91,91,61)" stroke-width="1" opacity="0.996078431372549" d="M 107.5 116 L 108 118.5 L 107 118.5 L 107.5 116 Z " /><path fill="rgb(91,91,61)" stroke="rgb(91,91,61)" stroke-width="1" opacity="0.996078431372549" d="M 69 124 Q 72 123 71 126 Q 68 127 69 124 Z " /><path fill="rgb(91,91,61)" stroke="rgb(91,91,61)" stroke-width="1" opacity="0.996078431372549" d="M 77.5 128 L 82 129 Q 83.1 131.7 80.5 131 L 77.5 128 Z " /><path fill="rgb(91,91,61)" stroke="rgb(91,91,61)" stroke-width="1" opacity="0.996078431372549" d="M 84.5 130 L 93 132.5 L 88.5 134 L 84.5 130 Z " /><path fill="rgb(91,91,61)" stroke="rgb(91,91,61)" stroke-width="1" opacity="0.996078431372549" d="M 95 132 Q 98 131 97 134 Q 94 135 95 132 Z " /><path fill="rgb(39,42,30)" stroke="rgb(39,42,30)" stroke-width="1" opacity="0.9882352941176471" d="M 93.5 2 L 110.5 2 L 128.5 7 Q 141.7 12.8 151 22.5 Q 159.7 31.3 165 43.5 L 170 61.5 L 170 79.5 Q 164.7 106.2 147.5 121 Q 137.5 130 123.5 135 L 110.5 138 L 93.5 138 L 75.5 133 L 64.5 127 L 53 118 L 45 107.5 L 38 93.5 L 34 78.5 L 34 61.5 L 37.5 49 L 38 51.5 L 36 57.5 L 35 67.5 L 36 68.5 L 36 76 L 40 73.5 Q 41.5 68 39 66.5 L 41 55.5 L 49 36.5 L 64.5 20 Q 78.3 9.3 100.5 7 L 103.5 8 L 105.5 8 L 119.5 9 L 123.5 11 L 124 8.5 Q 124.8 6.3 122.5 7 L 109.5 3 L 93.5 3 L 93.5 2 Z M 102 9 L 101 10 L 91 10 L 81 13 L 66 21 Q 54 30 47 44 L 43 55 L 42 66 L 41 67 L 43 84 L 51 103 L 55 106 L 48 94 L 44 80 L 44 62 L 47 51 L 49 52 L 47 58 L 48 63 L 46 63 L 46 68 Q 50 69 48 75 L 55 76 L 48 77 L 51 88 L 54 89 L 52 89 L 52 93 L 56 100 L 62 105 L 64 103 Q 66 104 65 101 L 69 103 Q 68 105 67 103 Q 64 102 65 105 L 62 107 L 68 112 L 70 110 L 69 112 Q 68 114 71 113 L 73 109 L 75 110 Q 71 111 72 116 L 75 117 L 78 113 L 77 115 Q 76 118 79 117 L 82 112 L 84 114 L 83 116 L 79 118 L 84 118 L 85 118 L 84 121 L 86 122 L 97 122 L 103 125 L 104 123 L 106 123 L 108 122 L 117 123 L 118 120 L 121 121 L 129 118 L 130 117 L 126 113 Q 127 110 124 111 L 123 109 L 124 105 L 100 105 L 128 103 L 131 101 L 127 107 L 130 108 L 129 110 L 130 111 L 128 109 L 125 107 L 130 115 L 133 115 L 139 110 Q 141 111 140 107 L 137 105 L 134 105 L 133 103 L 137 103 Q 137 107 143 106 L 144 104 L 148 101 Q 150 100 148 99 L 152 95 Q 152 88 156 86 L 156 82 L 154 87 L 152 88 L 148 86 L 146 87 L 147 85 Q 150 84 149 87 L 152 87 L 157 79 Q 156 74 158 73 L 156 69 L 158 69 L 157 68 L 156 55 L 154 50 L 144 34 Q 145 31 143 32 L 140 29 Q 132 21 122 17 L 106 14 L 106 16 L 102 15 L 90 15 Q 87 18 81 17 L 69 24 L 67 25 L 74 19 L 84 16 L 86 14 L 95 12 L 106 12 L 107 11 Q 110 14 118 13 L 129 18 L 131 18 L 116 11 L 102 9 Z M 125 9 L 124 12 L 132 14 L 131 10 Q 128 9 129 12 L 128 12 Q 129 7 125 9 Z M 136 16 L 139 19 L 139 17 L 136 16 Z M 132 18 L 133 20 L 134 20 L 132 18 Z M 135 20 L 137 23 L 138 23 L 135 20 Z M 146 21 L 144 23 L 147 26 Q 151 25 149 30 L 153 30 L 149 23 L 146 21 Z M 139 23 L 140 25 L 141 25 L 139 23 Z M 143 26 L 142 28 L 147 31 L 143 26 Z M 155 31 Q 153 34 156 33 L 155 31 Z M 148 32 L 149 34 Q 150 31 148 32 Z M 155 41 L 155 46 L 157 46 L 155 41 Z M 158 48 L 157 52 L 160 62 L 161 62 L 161 58 L 158 48 Z M 162 48 Q 159 52 163 51 L 162 48 Z M 164 51 L 164 54 L 165 54 Q 166 50 164 51 Z M 163 55 L 165 60 L 166 58 L 164 58 Q 165 54 163 55 Z M 165 61 L 164 75 L 164 77 L 158 97 L 152 107 L 143 116 L 143 117 L 122 129 L 103 133 L 113 135 L 132 129 L 136 125 Q 139 126 138 124 L 146 119 L 147 117 L 150 115 L 159 103 Q 158 99 161 100 L 161 97 L 164 91 Q 163 86 166 87 L 165 85 L 167 82 Q 165 75 168 74 Q 169 71 166 72 L 165 70 L 167 66 L 165 61 Z M 160 64 L 159 83 L 155 95 L 149 105 Q 136 123 111 128 L 92 128 L 79 124 L 74 121 L 72 122 L 83 127 L 96 130 L 108 130 L 119 128 L 139 118 Q 158 104 162 75 L 162 73 L 162 65 L 160 64 Z M 38 76 L 38 78 L 40 79 Q 41 75 38 76 Z M 56 106 L 55 108 L 58 110 L 56 106 Z M 59 110 L 66 118 Q 68 119 67 116 L 59 110 Z M 68 118 L 69 120 L 70 120 L 68 118 Z M 69 124 Q 68 127 71 126 Q 72 123 69 124 Z M 78 128 L 81 131 Q 83 132 82 129 L 78 128 Z M 87 131 L 89 134 L 93 133 L 87 131 Z M 95 132 Q 94 135 97 134 Q 98 131 95 132 Z " /><path fill="rgb(39,42,30)" stroke="rgb(39,42,30)" stroke-width="1" opacity="0.9882352941176471" d="M 88.5 3 L 92 3.5 L 88.5 4 L 88.5 3 Z " /><path fill="rgb(39,42,30)" stroke="rgb(39,42,30)" stroke-width="1" opacity="0.9882352941176471" d="M 84.5 4 L 87 4.5 L 84.5 5 L 84.5 4 Z " /><path fill="rgb(39,42,30)" stroke="rgb(39,42,30)" stroke-width="1" opacity="0.9882352941176471" d="M 75.5 7 L 77 7.5 L 73.5 9 L 73.5 8 L 75.5 7 Z " /><path fill="rgb(39,42,30)" stroke="rgb(39,42,30)" stroke-width="1" opacity="0.9882352941176471" d="M 69.5 10 L 68.5 12 L 69.5 10 Z " /><path fill="rgb(39,42,30)" stroke="rgb(39,42,30)" stroke-width="1" opacity="0.9882352941176471" d="M 64.5 13 L 63.5 15 L 64.5 13 Z " /><path fill="rgb(39,42,30)" stroke="rgb(39,42,30)" stroke-width="1" opacity="0.9882352941176471" d="M 61.5 15 L 57.5 20 L 61.5 15 Z " /><path fill="rgb(39,42,30)" stroke="rgb(39,42,30)" stroke-width="1" opacity="0.9882352941176471" d="M 86.5 17 L 89 18.5 L 87.5 18 L 86.5 17 Z " /><path fill="rgb(39,42,30)" stroke="rgb(39,42,30)" stroke-width="1" opacity="0.9882352941176471" d="M 104.5 17 L 107 18.5 L 103.5 19 L 104.5 17 Z " /><path fill="rgb(39,42,30)" stroke="rgb(39,42,30)" stroke-width="1" opacity="0.9882352941176471" d="M 90.5 19 L 93 20.5 L 91.5 21 L 90.5 19 Z " /><path fill="rgb(39,42,30)" stroke="rgb(39,42,30)" stroke-width="1" opacity="0.9882352941176471" d="M 88.5 22 L 93 24.5 L 91.5 25 L 88.5 22 Z " /><path fill="rgb(39,42,30)" stroke="rgb(39,42,30)" stroke-width="1" opacity="0.9882352941176471" d="M 120.5 22 L 122 22.5 L 119.5 24 L 120.5 22 Z " /><path fill="rgb(39,42,30)" stroke="rgb(39,42,30)" stroke-width="1" opacity="0.9882352941176471" d="M 73.5 23 Q 77.3 22.3 78 24.5 L 77 26.5 L 79 27 L 80 30.5 L 78 31.5 L 75 24 L 73.5 23 Z " /><path fill="rgb(39,42,30)" stroke="rgb(39,42,30)" stroke-width="1" opacity="0.9882352941176471" d="M 102.5 24 L 106 25.5 L 103.5 26 L 102.5 24 Z " /><path fill="rgb(39,42,30)" stroke="rgb(39,42,30)" stroke-width="1" opacity="0.9882352941176471" d="M 51.5 25 L 48 29.5 L 44.5 35 L 45 33.5 L 51.5 25 Z " /><path fill="rgb(39,42,30)" stroke="rgb(39,42,30)" stroke-width="1" opacity="0.9882352941176471" d="M 64.5 26 L 66 26.5 L 62 29.5 L 64.5 26 Z " /><path fill="rgb(39,42,30)" stroke="rgb(39,42,30)" stroke-width="1" opacity="0.9882352941176471" d="M 59.5 31 L 61 31.5 L 57 37 L 55 36.5 L 59.5 31 Z " /><path fill="rgb(39,42,30)" stroke="rgb(39,42,30)" stroke-width="1" opacity="0.9882352941176471" d="M 136.5 33 L 139 34.5 L 138.5 36 L 136.5 33 Z " /><path fill="rgb(39,42,30)" stroke="rgb(39,42,30)" stroke-width="1" opacity="0.9882352941176471" d="M 134 35 L 137 36.5 Q 137.8 38.8 135.5 38 L 134 35 Z " /><path fill="rgb(39,42,30)" stroke="rgb(39,42,30)" stroke-width="1" opacity="0.9882352941176471" d="M 43.5 36 L 43 37.5 L 39.5 45 L 39 43.5 L 43.5 36 Z " /><path fill="rgb(39,42,30)" stroke="rgb(39,42,30)" stroke-width="1" opacity="0.9882352941176471" d="M 140.5 37 L 138.5 40 L 140.5 37 Z " /><path fill="rgb(39,42,30)" stroke="rgb(39,42,30)" stroke-width="1" opacity="0.9882352941176471" d="M 54.5 38 Q 56.8 37.3 56 39.5 L 54 39.5 L 52.5 42 L 51 41.5 L 54.5 38 Z " /><path fill="rgb(39,42,30)" stroke="rgb(39,42,30)" stroke-width="1" opacity="0.9882352941176471" d="M 59.5 39 L 59 40.5 L 60.5 43 L 63 43.5 L 60.5 44 L 58 43 L 59.5 39 Z " /><path fill="rgb(39,42,30)" stroke="rgb(39,42,30)" stroke-width="1" opacity="0.9882352941176471" d="M 50 43 Q 52.7 41.9 52 44.5 L 48.5 49 L 48 47.5 L 50 43 Z " /><path fill="rgb(39,42,30)" stroke="rgb(39,42,30)" stroke-width="1" opacity="0.9882352941176471" d="M 144.5 43 Q 147.8 41.9 147 44.5 Q 149.8 46.3 145.5 48 L 146 46.5 Q 146.8 43.9 143.5 45 L 142 45.5 L 144.5 43 Z " /><path fill="rgb(39,42,30)" stroke="rgb(39,42,30)" stroke-width="1" opacity="0.9882352941176471" d="M 108 45 L 111 45.5 L 108 47 L 108 45 Z " /><path fill="rgb(39,42,30)" stroke="rgb(39,42,30)" stroke-width="1" opacity="0.9882352941176471" d="M 142.5 50 L 144.5 51 L 146.5 50 L 146.5 51 L 143.5 52 L 142.5 50 Z " /><path fill="rgb(39,42,30)" stroke="rgb(39,42,30)" stroke-width="1" opacity="0.9882352941176471" d="M 55.5 53 L 58 54.5 L 56.5 54 L 55.5 53 Z " /><path fill="rgb(39,42,30)" stroke="rgb(39,42,30)" stroke-width="1" opacity="0.9882352941176471" d="M 112.5 55 L 113 56.5 L 111 57.5 L 112.5 55 Z " /><path fill="rgb(39,42,30)" stroke="rgb(39,42,30)" stroke-width="1" opacity="0.9882352941176471" d="M 147.5 56 Q 149.8 55.3 149 57.5 L 146 59.5 L 145 57.5 L 147.5 56 Z " /><path fill="rgb(39,42,30)" stroke="rgb(39,42,30)" stroke-width="1" opacity="0.9882352941176471" d="M 151.5 57 L 152 60 L 149.5 61 L 150 59.5 L 151.5 57 Z " /><path fill="rgb(39,42,30)" stroke="rgb(39,42,30)" stroke-width="1" opacity="0.9882352941176471" d="M 50 59 Q 53 58 52 61 Q 49 62 50 59 Z " /><path fill="rgb(39,42,30)" stroke="rgb(39,42,30)" stroke-width="1" opacity="0.9882352941176471" d="M 148.5 62 L 153 62.5 L 146.5 64 L 146.5 63 L 148.5 62 Z " /><path fill="rgb(39,42,30)" stroke="rgb(39,42,30)" stroke-width="1" opacity="0.9882352941176471" d="M 50.5 63 L 54 63.5 L 50.5 64 L 50.5 63 Z " /><path fill="rgb(39,42,30)" stroke="rgb(39,42,30)" stroke-width="1" opacity="0.9882352941176471" d="M 114.5 69 L 114 70.5 Q 114.7 73.1 112 72 Q 110.9 69.3 113.5 70 L 114.5 69 Z " /><path fill="rgb(39,42,30)" stroke="rgb(39,42,30)" stroke-width="1" opacity="0.9882352941176471" d="M 149.5 69 Q 153.5 68.5 154 71.5 L 150.5 74 L 150.5 73 Q 152.8 73.8 152 71.5 L 149.5 70 L 148 70.5 L 149.5 69 Z " /><path fill="rgb(39,42,30)" stroke="rgb(39,42,30)" stroke-width="1" opacity="0.9882352941176471" d="M 49 70 Q 52.3 68.9 51 73 Q 47.7 74.1 49 70 Z " /><path fill="rgb(39,42,30)" stroke="rgb(39,42,30)" stroke-width="1" opacity="0.9882352941176471" d="M 87.5 70 L 90 71 Q 91 74.8 88.5 76 L 88 74.5 L 89 72.5 L 87.5 70 Z " /><path fill="rgb(39,42,30)" stroke="rgb(39,42,30)" stroke-width="1" opacity="0.9882352941176471" d="M 154.5 74 L 152.5 77 Q 148 78 147 75.5 L 148.5 75 L 151.5 76 L 154.5 74 Z " /><path fill="rgb(39,42,30)" stroke="rgb(39,42,30)" stroke-width="1" opacity="0.9882352941176471" d="M 100 75 Q 104.1 73.7 103 77 Q 98.9 78.3 100 75 Z " /><path fill="rgb(39,42,30)" stroke="rgb(39,42,30)" stroke-width="1" opacity="0.9882352941176471" d="M 55.5 81 L 57 84 Q 53.5 85.1 55.5 81 Z " /><path fill="rgb(39,42,30)" stroke="rgb(39,42,30)" stroke-width="1" opacity="0.9882352941176471" d="M 128.5 81 L 130 81.5 L 126.5 83 L 126.5 82 L 128.5 81 Z " /><path fill="rgb(39,42,30)" stroke="rgb(39,42,30)" stroke-width="1" opacity="0.9882352941176471" d="M 51.5 82 Q 56 84 52.5 86 Q 50 85 51.5 82 Z " /><path fill="rgb(39,42,30)" stroke="rgb(39,42,30)" stroke-width="1" opacity="0.9882352941176471" d="M 135.5 82 L 136 84 L 134 83.5 L 135.5 82 Z " /><path fill="rgb(39,42,30)" stroke="rgb(39,42,30)" stroke-width="1" opacity="0.9882352941176471" d="M 144 82 L 147 82.5 L 144 84 L 144 82 Z " /><path fill="rgb(39,42,30)" stroke="rgb(39,42,30)" stroke-width="1" opacity="0.9882352941176471" d="M 149.5 83 L 152 83.5 Q 149.9 86.8 149.5 83 Z " /><path fill="rgb(39,42,30)" stroke="rgb(39,42,30)" stroke-width="1" opacity="0.9882352941176471" d="M 57.5 86 L 59 86.5 L 55.5 88 L 55.5 87 L 57.5 86 Z " /><path fill="rgb(39,42,30)" stroke="rgb(39,42,30)" stroke-width="1" opacity="0.9882352941176471" d="M 141.5 91 L 143 91.5 Q 141.5 94.5 135.5 93 L 135.5 92 Q 140.3 93.3 141.5 91 Z " /><path fill="rgb(39,42,30)" stroke="rgb(39,42,30)" stroke-width="1" opacity="0.9882352941176471" d="M 133.5 95 L 133 96.5 L 132.5 98 L 132 96.5 L 133.5 95 Z " /><path fill="rgb(39,42,30)" stroke="rgb(39,42,30)" stroke-width="1" opacity="0.9882352941176471" d="M 67.5 98 L 71 100.5 L 70.5 102 L 67.5 98 Z " /><path fill="rgb(39,42,30)" stroke="rgb(39,42,30)" stroke-width="1" opacity="0.9882352941176471" d="M 63.5 99 L 61.5 102 L 63.5 99 Z " /><path fill="rgb(39,42,30)" stroke="rgb(39,42,30)" stroke-width="1" opacity="0.9882352941176471" d="M 135.5 99 L 136 101 L 133 100.5 L 135.5 99 Z " /><path fill="rgb(39,42,30)" stroke="rgb(39,42,30)" stroke-width="1" opacity="0.9882352941176471" d="M 79.5 103 L 78.5 105 L 74 106 Q 72.7 102.3 78.5 104 L 79.5 103 Z " /><path fill="rgb(39,42,30)" stroke="rgb(39,42,30)" stroke-width="1" opacity="0.9882352941176471" d="M 82.5 109 L 83.5 111 L 82.5 109 Z " /><path fill="rgb(39,42,30)" stroke="rgb(39,42,30)" stroke-width="1" opacity="0.9882352941176471" d="M 94 115 L 98 116.5 L 94 117 L 94 115 Z " /><path fill="rgb(39,42,30)" stroke="rgb(39,42,30)" stroke-width="1" opacity="0.9882352941176471" d="M 94 118 L 98 119.5 L 94 121 L 94 118 Z " /><path fill="rgb(39,42,30)" stroke="rgb(39,42,30)" stroke-width="1" opacity="0.9882352941176471" d="M 107 119 L 110 120.5 L 107 121 L 107 119 Z " /><path fill="rgb(241,229,178)" stroke="rgb(241,229,178)" stroke-width="1" opacity="1" d="M 66.5 21 L 67 22.5 L 65 23.5 L 66.5 21 Z " /><path fill="rgb(241,229,178)" stroke="rgb(241,229,178)" stroke-width="1" opacity="1" d="M 63.5 24 L 62.5 26 L 63.5 24 Z " /><path fill="rgb(241,229,178)" stroke="rgb(241,229,178)" stroke-width="1" opacity="1" d="M 74.5 26 L 75.5 28 Q 72.7 28.7 74.5 26 Z " /><path fill="rgb(241,229,178)" stroke="rgb(241,229,178)" stroke-width="1" opacity="1" d="M 85.5 32 Q 92 31 94 34.5 L 92 37.5 L 95 41.5 Q 93.5 44.5 92 41.5 L 89.5 37 Q 86.5 36.1 88 40.5 L 87 40.5 L 83.5 35 L 81 34.5 L 85.5 32 Z " /><path fill="rgb(241,229,178)" stroke="rgb(241,229,178)" stroke-width="1" opacity="1" d="M 66.5 33 L 68.5 36 L 66.5 33 Z " /><path fill="rgb(241,229,178)" stroke="rgb(241,229,178)" stroke-width="1" opacity="1" d="M 133.5 34 L 132.5 36 L 133.5 34 Z " /><path fill="rgb(241,229,178)" stroke="rgb(241,229,178)" stroke-width="1" opacity="1" d="M 98.5 36 L 103 36.5 L 103 38.5 L 104 40.5 L 102.5 41 L 100.5 37 Q 97.5 37.5 98.5 36 Z " /><path fill="rgb(241,229,178)" stroke="rgb(241,229,178)" stroke-width="1" opacity="1" d="M 116.5 38 L 116 39.5 L 115.5 41 L 115 39.5 L 116.5 38 Z " /><path fill="rgb(241,229,178)" stroke="rgb(241,229,178)" stroke-width="1" opacity="1" d="M 120.5 38 L 123 38.5 L 120.5 39 L 120.5 38 Z " /><path fill="rgb(241,229,178)" stroke="rgb(241,229,178)" stroke-width="1" opacity="1" d="M 77.5 39 L 76.5 41 L 77.5 39 Z " /><path fill="rgb(241,229,178)" stroke="rgb(241,229,178)" stroke-width="1" opacity="1" d="M 98.5 39 L 99 41.5 L 95.5 46 L 94.5 44 Q 96.3 46.8 98 42.5 Q 98.8 40.3 96.5 41 L 96.5 40 L 98.5 39 Z " /><path fill="rgb(241,229,178)" stroke="rgb(241,229,178)" stroke-width="1" opacity="1" d="M 117.5 40 L 121 40.5 L 117.5 41 L 117.5 40 Z " /><path fill="rgb(241,229,178)" stroke="rgb(241,229,178)" stroke-width="1" opacity="1" d="M 122.5 41 L 123.5 43 L 122.5 41 Z " /><path fill="rgb(241,229,178)" stroke="rgb(241,229,178)" stroke-width="1" opacity="1" d="M 80 42 L 83 42.5 L 80 44 L 80 42 Z " /><path fill="rgb(241,229,178)" stroke="rgb(241,229,178)" stroke-width="1" opacity="1" d="M 106.5 45 L 107 47.5 L 106 47.5 L 106.5 45 Z " /><path fill="rgb(241,229,178)" stroke="rgb(241,229,178)" stroke-width="1" opacity="1" d="M 115.5 45 L 115 46.5 L 112.5 51 Q 109.5 49.5 112.5 48 Q 114.8 48.8 114 46.5 L 115.5 45 Z " /><path fill="rgb(241,229,178)" stroke="rgb(241,229,178)" stroke-width="1" opacity="1" d="M 111.5 46 L 110.5 48 L 111.5 46 Z " /><path fill="rgb(241,229,178)" stroke="rgb(241,229,178)" stroke-width="1" opacity="1" d="M 147.5 47 L 146.5 49 L 147.5 47 Z " /><path fill="rgb(241,229,178)" stroke="rgb(241,229,178)" stroke-width="1" opacity="1" d="M 100 48 L 106 50.5 Q 104 53.8 99 53 L 100 48 Z " /><path fill="rgb(241,229,178)" stroke="rgb(241,229,178)" stroke-width="1" opacity="1" d="M 127.5 49 L 128 57.5 L 127 57.5 L 127.5 49 Z " /><path fill="rgb(241,229,178)" stroke="rgb(241,229,178)" stroke-width="1" opacity="1" d="M 75 50 Q 77.7 48.9 77 51.5 L 78.5 55 L 79.5 53 Q 81 56.5 82.5 54 L 85 54 Q 83.9 56.7 86.5 56 L 86.5 54 L 90.5 53 L 92.5 57 L 97.5 55 L 99.5 55 L 101 55.5 L 93.5 59 L 88.5 55 L 88.5 57 L 87 56.5 L 87 58 Q 90.7 56.5 90 59.5 L 88.5 59 L 84.5 56 L 82.5 56 L 79 56.5 Q 81.1 60.1 86 60 Q 87.1 62.7 84.5 62 Q 78.7 60.7 76.5 56 L 75 56.5 L 74 52.5 L 75 50 Z " /><path fill="rgb(241,229,178)" stroke="rgb(241,229,178)" stroke-width="1" opacity="1" d="M 122.5 50 L 123 52 L 121 51.5 L 122.5 50 Z " /><path fill="rgb(241,229,178)" stroke="rgb(241,229,178)" stroke-width="1" opacity="1" d="M 109.5 51 L 111 53.5 L 110 53.5 L 109.5 51 Z " /><path fill="rgb(241,229,178)" stroke="rgb(241,229,178)" stroke-width="1" opacity="1" d="M 105.5 54 L 107 57 L 109.5 56 L 110 57.5 L 108 62 Q 102.8 63.8 105 56.5 Q 102.8 55.2 105.5 54 Z " /><path fill="rgb(241,229,178)" stroke="rgb(241,229,178)" stroke-width="1" opacity="1" d="M 150.5 56 L 149.5 58 L 150.5 56 Z " /><path fill="rgb(241,229,178)" stroke="rgb(241,229,178)" stroke-width="1" opacity="1" d="M 126.5 59 L 127 60.5 L 126 62.5 L 127 64.5 L 125 63.5 L 126.5 59 Z " /><path fill="rgb(241,229,178)" stroke="rgb(241,229,178)" stroke-width="1" opacity="1" d="M 85 63 L 89 64.5 L 86.5 66 L 85 63 Z " /><path fill="rgb(241,229,178)" stroke="rgb(241,229,178)" stroke-width="1" opacity="1" d="M 121.5 63 L 122 64.5 L 120 65.5 L 121.5 63 Z " /><path fill="rgb(241,229,178)" stroke="rgb(241,229,178)" stroke-width="1" opacity="1" d="M 81.5 66 Q 83.8 65.3 83 67.5 L 86 71.5 L 84 70.5 L 81.5 66 Z " /><path fill="rgb(241,229,178)" stroke="rgb(241,229,178)" stroke-width="1" opacity="1" d="M 107.5 66 L 108.5 68 L 106 67.5 L 107.5 66 Z " /><path fill="rgb(241,229,178)" stroke="rgb(241,229,178)" stroke-width="1" opacity="1" d="M 113.5 66 L 114.5 68 L 113.5 66 Z " /><path fill="rgb(241,229,178)" stroke="rgb(241,229,178)" stroke-width="1" opacity="1" d="M 96.5 68 L 99 73.5 L 97.5 77 Q 97.8 71.8 95 69.5 L 96.5 68 Z " /><path fill="rgb(241,229,178)" stroke="rgb(241,229,178)" stroke-width="1" opacity="1" d="M 92.5 69 L 93.5 71 L 92.5 69 Z " /><path fill="rgb(241,229,178)" stroke="rgb(241,229,178)" stroke-width="1" opacity="1" d="M 105.5 69 L 108 70.5 L 109 74.5 L 108 74.5 L 107 70 L 105.5 69 Z " /><path fill="rgb(241,229,178)" stroke="rgb(241,229,178)" stroke-width="1" opacity="1" d="M 124.5 69 Q 127.3 70.3 125 71.5 L 124.5 73 L 124.5 69 Z " /><path fill="rgb(241,229,178)" stroke="rgb(241,229,178)" stroke-width="1" opacity="1" d="M 91.5 71 L 93 74.5 L 89.5 82 L 88.5 80 L 90 80.5 L 89 78.5 L 91 78.5 L 90 75.5 L 92 74.5 L 91.5 71 Z " /><path fill="rgb(241,229,178)" stroke="rgb(241,229,178)" stroke-width="1" opacity="1" d="M 123.5 78 L 124 80.5 L 123 80.5 L 123.5 78 Z " /><path fill="rgb(241,229,178)" stroke="rgb(241,229,178)" stroke-width="1" opacity="1" d="M 84.5 84 L 87 84.5 L 84.5 85 L 84.5 84 Z " /><path fill="rgb(241,229,178)" stroke="rgb(241,229,178)" stroke-width="1" opacity="1" d="M 112.5 84 L 111.5 86 L 112.5 84 Z " /><path fill="rgb(241,229,178)" stroke="rgb(241,229,178)" stroke-width="1" opacity="1" d="M 130.5 84 L 133 85.5 L 132.5 87 L 137.5 86 L 139.5 87 Q 140.8 84.7 142 87.5 L 141.5 90 L 141 88 L 130.5 88 L 128 90.5 L 127.5 92 L 125 89.5 L 125 87.5 L 125.5 86 L 126.5 88 L 128.5 85 Q 130.2 88.8 132 85.5 L 130.5 84 Z " /><path fill="rgb(241,229,178)" stroke="rgb(241,229,178)" stroke-width="1" opacity="1" d="M 135.5 84 L 143 84.5 L 135.5 85 L 135.5 84 Z " /><path fill="rgb(241,229,178)" stroke="rgb(241,229,178)" stroke-width="1" opacity="1" d="M 72.5 85 L 75.5 86 L 78 85 Q 79.3 88.7 73.5 87 L 73.5 89 L 71.5 90 L 62 88 L 62.5 86 Q 63.8 88.3 68.5 87 L 72.5 85 Z " /><path fill="rgb(241,229,178)" stroke="rgb(241,229,178)" stroke-width="1" opacity="1" d="M 81.5 85 L 82.5 87 L 79 86.5 L 81.5 85 Z " /><path fill="rgb(241,229,178)" stroke="rgb(241,229,178)" stroke-width="1" opacity="1" d="M 100.5 85 L 103 85.5 L 100.5 86 L 100.5 85 Z " /><path fill="rgb(241,229,178)" stroke="rgb(241,229,178)" stroke-width="1" opacity="1" d="M 107.5 85 L 106.5 87 L 107.5 85 Z " /><path fill="rgb(241,229,178)" stroke="rgb(241,229,178)" stroke-width="1" opacity="1" d="M 87.5 86 L 91 86.5 L 87.5 87 L 87.5 86 Z " /><path fill="rgb(241,229,178)" stroke="rgb(241,229,178)" stroke-width="1" opacity="1" d="M 120.5 86 L 124 86.5 L 120.5 87 L 120.5 86 Z " /><path fill="rgb(241,229,178)" stroke="rgb(241,229,178)" stroke-width="1" opacity="1" d="M 99.5 89 L 102 89.5 L 99.5 90 L 99.5 89 Z " /><path fill="rgb(241,229,178)" stroke="rgb(241,229,178)" stroke-width="1" opacity="1" d="M 75 92 L 78.5 93 L 79.5 92 L 121.5 92 L 120.5 94 L 113.5 93 L 112.5 94 L 77.5 94 L 75 93.5 L 75 92 Z " /><path fill="rgb(241,229,178)" stroke="rgb(241,229,178)" stroke-width="1" opacity="1" d="M 132.5 93 L 133 94.5 L 127.5 102 L 126 101.5 L 132.5 93 Z " /><path fill="rgb(241,229,178)" stroke="rgb(241,229,178)" stroke-width="1" opacity="1" d="M 137.5 102 L 138.5 104 L 137.5 102 Z " /><path fill="rgb(241,229,178)" stroke="rgb(241,229,178)" stroke-width="1" opacity="1" d="M 127.5 110 L 128.5 112 L 127.5 110 Z " /><path fill="rgb(232,215,146)" stroke="rgb(232,215,146)" stroke-width="1" opacity="1" d="M 96.5 20 L 97 22.5 L 96 22.5 L 96.5 20 Z " /><path fill="rgb(232,215,146)" stroke="rgb(232,215,146)" stroke-width="1" opacity="1" d="M 109.5 20 Q 113.3 19.3 114 21.5 L 112 25.5 L 115 29.5 L 114.5 31 Q 117.8 32.1 117 29.5 L 123.5 24 L 126.5 24 L 133 29.5 Q 134.1 32.8 131.5 32 L 128.5 37 L 125.5 35 L 123.5 35 L 115.5 33 Q 114 35.5 112.5 32 L 111 33.5 L 112 35.5 Q 110.8 38.3 109.5 36 L 107.5 36 L 102.5 32 L 95 31 L 96 33.5 L 93 35.5 Q 95.3 34.3 92.5 33 L 85.5 32 L 81 34.5 L 84 35.5 L 76 37 L 77.5 34 L 82 31.5 L 83 27.5 L 80 26 Q 77.9 20.8 82.5 22 L 84 21.5 L 87.5 29 L 90.5 28 L 92 28.5 L 92 27 L 96 27 L 96 25.5 L 100 23 L 101.5 26 L 107.5 28 L 110 21.5 L 109.5 20 Z M 128 27 L 126 29 L 128 30 L 128 27 Z " /><path fill="rgb(232,215,146)" stroke="rgb(232,215,146)" stroke-width="1" opacity="1" d="M 71.5 28 L 75 33.5 L 71.5 35 L 68 30.5 L 71.5 28 Z " /><path fill="rgb(232,215,146)" stroke="rgb(232,215,146)" stroke-width="1" opacity="1" d="M 64.5 36 Q 67.5 37.5 64.5 39 L 62.5 40 L 62 38.5 L 64.5 36 Z " /><path fill="rgb(232,215,146)" stroke="rgb(232,215,146)" stroke-width="1" opacity="1" d="M 97.5 36 L 98.5 38 L 97.5 36 Z " /><path fill="rgb(232,215,146)" stroke="rgb(232,215,146)" stroke-width="1" opacity="1" d="M 142.5 43 L 141.5 45 L 142.5 43 Z " /><path fill="rgb(232,215,146)" stroke="rgb(232,215,146)" stroke-width="1" opacity="1" d="M 134.5 45 Q 137.5 44.1 136 48.5 L 134.5 53 L 133 50.5 L 134.5 48 Q 132.3 48.8 133 46.5 L 134.5 45 Z " /><path fill="rgb(232,215,146)" stroke="rgb(232,215,146)" stroke-width="1" opacity="1" d="M 125.5 49 L 126 53.5 L 125 53.5 L 125.5 49 Z " /><path fill="rgb(232,215,146)" stroke="rgb(232,215,146)" stroke-width="1" opacity="1" d="M 110 50 L 112 50.5 L 110 51.5 L 110 50 Z " /><path fill="rgb(232,215,146)" stroke="rgb(232,215,146)" stroke-width="1" opacity="1" d="M 121.5 50 L 121.5 52 L 123 52.5 L 120 53 L 121.5 50 Z " /><path fill="rgb(232,215,146)" stroke="rgb(232,215,146)" stroke-width="1" opacity="1" d="M 101.5 55 L 105 56.5 Q 103.8 62.6 106.5 62 L 106.5 63 L 104 61.5 Q 106.3 54.2 101 56 Q 102.1 58.7 99.5 58 L 101.5 55 Z " /><path fill="rgb(232,215,146)" stroke="rgb(232,215,146)" stroke-width="1" opacity="1" d="M 115.5 55 L 115 56.5 L 112.5 61 L 112 59.5 L 115.5 55 Z " /><path fill="rgb(232,215,146)" stroke="rgb(232,215,146)" stroke-width="1" opacity="1" d="M 122.5 55 Q 125.1 54.2 124 57.5 L 122.5 57 L 121 56.5 L 122.5 55 Z " /><path fill="rgb(232,215,146)" stroke="rgb(232,215,146)" stroke-width="1" opacity="1" d="M 76.5 56 L 80.5 61 L 76.5 59 L 75 59.5 L 76.5 56 Z " /><path fill="rgb(232,215,146)" stroke="rgb(232,215,146)" stroke-width="1" opacity="1" d="M 96.5 57 L 98 57.5 L 95.5 59 L 96.5 57 Z " /><path fill="rgb(232,215,146)" stroke="rgb(232,215,146)" stroke-width="1" opacity="1" d="M 88.5 59 L 89.5 61 L 88.5 59 Z " /><path fill="rgb(232,215,146)" stroke="rgb(232,215,146)" stroke-width="1" opacity="1" d="M 76 61 L 80 62 L 82.5 68 L 84 67.5 L 84 69.5 L 84.5 71 L 86 70.5 L 85.5 72 L 87 72.5 L 84 73 L 83.5 76 L 83 73.5 L 84 71 L 81 72.5 L 82 80.5 L 80 81.5 L 79 72.5 L 82 68.5 L 79 67.5 L 76 61 Z " /><path fill="rgb(232,215,146)" stroke="rgb(232,215,146)" stroke-width="1" opacity="1" d="M 83.5 61 L 87 62.5 L 84.5 64 L 83.5 61 Z " /><path fill="rgb(232,215,146)" stroke="rgb(232,215,146)" stroke-width="1" opacity="1" d="M 117.5 61 L 118 63.5 L 116 62.5 L 117.5 61 Z " /><path fill="rgb(232,215,146)" stroke="rgb(232,215,146)" stroke-width="1" opacity="1" d="M 122.5 62 L 123 65.5 L 120 67 L 120 69 Q 117.3 67.9 118 70.5 L 117 70.5 L 119 66 L 121 65.5 L 120.5 64 L 122 64.5 L 122.5 62 Z " /><path fill="rgb(232,215,146)" stroke="rgb(232,215,146)" stroke-width="1" opacity="1" d="M 87 65 Q 91.5 63.5 90 68 Q 85.5 69.5 87 65 Z " /><path fill="rgb(232,215,146)" stroke="rgb(232,215,146)" stroke-width="1" opacity="1" d="M 124.5 65 L 125 68.5 L 124 68.5 L 124.5 65 Z " /><path fill="rgb(232,215,146)" stroke="rgb(232,215,146)" stroke-width="1" opacity="1" d="M 94.5 70 L 96 70.5 L 94 71 L 93.5 74 L 93 71.5 L 94.5 70 Z " /><path fill="rgb(232,215,146)" stroke="rgb(232,215,146)" stroke-width="1" opacity="1" d="M 105 70 Q 107.7 68.9 107 71.5 L 108 73.5 L 105 71.5 L 105 70 Z " /><path fill="rgb(232,215,146)" stroke="rgb(232,215,146)" stroke-width="1" opacity="1" d="M 125.5 74 L 126 75.5 Q 122.5 77 125 78.5 L 124.5 80 L 123 77.5 L 125.5 74 Z " /><path fill="rgb(232,215,146)" stroke="rgb(232,215,146)" stroke-width="1" opacity="1" d="M 96.5 77 L 97 78.5 L 95.5 81 L 95 79.5 L 96.5 77 Z " /><path fill="rgb(232,215,146)" stroke="rgb(232,215,146)" stroke-width="1" opacity="1" d="M 92.5 78 L 91.5 80 L 92.5 78 Z " /><path fill="rgb(232,215,146)" stroke="rgb(232,215,146)" stroke-width="1" opacity="1" d="M 98.5 80 L 99 82.5 L 98 82.5 L 98.5 80 Z " /><path fill="rgb(232,215,146)" stroke="rgb(232,215,146)" stroke-width="1" opacity="1" d="M 110.5 80 L 111.5 82 L 110.5 80 Z " /><path fill="rgb(232,215,146)" stroke="rgb(232,215,146)" stroke-width="1" opacity="1" d="M 148 81 L 150 81.5 L 148 82.5 L 148 81 Z " /><path fill="rgb(232,215,146)" stroke="rgb(232,215,146)" stroke-width="1" opacity="1" d="M 128.5 83 L 132 85.5 Q 130.5 88.5 129 85.5 L 128.5 83 Z " /><path fill="rgb(232,215,146)" stroke="rgb(232,215,146)" stroke-width="1" opacity="1" d="M 71.5 84 Q 78.3 82.7 81 85.5 L 78.5 87 L 78 85 L 71.5 85 L 71.5 84 Z " /><path fill="rgb(232,215,146)" stroke="rgb(232,215,146)" stroke-width="1" opacity="1" d="M 91 84 L 96 86.5 L 94.5 87 Q 92.8 83.9 91 85.5 L 91 84 Z " /><path fill="rgb(232,215,146)" stroke="rgb(232,215,146)" stroke-width="1" opacity="1" d="M 54.5 85 L 53.5 87 L 54.5 85 Z " /><path fill="rgb(232,215,146)" stroke="rgb(232,215,146)" stroke-width="1" opacity="1" d="M 99.5 86 L 102 86.5 L 99.5 87 L 99.5 86 Z " /><path fill="rgb(232,215,146)" stroke="rgb(232,215,146)" stroke-width="1" opacity="1" d="M 73.5 87 L 80 89.5 L 72.5 90 L 72.5 89 L 74 88.5 L 73.5 87 Z " /><path fill="rgb(232,215,146)" stroke="rgb(232,215,146)" stroke-width="1" opacity="1" d="M 62.5 88 L 71 89.5 L 66.5 90 L 62.5 89 L 62.5 88 Z " /><path fill="rgb(232,215,146)" stroke="rgb(232,215,146)" stroke-width="1" opacity="1" d="M 92.5 88 L 93.5 90 Q 90.7 90.7 92.5 88 Z " /><path fill="rgb(232,215,146)" stroke="rgb(232,215,146)" stroke-width="1" opacity="1" d="M 124.5 88 L 123.5 90 L 124.5 88 Z " /><path fill="rgb(232,215,146)" stroke="rgb(232,215,146)" stroke-width="1" opacity="1" d="M 137.5 88 L 141 88.5 L 137.5 89 L 137.5 88 Z " /><path fill="rgb(232,215,146)" stroke="rgb(232,215,146)" stroke-width="1" opacity="1" d="M 115.5 91 L 120 91.5 L 115.5 92 L 115.5 91 Z " /><path fill="rgb(232,215,146)" stroke="rgb(232,215,146)" stroke-width="1" opacity="1" d="M 122.5 91 L 123 92.5 L 121 93.5 L 122.5 91 Z " /><path fill="rgb(232,215,146)" stroke="rgb(232,215,146)" stroke-width="1" opacity="1" d="M 113.5 93 L 119 93.5 L 113.5 94 L 113.5 93 Z " /><path fill="rgb(232,215,146)" stroke="rgb(232,215,146)" stroke-width="1" opacity="1" d="M 130.5 95 L 130.5 98 Q 127.5 96.5 130.5 95 Z " /><path fill="rgb(232,215,146)" stroke="rgb(232,215,146)" stroke-width="1" opacity="1" d="M 71.5 98 Q 73.8 97.3 73 99.5 L 74.5 102 L 71.5 98 Z " /><path fill="rgb(232,215,146)" stroke="rgb(232,215,146)" stroke-width="1" opacity="1" d="M 128.5 98 L 125.5 102 L 126 100.5 Q 125.3 98.3 127.5 99 L 128.5 98 Z " /><path fill="rgb(232,215,146)" stroke="rgb(232,215,146)" stroke-width="1" opacity="1" d="M 78.5 101 L 91 101.5 L 78.5 102 L 78.5 101 Z " /><path fill="rgb(232,215,146)" stroke="rgb(232,215,146)" stroke-width="1" opacity="1" d="M 93.5 101 L 99 101.5 L 93.5 102 L 93.5 101 Z " /><path fill="rgb(232,215,146)" stroke="rgb(232,215,146)" stroke-width="1" opacity="1" d="M 100.5 101 L 105 101.5 L 100.5 102 L 100.5 101 Z " /><path fill="rgb(232,215,146)" stroke="rgb(232,215,146)" stroke-width="1" opacity="1" d="M 106.5 101 L 110 101.5 L 106.5 102 L 106.5 101 Z " /><path fill="rgb(232,215,146)" stroke="rgb(232,215,146)" stroke-width="1" opacity="1" d="M 112.5 101 L 116 101.5 L 112.5 102 L 112.5 101 Z " /><path fill="rgb(232,215,146)" stroke="rgb(232,215,146)" stroke-width="1" opacity="1" d="M 118.5 101 L 124 101.5 L 118.5 102 L 118.5 101 Z " /><path fill="rgb(232,215,146)" stroke="rgb(232,215,146)" stroke-width="1" opacity="1" d="M 105.5 115 L 106 120.5 L 105 120.5 L 105.5 115 Z " /><path fill="rgb(232,215,146)" stroke="rgb(232,215,146)" stroke-width="1" opacity="1" d="M 92.5 118 L 93 120.5 L 92 120.5 L 92.5 118 Z " /><path fill="rgb(171,150,91)" stroke="rgb(171,150,91)" stroke-width="1" opacity="1" d="M 83.5 6 Q 85.8 5.3 85 7.5 L 86.5 7 Q 89.1 6.3 88 9 L 75.5 13 L 74.5 12 L 71.5 15 L 60 22 L 55.5 28 L 53 29.5 L 50.5 34 L 49.5 32 L 48.5 34 L 48 30.5 Q 49.7 26.3 51.5 29 L 57 25.5 Q 57.8 23.3 55.5 24 L 52.5 26 L 57.5 20 L 62.5 16 L 60 19.5 L 61.5 21 L 66 17.5 Q 66.8 15.3 64.5 16 L 65.5 14 Q 72.8 8.3 83.5 6 Z M 57 22 Q 56 25 59 24 Q 60 21 57 22 Z " /><path fill="rgb(171,150,91)" stroke="rgb(171,150,91)" stroke-width="1" opacity="1" d="M 90 6 L 92 6.5 L 90 7.5 L 90 6 Z " /><path fill="rgb(171,150,91)" stroke="rgb(171,150,91)" stroke-width="1" opacity="1" d="M 94.5 10 L 104 10.5 L 89.5 12 L 84 14 Q 82.7 10.7 87.5 12 L 94.5 10 Z " /><path fill="rgb(171,150,91)" stroke="rgb(171,150,91)" stroke-width="1" opacity="1" d="M 81.5 13 L 82.5 15 Q 71.2 17.2 65.5 25 L 68 21.5 L 67.5 20 L 69 20.5 Q 68.3 18.3 70.5 19 L 81.5 13 Z " /><path fill="rgb(171,150,91)" stroke="rgb(171,150,91)" stroke-width="1" opacity="1" d="M 94.5 16 L 101 16 L 101 18.5 L 100 18.5 L 100 17 L 95 17 L 94.5 23 L 92 18.5 L 94.5 16 Z " /><path fill="rgb(171,150,91)" stroke="rgb(171,150,91)" stroke-width="1" opacity="1" d="M 108.5 16 L 112.5 16 L 117 19.5 L 116.5 21 L 119 22.5 L 116 22.5 L 115.5 21 L 115 23.5 L 115.5 26 Q 117.8 26.8 117 24.5 L 119.5 24 L 121 24.5 L 115 27.5 L 117 28.5 L 115.5 29 Q 112.5 27.5 114 21.5 L 115 19.5 L 113 19.5 Q 114.3 15.3 109.5 17 L 107.5 18 L 108.5 16 Z " /><path fill="rgb(171,150,91)" stroke="rgb(171,150,91)" stroke-width="1" opacity="1" d="M 82.5 18 L 87 19 Q 86 23.7 89.5 25 L 92 25.5 L 88.5 28 L 83.5 19 L 78 22.5 L 78.5 24 Q 75.8 22.8 78 21.5 Q 77.3 19.3 79.5 20 L 82.5 18 Z " /><path fill="rgb(171,150,91)" stroke="rgb(171,150,91)" stroke-width="1" opacity="1" d="M 102.5 18 L 103 20.5 L 102 20.5 L 102.5 18 Z " /><path fill="rgb(171,150,91)" stroke="rgb(171,150,91)" stroke-width="1" opacity="1" d="M 88.5 19 L 90.5 22 L 92 21.5 Q 90.5 24.5 89 21.5 L 88.5 19 Z " /><path fill="rgb(171,150,91)" stroke="rgb(171,150,91)" stroke-width="1" opacity="1" d="M 104 19 L 108 19.5 L 105 20.5 L 108 21 Q 109.3 25.6 106.5 27 L 104 26.5 L 107 26 L 107 22 Q 102.5 23.5 104 19 Z " /><path fill="rgb(171,150,91)" stroke="rgb(171,150,91)" stroke-width="1" opacity="1" d="M 123 20 Q 131.4 22.1 137 28.5 L 136.5 30 L 140 31 L 139.5 33 L 137.5 32 L 135.5 32 L 133 34.5 L 133.5 36 L 132.5 35 L 130 36.5 L 135 28.5 L 124.5 21 L 122.5 24 L 123 22.5 L 123 20 Z " /><path fill="rgb(171,150,91)" stroke="rgb(171,150,91)" stroke-width="1" opacity="1" d="M 64.5 22 L 62.5 27 L 61 26.5 Q 61.8 28.8 59.5 28 L 60 29.5 L 53.5 36 L 53 34.5 L 58 30.5 L 57 29.5 L 64.5 22 Z " /><path fill="rgb(171,150,91)" stroke="rgb(171,150,91)" stroke-width="1" opacity="1" d="M 102.5 22 L 103.5 24 L 102.5 22 Z " /><path fill="rgb(171,150,91)" stroke="rgb(171,150,91)" stroke-width="1" opacity="1" d="M 101.5 24 L 102.5 26 L 101.5 24 Z " /><path fill="rgb(171,150,91)" stroke="rgb(171,150,91)" stroke-width="1" opacity="1" d="M 70.5 25 L 73 25.5 Q 71.8 28.3 70.5 26 L 67 29.5 L 71 35.5 L 69 34.5 L 66.5 31 L 65 32.5 Q 70.4 35.3 68.5 38 L 70.5 37 L 69.5 39 L 67 37.5 Q 69.3 36.3 66.5 35 Q 65 37.5 63.5 34 L 61 35.5 L 60.5 40 L 59 36.5 L 61 33 L 66 31 L 67.5 27 L 70.5 25 Z " /><path fill="rgb(171,150,91)" stroke="rgb(171,150,91)" stroke-width="1" opacity="1" d="M 78.5 25 L 82 29.5 L 80 28.5 L 78.5 25 Z " /><path fill="rgb(171,150,91)" stroke="rgb(171,150,91)" stroke-width="1" opacity="1" d="M 74.5 28 L 76.5 31 L 78 30.5 L 75.5 32 Q 71 30 74.5 28 Z " /><path fill="rgb(171,150,91)" stroke="rgb(171,150,91)" stroke-width="1" opacity="1" d="M 98.5 33 L 103 33.5 L 98.5 34 L 98.5 33 Z " /><path fill="rgb(171,150,91)" stroke="rgb(171,150,91)" stroke-width="1" opacity="1" d="M 96.5 34 L 99 35.5 L 97.5 36 L 96.5 35 L 94 36.5 L 96.5 34 Z " /><path fill="rgb(171,150,91)" stroke="rgb(171,150,91)" stroke-width="1" opacity="1" d="M 104.5 34 L 108 39.5 L 106.5 42 L 104.5 34 Z " /><path fill="rgb(171,150,91)" stroke="rgb(171,150,91)" stroke-width="1" opacity="1" d="M 140.5 34 L 143.5 36 L 146 39.5 L 141 41 L 140 45.5 L 142 45.5 L 141 48 Q 137.3 49.4 139 43.5 L 140 41.5 L 138 41.5 L 142 36.5 L 139 37.5 L 140.5 34 Z M 143 38 L 142 40 L 144 39 L 143 38 Z " /><path fill="rgb(171,150,91)" stroke="rgb(171,150,91)" stroke-width="1" opacity="1" d="M 81.5 36 Q 84.1 35.3 83 38 Q 76.6 36.8 75 41.5 L 73.5 60 Q 71 55.5 72 47.5 Q 73.1 40.1 78.5 37 L 81.5 36 Z " /><path fill="rgb(171,150,91)" stroke="rgb(171,150,91)" stroke-width="1" opacity="1" d="M 116.5 36 L 119.5 37 L 123.5 36 Q 127.5 38.3 128 43 L 126 42.5 L 126.5 41 Q 124.3 41.8 125 39.5 L 123.5 38 L 117.5 37 L 114.5 42 Q 111.8 40.8 114 39.5 L 116.5 36 Z " /><path fill="rgb(171,150,91)" stroke="rgb(171,150,91)" stroke-width="1" opacity="1" d="M 51 37 L 53 37.5 L 49.5 42 L 50 40.5 L 51 37 Z " /><path fill="rgb(171,150,91)" stroke="rgb(171,150,91)" stroke-width="1" opacity="1" d="M 132.5 38 L 135.5 39 L 137 38.5 L 136.5 41 L 134 41 Q 135.1 38.3 132.5 39 L 132.5 38 Z " /><path fill="rgb(171,150,91)" stroke="rgb(171,150,91)" stroke-width="1" opacity="1" d="M 44 39 Q 47.3 37.9 46 42 Q 42.7 43.1 44 39 Z " /><path fill="rgb(171,150,91)" stroke="rgb(171,150,91)" stroke-width="1" opacity="1" d="M 64.5 40 L 64 41.5 L 65 45.5 Q 64.3 48.8 59.5 48 L 59.5 47 L 63 46.5 L 59 45.5 L 63 43.5 L 64.5 40 Z " /><path fill="rgb(171,150,91)" stroke="rgb(171,150,91)" stroke-width="1" opacity="1" d="M 56.5 41 Q 60.8 42.8 58 44.5 L 57.5 46 L 55 45 L 54 47.5 L 54.5 49 L 53 46.5 L 56.5 41 Z " /><path fill="rgb(171,150,91)" stroke="rgb(171,150,91)" stroke-width="1" opacity="1" d="M 108.5 42 L 109 44 L 112.5 42 L 113 44.5 L 111.5 46 L 108 43.5 L 108.5 42 Z " /><path fill="rgb(171,150,91)" stroke="rgb(171,150,91)" stroke-width="1" opacity="1" d="M 118 42 L 121 42.5 L 119 49 Q 121.7 47.9 121 50.5 Q 117.5 52 120 53.5 Q 121.1 56.8 118.5 56 L 119 54.5 L 118.5 53 L 113.5 54 L 111 55.5 L 110.5 58 L 110 55.5 L 118 45.5 L 118 42 Z " /><path fill="rgb(171,150,91)" stroke="rgb(171,150,91)" stroke-width="1" opacity="1" d="M 142.5 42 L 145 42.5 Q 142.9 45.8 142.5 42 Z " /><path fill="rgb(171,150,91)" stroke="rgb(171,150,91)" stroke-width="1" opacity="1" d="M 48.5 43 L 49 44.5 L 43.5 60 L 43 56.5 L 48.5 43 Z " /><path fill="rgb(171,150,91)" stroke="rgb(171,150,91)" stroke-width="1" opacity="1" d="M 128.5 44 L 130 51.5 L 128.5 57 L 127 46.5 L 128.5 44 Z " /><path fill="rgb(171,150,91)" stroke="rgb(171,150,91)" stroke-width="1" opacity="1" d="M 148.5 45 L 152 51.5 L 148.5 53 L 147 52.5 Q 147.8 54.8 145.5 54 L 143.5 58 Q 144 52.9 141 51.5 L 142.5 52 Q 147.6 52.6 149 49.5 L 148.5 45 Z M 150 50 L 148 52 L 150 52 L 150 50 Z " /><path fill="rgb(171,150,91)" stroke="rgb(171,150,91)" stroke-width="1" opacity="1" d="M 107.5 47 L 110 47.5 L 107.5 48 L 107.5 47 Z " /><path fill="rgb(171,150,91)" stroke="rgb(171,150,91)" stroke-width="1" opacity="1" d="M 145.5 48 L 146.5 50 L 144.5 50 L 143 49.5 L 145.5 48 Z " /><path fill="rgb(171,150,91)" stroke="rgb(171,150,91)" stroke-width="1" opacity="1" d="M 52.5 50 L 55 50.5 Q 52.9 53.8 52.5 50 Z " /><path fill="rgb(171,150,91)" stroke="rgb(171,150,91)" stroke-width="1" opacity="1" d="M 56.5 51 L 55.5 53 L 56.5 51 Z " /><path fill="rgb(171,150,91)" stroke="rgb(171,150,91)" stroke-width="1" opacity="1" d="M 51.5 53 L 53 53.5 L 52 55.5 L 57 61.5 L 56 61.5 L 54.5 59 L 50 55.5 L 51.5 53 Z " /><path fill="rgb(171,150,91)" stroke="rgb(171,150,91)" stroke-width="1" opacity="1" d="M 149.5 55 L 150.5 57 L 152 56.5 Q 150.5 59.5 149 56.5 L 149.5 55 Z " /><path fill="rgb(171,150,91)" stroke="rgb(171,150,91)" stroke-width="1" opacity="1" d="M 90.5 56 Q 93.5 57.5 90.5 59 L 90.5 56 Z " /><path fill="rgb(171,150,91)" stroke="rgb(171,150,91)" stroke-width="1" opacity="1" d="M 113.5 56 L 112.5 58 L 113.5 56 Z " /><path fill="rgb(171,150,91)" stroke="rgb(171,150,91)" stroke-width="1" opacity="1" d="M 115.5 57 L 118 57.5 L 115.5 62 L 115 60.5 L 116 58.5 L 114 58.5 L 115.5 57 Z " /><path fill="rgb(171,150,91)" stroke="rgb(171,150,91)" stroke-width="1" opacity="1" d="M 92.5 59 L 94 61.5 L 92 61.5 Q 92.8 63.8 90.5 63 L 90.5 65 L 87 60.5 L 89.5 62 Q 91.8 62.8 91 60.5 L 92.5 59 Z " /><path fill="rgb(171,150,91)" stroke="rgb(171,150,91)" stroke-width="1" opacity="1" d="M 113.5 60 L 114 62.5 L 112 64.5 L 111.5 67 L 111 64.5 L 113.5 60 Z " /><path fill="rgb(171,150,91)" stroke="rgb(171,150,91)" stroke-width="1" opacity="1" d="M 49.5 61 Q 53.3 60 52 63 L 49.5 61 Z " /><path fill="rgb(171,150,91)" stroke="rgb(171,150,91)" stroke-width="1" opacity="1" d="M 108.5 61 L 109 64.5 L 108 64.5 L 108.5 61 Z " /><path fill="rgb(171,150,91)" stroke="rgb(171,150,91)" stroke-width="1" opacity="1" d="M 119 61 Q 122 60 121 63 L 119 63.5 L 119.5 65 L 118 65.5 Q 120.3 66.8 117.5 68 L 118 64.5 L 119 61 Z " /><path fill="rgb(171,150,91)" stroke="rgb(171,150,91)" stroke-width="1" opacity="1" d="M 144.5 61 L 145.5 63 L 147 62.5 L 146.5 64 Q 151.9 64.6 154 63 Q 155.8 68.3 148.5 66 L 146.5 69 L 151.5 67 L 155 69.5 L 154.5 72 L 152.5 69 L 149.5 68 Q 146.5 68.5 147 72.5 L 151 75.5 L 149.5 75 L 145.5 72 L 145 73.5 L 147.5 77 L 151.5 78 L 154 77 Q 155.4 81 148.5 79 L 146.5 78 L 143.5 82 L 138.5 84 L 138 82 L 131.5 80 L 128.5 81 Q 124.1 82.5 125 79.5 L 126.5 80 L 132.5 78 Q 135.3 81.7 141.5 82 L 146 76.5 Q 143.4 75.1 144 70.5 L 147 65 Q 144.3 66.1 145 63.5 L 144.5 61 Z " /><path fill="rgb(171,150,91)" stroke="rgb(171,150,91)" stroke-width="1" opacity="1" d="M 81.5 62 L 84 63.5 L 85 67 L 87 67.5 L 84 68 L 81.5 62 Z " /><path fill="rgb(171,150,91)" stroke="rgb(171,150,91)" stroke-width="1" opacity="1" d="M 55.5 63 Q 57.8 62.3 57 64.5 L 55 65.5 L 55.5 63 Z " /><path fill="rgb(171,150,91)" stroke="rgb(171,150,91)" stroke-width="1" opacity="1" d="M 49 65 L 51 65.5 L 50 67.5 L 57 72.5 Q 57.8 76.3 55.5 77 L 56 75.5 Q 57.5 71.1 54.5 72 L 52 71.5 L 50.5 69 L 48 67.5 L 49 65 Z " /><path fill="rgb(171,150,91)" stroke="rgb(171,150,91)" stroke-width="1" opacity="1" d="M 94 65 Q 99.2 63.3 98 67 L 95.5 66 L 94 66.5 L 94 65 Z " /><path fill="rgb(171,150,91)" stroke="rgb(171,150,91)" stroke-width="1" opacity="1" d="M 105.5 65 Q 107.8 64.3 107 66.5 L 104 69.5 L 104 83 L 109 83 L 109 85 L 104.5 86 L 104.5 84 L 100.5 83 L 97.5 85 L 97.5 84 L 99 84 L 99 81 Q 102 82 101 79 Q 98.3 80.1 99 77.5 L 102 77.5 L 102.5 81 L 103 71.5 L 103 69.5 L 105.5 65 Z " /><path fill="rgb(171,150,91)" stroke="rgb(171,150,91)" stroke-width="1" opacity="1" d="M 109.5 67 L 110.5 69 L 109.5 67 Z " /><path fill="rgb(171,150,91)" stroke="rgb(171,150,91)" stroke-width="1" opacity="1" d="M 90.5 68 L 91.5 70 Q 88.7 70.7 90.5 68 Z " /><path fill="rgb(171,150,91)" stroke="rgb(171,150,91)" stroke-width="1" opacity="1" d="M 85.5 69 L 86.5 71 L 85.5 69 Z " /><path fill="rgb(171,150,91)" stroke="rgb(171,150,91)" stroke-width="1" opacity="1" d="M 116.5 69 L 115 71.5 L 116 76.5 L 115 76.5 L 114 71.5 L 116.5 69 Z " /><path fill="rgb(171,150,91)" stroke="rgb(171,150,91)" stroke-width="1" opacity="1" d="M 98 70 L 100 70.5 L 99.5 72 Q 103.3 71 102 74 Q 99.3 72.9 100 75.5 L 99 75.5 L 98 70 Z " /><path fill="rgb(171,150,91)" stroke="rgb(171,150,91)" stroke-width="1" opacity="1" d="M 126.5 71 L 127 73.5 L 126 73.5 L 126.5 71 Z " /><path fill="rgb(171,150,91)" stroke="rgb(171,150,91)" stroke-width="1" opacity="1" d="M 87.5 72 L 88 74.5 L 87 74.5 L 87.5 72 Z " /><path fill="rgb(171,150,91)" stroke="rgb(171,150,91)" stroke-width="1" opacity="1" d="M 153.5 73 L 152.5 75 L 153.5 73 Z " /><path fill="rgb(171,150,91)" stroke="rgb(171,150,91)" stroke-width="1" opacity="1" d="M 113.5 75 L 114 77.5 L 113 77.5 L 113.5 75 Z " /><path fill="rgb(171,150,91)" stroke="rgb(171,150,91)" stroke-width="1" opacity="1" d="M 50.5 77 L 52 77.5 L 51 79.5 Q 52.3 82.3 53.5 80 L 56.5 78 L 60 84 L 65 84.5 L 61.5 86 L 59.5 85 L 58 85.5 L 58.5 84 Q 56.3 84.8 57 82.5 L 57 80.5 L 56.5 79 L 53 81.5 L 53.5 83 L 49 79.5 L 50.5 77 Z " /><path fill="rgb(171,150,91)" stroke="rgb(171,150,91)" stroke-width="1" opacity="1" d="M 86.5 77 L 87 79.5 L 86 82 L 80.5 84 L 81.5 82 Q 85.5 82.5 86 79.5 L 86.5 77 Z " /><path fill="rgb(171,150,91)" stroke="rgb(171,150,91)" stroke-width="1" opacity="1" d="M 114.5 79 L 118 80.5 L 116 81 Q 114.9 83.7 117.5 83 L 117.5 84 L 115.5 83 L 113.5 83 Q 109.8 83.8 109 81.5 L 110.5 81 L 114.5 83 L 115 80.5 L 114.5 79 Z " /><path fill="rgb(171,150,91)" stroke="rgb(171,150,91)" stroke-width="1" opacity="1" d="M 147.5 80 L 148 82 L 146 81.5 L 147.5 80 Z " /><path fill="rgb(171,150,91)" stroke="rgb(171,150,91)" stroke-width="1" opacity="1" d="M 87.5 81 L 88 84 L 86 83.5 L 87.5 81 Z " /><path fill="rgb(171,150,91)" stroke="rgb(171,150,91)" stroke-width="1" opacity="1" d="M 119.5 81 L 123 82.5 L 121.5 83 L 119.5 81 Z " /><path fill="rgb(171,150,91)" stroke="rgb(171,150,91)" stroke-width="1" opacity="1" d="M 151.5 81 L 153 81.5 L 149.5 83 L 149.5 82 L 151.5 81 Z " /><path fill="rgb(171,150,91)" stroke="rgb(171,150,91)" stroke-width="1" opacity="1" d="M 76.5 82 Q 80.3 81 79 84 L 73 83.5 L 76.5 82 Z " /><path fill="rgb(171,150,91)" stroke="rgb(171,150,91)" stroke-width="1" opacity="1" d="M 90 82 L 96 83 Q 97.1 85.7 94.5 85 L 91.5 83 L 90 83.5 L 90 82 Z " /><path fill="rgb(171,150,91)" stroke="rgb(171,150,91)" stroke-width="1" opacity="1" d="M 66.5 83 L 71 83.5 L 66.5 84 L 66.5 83 Z " /><path fill="rgb(171,150,91)" stroke="rgb(171,150,91)" stroke-width="1" opacity="1" d="M 146.5 83 L 150.5 86 L 152 85.5 Q 150.3 88.8 148.5 85 L 144 84.5 L 146.5 83 Z " /><path fill="rgb(171,150,91)" stroke="rgb(171,150,91)" stroke-width="1" opacity="1" d="M 92.5 86 L 96 88.5 L 94.5 88 L 91 87.5 L 92.5 86 Z " /><path fill="rgb(171,150,91)" stroke="rgb(171,150,91)" stroke-width="1" opacity="1" d="M 109 86 L 114 87 L 116 90.5 L 71.5 91 L 71.5 90 L 87 89.5 L 84 87.5 L 86.5 87 L 89 88 L 89.5 90 L 104.5 90 L 106.5 89 Q 107.7 91.3 112.5 90 L 111.5 88 Q 107.8 89 109 86 Z " /><path fill="rgb(171,150,91)" stroke="rgb(171,150,91)" stroke-width="1" opacity="1" d="M 59.5 87 L 60 89 L 62 89.5 L 61.5 91 L 64.5 90 L 64.5 91 L 63 91.5 L 68 93 L 66.5 97 L 65 97.5 L 67 98.5 L 65.5 99 L 63.5 98 Q 62.3 101.7 58 101 L 53 90.5 L 59.5 87 Z M 57 89 L 55 91 L 56 93 L 60 92 L 57 89 Z M 61 92 L 59 94 Q 58 97 61 98 Q 65 98 67 95 L 61 92 Z " /><path fill="rgb(171,150,91)" stroke="rgb(171,150,91)" stroke-width="1" opacity="1" d="M 103.5 87 L 104 89 L 102 88.5 L 103.5 87 Z " /><path fill="rgb(171,150,91)" stroke="rgb(171,150,91)" stroke-width="1" opacity="1" d="M 147.5 87 L 151 89.5 L 142.5 104 L 140.5 105 L 137 103.5 L 138.5 102 L 141 103.5 L 138.5 100 L 137 100.5 L 136 98.5 L 139.5 93 Q 144.9 94.9 144 91.5 L 145 89.5 L 144.5 88 Q 146 90.5 147.5 87 Z M 146 90 L 145 93 L 147 95 L 149 91 L 146 90 Z M 140 95 L 140 100 L 144 100 L 146 96 L 145 96 L 140 95 Z " /><path fill="rgb(171,150,91)" stroke="rgb(171,150,91)" stroke-width="1" opacity="1" d="M 117.5 90 L 122 90.5 L 117.5 91 L 117.5 90 Z " /><path fill="rgb(171,150,91)" stroke="rgb(171,150,91)" stroke-width="1" opacity="1" d="M 129.5 90 Q 134 89 135 91.5 L 133.5 91 Q 128.5 92 129.5 90 Z " /><path fill="rgb(171,150,91)" stroke="rgb(171,150,91)" stroke-width="1" opacity="1" d="M 161.5 90 L 160.5 92 L 161.5 90 Z " /><path fill="rgb(171,150,91)" stroke="rgb(171,150,91)" stroke-width="1" opacity="1" d="M 128.5 92 L 131 93.5 L 125.5 97 Q 122.5 95.5 125.5 94 L 128.5 92 Z " /><path fill="rgb(171,150,91)" stroke="rgb(171,150,91)" stroke-width="1" opacity="1" d="M 69.5 94 L 70 96.5 L 69 96.5 L 69.5 94 Z " /><path fill="rgb(171,150,91)" stroke="rgb(171,150,91)" stroke-width="1" opacity="1" d="M 72 94 L 75.5 95 L 93.5 95 L 95.5 96 L 98.5 95 Q 108 93 111.5 97 L 112.5 96 L 123 96 L 121.5 100 L 116.5 99 L 115.5 100 L 101.5 100 L 102 98.5 Q 102.8 96.3 100.5 97 L 97.5 98 L 94.5 97 L 92.5 100 L 92 98 L 89.5 97 L 86.5 99 L 83.5 97 L 79.5 100 L 79.5 98 L 74 100 L 72 94 Z M 75 97 L 76 99 Q 77 96 75 97 Z M 106 97 L 104 99 L 107 99 L 106 97 Z " /><path fill="rgb(171,150,91)" stroke="rgb(171,150,91)" stroke-width="1" opacity="1" d="M 135 94 L 137 94.5 L 135 99 Q 132.3 100.1 133 97.5 L 135 94 Z " /><path fill="rgb(171,150,91)" stroke="rgb(171,150,91)" stroke-width="1" opacity="1" d="M 158.5 97 L 159 98.5 L 157 99.5 L 158.5 97 Z " /><path fill="rgb(171,150,91)" stroke="rgb(171,150,91)" stroke-width="1" opacity="1" d="M 67.5 100 L 68.5 102 L 67.5 100 Z " /><path fill="rgb(171,150,91)" stroke="rgb(171,150,91)" stroke-width="1" opacity="1" d="M 71.5 100 L 73.5 103 L 71.5 100 Z " /><path fill="rgb(171,150,91)" stroke="rgb(171,150,91)" stroke-width="1" opacity="1" d="M 61.5 102 L 62.5 104 L 61.5 102 Z " /><path fill="rgb(171,150,91)" stroke="rgb(171,150,91)" stroke-width="1" opacity="1" d="M 133.5 102 L 136 102.5 L 133.5 103 L 133.5 102 Z " /><path fill="rgb(171,150,91)" stroke="rgb(171,150,91)" stroke-width="1" opacity="1" d="M 70.5 103 L 73 104.5 L 68.5 110 L 64 106.5 L 70.5 103 Z " /><path fill="rgb(171,150,91)" stroke="rgb(171,150,91)" stroke-width="1" opacity="1" d="M 77.5 105 L 120.5 106 L 122 107.5 L 121 109.5 L 122 112 L 126 112 L 126 113.5 Q 130.3 115.8 125.5 118 L 121 119 L 120.5 117 L 119.5 119 L 119 117.5 L 120 115.5 L 118 115.5 L 119 113.5 L 114 113.5 L 116 121 L 113.5 122 L 111 121 Q 112.1 117.7 108 119 L 108 116.5 L 107 116.5 L 106.5 122 L 105.5 115 L 104.5 118 L 103.5 115 L 103 122 L 98 121 L 99 116.5 L 96.5 112 Q 91 111 90 114.5 Q 90.8 118.3 88.5 119 Q 84.8 120.3 86 116.5 L 87 114.5 L 85 114.5 L 86 111.5 L 83.5 109 L 80.5 108 L 75.5 114 Q 72.9 114.8 74 111.5 L 77.5 105 Z M 88 106 Q 85 107 86 111 L 93 110 Q 99 109 100 113 L 105 112 L 108 114 Q 107 117 112 115 L 113 113 L 118 109 Q 119 105 115 107 L 113 107 L 101 107 L 100 108 L 99 107 L 88 106 Z M 115 111 L 115 113 L 118 113 Q 119 109 115 111 Z M 120 113 L 120 115 L 123 116 L 122 115 Q 123 112 120 113 Z " /><path fill="rgb(171,150,91)" stroke="rgb(171,150,91)" stroke-width="1" opacity="1" d="M 131.5 105 L 138 107.5 L 134.5 112 L 132.5 113 L 130 107.5 L 131.5 105 Z " /><path fill="rgb(171,150,91)" stroke="rgb(171,150,91)" stroke-width="1" opacity="1" d="M 73.5 106 Q 75.8 105.3 75 107.5 L 72 107.5 L 73.5 106 Z " /><path fill="rgb(171,150,91)" stroke="rgb(171,150,91)" stroke-width="1" opacity="1" d="M 70.5 110 L 71.5 112 L 70.5 110 Z " /><path fill="rgb(171,150,91)" stroke="rgb(171,150,91)" stroke-width="1" opacity="1" d="M 128.5 110 L 127.5 112 L 128.5 110 Z " /><path fill="rgb(171,150,91)" stroke="rgb(171,150,91)" stroke-width="1" opacity="1" d="M 77.5 115 L 78.5 117 Q 75.7 117.7 77.5 115 Z " /><path fill="rgb(171,150,91)" stroke="rgb(171,150,91)" stroke-width="1" opacity="1" d="M 83.5 115 Q 86.5 116.5 83.5 118 L 82 117.5 L 84 116.5 L 83.5 115 Z " /><path fill="rgb(171,150,91)" stroke="rgb(171,150,91)" stroke-width="1" opacity="1" d="M 91.5 118 L 92 120.5 L 91 120.5 L 91.5 118 Z " /></svg>